<?xml version="1.0" encoding="utf-8" standalone="no"?>
<!DOCTYPE svg PUBLIC "-//W3C//DTD SVG 1.1//EN"
  "http://www.w3.org/Graphics/SVG/1.1/DTD/svg11.dtd">
<!-- Created with matplotlib (http://matplotlib.org/) -->
<svg height="432pt" version="1.1" viewBox="0 0 576 432" width="576pt" xmlns="http://www.w3.org/2000/svg" xmlns:xlink="http://www.w3.org/1999/xlink">
 <defs>
  <style type="text/css">
*{stroke-linecap:butt;stroke-linejoin:round;}
  </style>
 </defs>
 <g id="figure_1">
  <g id="patch_1">
   <path d="
M0 432
L576 432
L576 0
L0 0
z
" style="fill:#ffffff;"/>
  </g>
  <g id="axes_1">
   <g id="patch_2">
    <path d="
M72 388.8
L518.4 388.8
L518.4 43.2
L72 43.2
z
" style="fill:#ffffff;"/>
   </g>
   <g id="Quiver_1">
    <defs>
     <path d="
M-0.8928 -5.46682e-17
L-0.8928 -74.2505
L-1.7856 -76.9289
L5.03855e-15 -82.2857
L1.7856 -76.9289
L0.8928 -74.2505
L0.8928 5.46682e-17
L-0.8928 -5.46682e-17" id="C0_0_5a7625b99a"/>
     <path d="
M-1.09336e-16 0.8928
L-23.8505 0.8928
L-26.5289 1.7856
L-31.8857 -3.90487e-15
L-26.5289 -1.7856
L-23.8505 -0.8928
L1.09336e-16 -0.8928
L-1.09336e-16 0.8928" id="C0_1_9fdaebfd9c"/>
     <path d="
M0.8928 -5.46682e-17
L0.8928 24.8791
L1.7856 27.5575
L2.01542e-15 32.9143
L-1.7856 27.5575
L-0.8928 24.8791
L-0.8928 5.46682e-17
L0.8928 -5.46682e-17" id="C0_2_a4d158698f"/>
     <path d="
M0 -0.8928
L55.7362 -0.8928
L58.4146 -1.7856
L63.7714 0
L58.4146 1.7856
L55.7362 0.8928
L0 0.8928
L0 -0.8928" id="C0_3_f616aa102b"/>
     <path d="
M-0.8928 -5.46682e-17
L-0.8928 -8.42194
L-1.7856 -11.1003
L1.00771e-15 -16.4571
L1.7856 -11.1003
L0.8928 -8.42194
L0.8928 5.46682e-17
L-0.8928 -5.46682e-17" id="C0_4_bdb1889c06"/>
     <path d="
M-1.09336e-16 0.8928
L-151.393 0.8928
L-154.072 1.7856
L-159.429 -1.95244e-14
L-154.072 -1.7856
L-151.393 -0.8928
L1.09336e-16 -0.8928
L-1.09336e-16 0.8928" id="C0_5_a86fb683ad"/>
     <path d="
M0.8928 -5.46682e-17
L0.8928 8.42194
L1.7856 11.1003
L1.00771e-15 16.4571
L-1.7856 11.1003
L-0.8928 8.42194
L-0.8928 5.46682e-17
L0.8928 -5.46682e-17" id="C0_6_90958b9919"/>
     <path d="
M0 -0.8928
L55.7362 -0.8928
L58.4146 -1.7856
L63.7714 0
L58.4146 1.7856
L55.7362 0.8928
L0 0.8928
L0 -0.8928" id="C0_7_f616aa102b"/>
     <path d="
M-0.8928 -5.46682e-17
L-0.8928 -24.8791
L-1.7856 -27.5575
L2.01542e-15 -32.9143
L1.7856 -27.5575
L0.8928 -24.8791
L0.8928 5.46682e-17
L-0.8928 -5.46682e-17" id="C0_8_cf81730f18"/>
     <path d="
M-1.09336e-16 0.8928
L-23.8505 0.8928
L-26.5289 1.7856
L-31.8857 -3.90487e-15
L-26.5289 -1.7856
L-23.8505 -0.8928
L1.09336e-16 -0.8928
L-1.09336e-16 0.8928" id="C0_9_9fdaebfd9c"/>
     <path d="
M0.8928 -5.46682e-17
L0.8928 74.2505
L1.7856 76.9289
L5.03855e-15 82.2857
L-1.7856 76.9289
L-0.8928 74.2505
L-0.8928 5.46682e-17
L0.8928 -5.46682e-17" id="C0_a_dbce651ff0"/>
     <path d="
M0 -0.8928
L23.8505 -0.8928
L26.5289 -1.7856
L31.8857 0
L26.5289 1.7856
L23.8505 0.8928
L0 0.8928
L0 -0.8928" id="C0_b_ce700e7015"/>
     <path d="
M-0.8928 -5.46682e-17
L-0.8928 -24.8791
L-1.7856 -27.5575
L2.01542e-15 -32.9143
L1.7856 -27.5575
L0.8928 -24.8791
L0.8928 5.46682e-17
L-0.8928 -5.46682e-17" id="C0_c_cf81730f18"/>
     <path d="
M-1.09336e-16 0.8928
L-119.508 0.8928
L-122.186 1.7856
L-127.543 -1.56195e-14
L-122.186 -1.7856
L-119.508 -0.8928
L1.09336e-16 -0.8928
L-1.09336e-16 0.8928" id="C0_d_582687295f"/>
     <path d="
M0.8928 -5.46682e-17
L0.8928 24.8791
L1.7856 27.5575
L2.01542e-15 32.9143
L-1.7856 27.5575
L-0.8928 24.8791
L-0.8928 5.46682e-17
L0.8928 -5.46682e-17" id="C0_e_a4d158698f"/>
     <path d="
M0 -0.8928
L23.8505 -0.8928
L26.5289 -1.7856
L31.8857 0
L26.5289 1.7856
L23.8505 0.8928
L0 0.8928
L0 -0.8928" id="C0_f_ce700e7015"/>
     <path d="
M-0.8928 -5.46682e-17
L-0.8928 -8.42194
L-1.7856 -11.1003
L1.00771e-15 -16.4571
L1.7856 -11.1003
L0.8928 -8.42194
L0.8928 5.46682e-17
L-0.8928 -5.46682e-17" id="C0_10_bdb1889c06"/>
     <path d="
M-1.09336e-16 0.8928
L-87.6219 0.8928
L-90.3003 1.7856
L-95.6571 -1.17146e-14
L-90.3003 -1.7856
L-87.6219 -0.8928
L1.09336e-16 -0.8928
L-1.09336e-16 0.8928" id="C0_11_c5dd68c85b"/>
     <path d="
M0.8928 -5.46682e-17
L0.8928 8.42194
L1.7856 11.1003
L1.00771e-15 16.4571
L-1.7856 11.1003
L-0.8928 8.42194
L-0.8928 5.46682e-17
L0.8928 -5.46682e-17" id="C0_12_90958b9919"/>
     <path d="
M0 -0.8928
L55.7362 -0.8928
L58.4146 -1.7856
L63.7714 0
L58.4146 1.7856
L55.7362 0.8928
L0 0.8928
L0 -0.8928" id="C0_13_f616aa102b"/>
     <path d="
M-0.8928 -5.46682e-17
L-0.8928 -24.8791
L-1.7856 -27.5575
L2.01542e-15 -32.9143
L1.7856 -27.5575
L0.8928 -24.8791
L0.8928 5.46682e-17
L-0.8928 -5.46682e-17" id="C0_14_cf81730f18"/>
     <path d="
M-1.09336e-16 0.8928
L-23.8505 0.8928
L-26.5289 1.7856
L-31.8857 -3.90487e-15
L-26.5289 -1.7856
L-23.8505 -0.8928
L1.09336e-16 -0.8928
L-1.09336e-16 0.8928" id="C0_15_9fdaebfd9c"/>
     <path d="
M0.8928 -5.46682e-17
L0.8928 57.7934
L1.7856 60.4718
L4.03084e-15 65.8286
L-1.7856 60.4718
L-0.8928 57.7934
L-0.8928 5.46682e-17
L0.8928 -5.46682e-17" id="C0_16_9594bf0ed2"/>
     <path d="
M0 -0.8928
L87.6219 -0.8928
L90.3003 -1.7856
L95.6571 0
L90.3003 1.7856
L87.6219 0.8928
L0 0.8928
L0 -0.8928" id="C0_17_24e85ccba2"/>
     <path d="
M-0.8928 -5.46682e-17
L-0.8928 -8.42194
L-1.7856 -11.1003
L1.00771e-15 -16.4571
L1.7856 -11.1003
L0.8928 -8.42194
L0.8928 5.46682e-17
L-0.8928 -5.46682e-17" id="C0_18_bdb1889c06"/>
     <path d="
M-1.09336e-16 0.8928
L-23.8505 0.8928
L-26.5289 1.7856
L-31.8857 -3.90487e-15
L-26.5289 -1.7856
L-23.8505 -0.8928
L1.09336e-16 -0.8928
L-1.09336e-16 0.8928" id="C0_19_9fdaebfd9c"/>
     <path d="
M0.8928 -5.46682e-17
L0.8928 41.3362
L1.7856 44.0146
L3.02313e-15 49.3714
L-1.7856 44.0146
L-0.8928 41.3362
L-0.8928 5.46682e-17
L0.8928 -5.46682e-17" id="C0_1a_4d9b49cab2"/>
     <path d="
M0 -0.8928
L23.8505 -0.8928
L26.5289 -1.7856
L31.8857 0
L26.5289 1.7856
L23.8505 0.8928
L0 0.8928
L0 -0.8928" id="C0_1b_ce700e7015"/>
     <path d="
M-0.8928 -5.46682e-17
L-0.8928 -8.42194
L-1.7856 -11.1003
L1.00771e-15 -16.4571
L1.7856 -11.1003
L0.8928 -8.42194
L0.8928 5.46682e-17
L-0.8928 -5.46682e-17" id="C0_1c_bdb1889c06"/>
     <path d="
M-1.09336e-16 0.8928
L-55.7362 0.8928
L-58.4146 1.7856
L-63.7714 -7.80975e-15
L-58.4146 -1.7856
L-55.7362 -0.8928
L1.09336e-16 -0.8928
L-1.09336e-16 0.8928" id="C0_1d_90bc92312e"/>
     <path d="
M0.8928 -5.46682e-17
L0.8928 57.7934
L1.7856 60.4718
L4.03084e-15 65.8286
L-1.7856 60.4718
L-0.8928 57.7934
L-0.8928 5.46682e-17
L0.8928 -5.46682e-17" id="C0_1e_9594bf0ed2"/>
     <path d="
M0 -0.8928
L55.7362 -0.8928
L58.4146 -1.7856
L63.7714 0
L58.4146 1.7856
L55.7362 0.8928
L0 0.8928
L0 -0.8928" id="C0_1f_f616aa102b"/>
     <path d="
M-0.8928 -5.46682e-17
L-0.8928 -8.42194
L-1.7856 -11.1003
L1.00771e-15 -16.4571
L1.7856 -11.1003
L0.8928 -8.42194
L0.8928 5.46682e-17
L-0.8928 -5.46682e-17" id="C0_20_bdb1889c06"/>
     <path d="
M-1.09336e-16 0.8928
L-23.8505 0.8928
L-26.5289 1.7856
L-31.8857 -3.90487e-15
L-26.5289 -1.7856
L-23.8505 -0.8928
L1.09336e-16 -0.8928
L-1.09336e-16 0.8928" id="C0_21_9fdaebfd9c"/>
     <path d="
M0.8928 -5.46682e-17
L0.8928 41.3362
L1.7856 44.0146
L3.02313e-15 49.3714
L-1.7856 44.0146
L-0.8928 41.3362
L-0.8928 5.46682e-17
L0.8928 -5.46682e-17" id="C0_22_4d9b49cab2"/>
     <path d="
M0 -0.8928
L23.8505 -0.8928
L26.5289 -1.7856
L31.8857 0
L26.5289 1.7856
L23.8505 0.8928
L0 0.8928
L0 -0.8928" id="C0_23_ce700e7015"/>
     <path d="
M-0.8928 -5.46682e-17
L-0.8928 -8.42194
L-1.7856 -11.1003
L1.00771e-15 -16.4571
L1.7856 -11.1003
L0.8928 -8.42194
L0.8928 5.46682e-17
L-0.8928 -5.46682e-17" id="C0_24_bdb1889c06"/>
     <path d="
M-1.09336e-16 0.8928
L-87.6219 0.8928
L-90.3003 1.7856
L-95.6571 -1.17146e-14
L-90.3003 -1.7856
L-87.6219 -0.8928
L1.09336e-16 -0.8928
L-1.09336e-16 0.8928" id="C0_25_c5dd68c85b"/>
     <path d="
M0.8928 -5.46682e-17
L0.8928 57.7934
L1.7856 60.4718
L4.03084e-15 65.8286
L-1.7856 60.4718
L-0.8928 57.7934
L-0.8928 5.46682e-17
L0.8928 -5.46682e-17" id="C0_26_9594bf0ed2"/>
     <path d="
M0 -0.8928
L23.8505 -0.8928
L26.5289 -1.7856
L31.8857 0
L26.5289 1.7856
L23.8505 0.8928
L0 0.8928
L0 -0.8928" id="C0_27_ce700e7015"/>
     <path d="
M-0.8928 -5.46682e-17
L-0.8928 -24.8791
L-1.7856 -27.5575
L2.01542e-15 -32.9143
L1.7856 -27.5575
L0.8928 -24.8791
L0.8928 5.46682e-17
L-0.8928 -5.46682e-17" id="C0_28_cf81730f18"/>
     <path d="
M-1.09336e-16 0.8928
L-55.7362 0.8928
L-58.4146 1.7856
L-63.7714 -7.80975e-15
L-58.4146 -1.7856
L-55.7362 -0.8928
L1.09336e-16 -0.8928
L-1.09336e-16 0.8928" id="C0_29_90bc92312e"/>
     <path d="
M0.8928 -5.46682e-17
L0.8928 8.42194
L1.7856 11.1003
L1.00771e-15 16.4571
L-1.7856 11.1003
L-0.8928 8.42194
L-0.8928 5.46682e-17
L0.8928 -5.46682e-17" id="C0_2a_90958b9919"/>
     <path d="
M0 -0.8928
L87.6219 -0.8928
L90.3003 -1.7856
L95.6571 0
L90.3003 1.7856
L87.6219 0.8928
L0 0.8928
L0 -0.8928" id="C0_2b_24e85ccba2"/>
     <path d="
M-0.8928 -5.46682e-17
L-0.8928 -8.42194
L-1.7856 -11.1003
L1.00771e-15 -16.4571
L1.7856 -11.1003
L0.8928 -8.42194
L0.8928 5.46682e-17
L-0.8928 -5.46682e-17" id="C0_2c_bdb1889c06"/>
     <path d="
M-1.09336e-16 0.8928
L-23.8505 0.8928
L-26.5289 1.7856
L-31.8857 -3.90487e-15
L-26.5289 -1.7856
L-23.8505 -0.8928
L1.09336e-16 -0.8928
L-1.09336e-16 0.8928" id="C0_2d_9fdaebfd9c"/>
     <path d="
M0.8928 -5.46682e-17
L0.8928 24.8791
L1.7856 27.5575
L2.01542e-15 32.9143
L-1.7856 27.5575
L-0.8928 24.8791
L-0.8928 5.46682e-17
L0.8928 -5.46682e-17" id="C0_2e_a4d158698f"/>
     <path d="
M0 -0.8928
L119.508 -0.8928
L122.186 -1.7856
L127.543 0
L122.186 1.7856
L119.508 0.8928
L0 0.8928
L0 -0.8928" id="C0_2f_04f1e157ad"/>
     <path d="
M-0.8928 -5.46682e-17
L-0.8928 -24.8791
L-1.7856 -27.5575
L2.01542e-15 -32.9143
L1.7856 -27.5575
L0.8928 -24.8791
L0.8928 5.46682e-17
L-0.8928 -5.46682e-17" id="C0_30_cf81730f18"/>
     <path d="
M-1.09336e-16 0.8928
L-23.8505 0.8928
L-26.5289 1.7856
L-31.8857 -3.90487e-15
L-26.5289 -1.7856
L-23.8505 -0.8928
L1.09336e-16 -0.8928
L-1.09336e-16 0.8928" id="C0_31_9fdaebfd9c"/>
     <path d="
M0.8928 -5.46682e-17
L0.8928 74.2505
L1.7856 76.9289
L5.03855e-15 82.2857
L-1.7856 76.9289
L-0.8928 74.2505
L-0.8928 5.46682e-17
L0.8928 -5.46682e-17" id="C0_32_dbce651ff0"/>
     <path d="
M0 -0.8928
L23.8505 -0.8928
L26.5289 -1.7856
L31.8857 0
L26.5289 1.7856
L23.8505 0.8928
L0 0.8928
L0 -0.8928" id="C0_33_ce700e7015"/>
     <path d="
M-0.8928 -5.46682e-17
L-0.8928 -24.8791
L-1.7856 -27.5575
L2.01542e-15 -32.9143
L1.7856 -27.5575
L0.8928 -24.8791
L0.8928 5.46682e-17
L-0.8928 -5.46682e-17" id="C0_34_cf81730f18"/>
     <path d="
M-1.09336e-16 0.8928
L-55.7362 0.8928
L-58.4146 1.7856
L-63.7714 -7.80975e-15
L-58.4146 -1.7856
L-55.7362 -0.8928
L1.09336e-16 -0.8928
L-1.09336e-16 0.8928" id="C0_35_90bc92312e"/>
     <path d="
M0.8928 -5.46682e-17
L0.8928 8.42194
L1.7856 11.1003
L1.00771e-15 16.4571
L-1.7856 11.1003
L-0.8928 8.42194
L-0.8928 5.46682e-17
L0.8928 -5.46682e-17" id="C0_36_90958b9919"/>
     <path d="
M0 -0.8928
L151.393 -0.8928
L154.072 -1.7856
L159.429 0
L154.072 1.7856
L151.393 0.8928
L0 0.8928
L0 -0.8928" id="C0_37_74ca611b0a"/>
     <path d="
M-0.8928 -5.46682e-17
L-0.8928 -8.42194
L-1.7856 -11.1003
L1.00771e-15 -16.4571
L1.7856 -11.1003
L0.8928 -8.42194
L0.8928 5.46682e-17
L-0.8928 -5.46682e-17" id="C0_38_bdb1889c06"/>
     <path d="
M-1.09336e-16 0.8928
L-55.7362 0.8928
L-58.4146 1.7856
L-63.7714 -7.80975e-15
L-58.4146 -1.7856
L-55.7362 -0.8928
L1.09336e-16 -0.8928
L-1.09336e-16 0.8928" id="C0_39_90bc92312e"/>
     <path d="
M0.8928 -5.46682e-17
L0.8928 24.8791
L1.7856 27.5575
L2.01542e-15 32.9143
L-1.7856 27.5575
L-0.8928 24.8791
L-0.8928 5.46682e-17
L0.8928 -5.46682e-17" id="C0_3a_a4d158698f"/>
     <path d="
M0 -0.8928
L23.8505 -0.8928
L26.5289 -1.7856
L31.8857 0
L26.5289 1.7856
L23.8505 0.8928
L0 0.8928
L0 -0.8928" id="C0_3b_ce700e7015"/>
     <path d="
M-0.8928 -5.46682e-17
L-0.8928 -74.2505
L-1.7856 -76.9289
L5.03855e-15 -82.2857
L1.7856 -76.9289
L0.8928 -74.2505
L0.8928 5.46682e-17
L-0.8928 -5.46682e-17" id="C0_3c_5a7625b99a"/>
     <path d="
M-1.09336e-16 0.8928
L-23.8505 0.8928
L-26.5289 1.7856
L-31.8857 -3.90487e-15
L-26.5289 -1.7856
L-23.8505 -0.8928
L1.09336e-16 -0.8928
L-1.09336e-16 0.8928" id="C0_3d_9fdaebfd9c"/>
     <path d="
M0.8928 -5.46682e-17
L0.8928 24.8791
L1.7856 27.5575
L2.01542e-15 32.9143
L-1.7856 27.5575
L-0.8928 24.8791
L-0.8928 5.46682e-17
L0.8928 -5.46682e-17" id="C0_3e_a4d158698f"/>
     <path d="
M0 -0.8928
L119.508 -0.8928
L122.186 -1.7856
L127.543 0
L122.186 1.7856
L119.508 0.8928
L0 0.8928
L0 -0.8928" id="C0_3f_04f1e157ad"/>
     <path d="
M-0.8928 -5.46682e-17
L-0.8928 -24.8791
L-1.7856 -27.5575
L2.01542e-15 -32.9143
L1.7856 -27.5575
L0.8928 -24.8791
L0.8928 5.46682e-17
L-0.8928 -5.46682e-17" id="C0_40_cf81730f18"/>
     <path d="
M-1.09336e-16 0.8928
L-23.8505 0.8928
L-26.5289 1.7856
L-31.8857 -3.90487e-15
L-26.5289 -1.7856
L-23.8505 -0.8928
L1.09336e-16 -0.8928
L-1.09336e-16 0.8928" id="C0_41_9fdaebfd9c"/>
     <path d="
M0.8928 -5.46682e-17
L0.8928 8.42194
L1.7856 11.1003
L1.00771e-15 16.4571
L-1.7856 11.1003
L-0.8928 8.42194
L-0.8928 5.46682e-17
L0.8928 -5.46682e-17" id="C0_42_90958b9919"/>
     <path d="
M0 -0.8928
L87.6219 -0.8928
L90.3003 -1.7856
L95.6571 0
L90.3003 1.7856
L87.6219 0.8928
L0 0.8928
L0 -0.8928" id="C0_43_24e85ccba2"/>
     <path d="
M-0.8928 -5.46682e-17
L-0.8928 -8.42194
L-1.7856 -11.1003
L1.00771e-15 -16.4571
L1.7856 -11.1003
L0.8928 -8.42194
L0.8928 5.46682e-17
L-0.8928 -5.46682e-17" id="C0_44_bdb1889c06"/>
     <path d="
M-1.09336e-16 0.8928
L-55.7362 0.8928
L-58.4146 1.7856
L-63.7714 -7.80975e-15
L-58.4146 -1.7856
L-55.7362 -0.8928
L1.09336e-16 -0.8928
L-1.09336e-16 0.8928" id="C0_45_90bc92312e"/>
     <path d="
M0.8928 -5.46682e-17
L0.8928 24.8791
L1.7856 27.5575
L2.01542e-15 32.9143
L-1.7856 27.5575
L-0.8928 24.8791
L-0.8928 5.46682e-17
L0.8928 -5.46682e-17" id="C0_46_a4d158698f"/>
     <path d="
M0 -0.8928
L23.8505 -0.8928
L26.5289 -1.7856
L31.8857 0
L26.5289 1.7856
L23.8505 0.8928
L0 0.8928
L0 -0.8928" id="C0_47_ce700e7015"/>
     <path d="
M-0.8928 -5.46682e-17
L-0.8928 -57.7934
L-1.7856 -60.4718
L4.03084e-15 -65.8286
L1.7856 -60.4718
L0.8928 -57.7934
L0.8928 5.46682e-17
L-0.8928 -5.46682e-17" id="C0_48_8d0279fa17"/>
     <path d="
M-1.09336e-16 0.8928
L-87.6219 0.8928
L-90.3003 1.7856
L-95.6571 -1.17146e-14
L-90.3003 -1.7856
L-87.6219 -0.8928
L1.09336e-16 -0.8928
L-1.09336e-16 0.8928" id="C0_49_c5dd68c85b"/>
     <path d="
M0.8928 -5.46682e-17
L0.8928 8.42194
L1.7856 11.1003
L1.00771e-15 16.4571
L-1.7856 11.1003
L-0.8928 8.42194
L-0.8928 5.46682e-17
L0.8928 -5.46682e-17" id="C0_4a_90958b9919"/>
     <path d="
M0 -0.8928
L23.8505 -0.8928
L26.5289 -1.7856
L31.8857 0
L26.5289 1.7856
L23.8505 0.8928
L0 0.8928
L0 -0.8928" id="C0_4b_ce700e7015"/>
     <path d="
M-0.8928 -5.46682e-17
L-0.8928 -41.3362
L-1.7856 -44.0146
L3.02313e-15 -49.3714
L1.7856 -44.0146
L0.8928 -41.3362
L0.8928 5.46682e-17
L-0.8928 -5.46682e-17" id="C0_4c_e21dbab380"/>
     <path d="
M-1.09336e-16 0.8928
L-23.8505 0.8928
L-26.5289 1.7856
L-31.8857 -3.90487e-15
L-26.5289 -1.7856
L-23.8505 -0.8928
L1.09336e-16 -0.8928
L-1.09336e-16 0.8928" id="C0_4d_9fdaebfd9c"/>
     <path d="
M0.8928 -5.46682e-17
L0.8928 8.42194
L1.7856 11.1003
L1.00771e-15 16.4571
L-1.7856 11.1003
L-0.8928 8.42194
L-0.8928 5.46682e-17
L0.8928 -5.46682e-17" id="C0_4e_90958b9919"/>
     <path d="
M0 -0.8928
L55.7362 -0.8928
L58.4146 -1.7856
L63.7714 0
L58.4146 1.7856
L55.7362 0.8928
L0 0.8928
L0 -0.8928" id="C0_4f_f616aa102b"/>
     <path d="
M-0.8928 -5.46682e-17
L-0.8928 -57.7934
L-1.7856 -60.4718
L4.03084e-15 -65.8286
L1.7856 -60.4718
L0.8928 -57.7934
L0.8928 5.46682e-17
L-0.8928 -5.46682e-17" id="C0_50_8d0279fa17"/>
     <path d="
M-1.09336e-16 0.8928
L-55.7362 0.8928
L-58.4146 1.7856
L-63.7714 -7.80975e-15
L-58.4146 -1.7856
L-55.7362 -0.8928
L1.09336e-16 -0.8928
L-1.09336e-16 0.8928" id="C0_51_90bc92312e"/>
     <path d="
M0.8928 -5.46682e-17
L0.8928 8.42194
L1.7856 11.1003
L1.00771e-15 16.4571
L-1.7856 11.1003
L-0.8928 8.42194
L-0.8928 5.46682e-17
L0.8928 -5.46682e-17" id="C0_52_90958b9919"/>
     <path d="
M0 -0.8928
L23.8505 -0.8928
L26.5289 -1.7856
L31.8857 0
L26.5289 1.7856
L23.8505 0.8928
L0 0.8928
L0 -0.8928" id="C0_53_ce700e7015"/>
     <path d="
M-0.8928 -5.46682e-17
L-0.8928 -41.3362
L-1.7856 -44.0146
L3.02313e-15 -49.3714
L1.7856 -44.0146
L0.8928 -41.3362
L0.8928 5.46682e-17
L-0.8928 -5.46682e-17" id="C0_54_e21dbab380"/>
     <path d="
M-1.09336e-16 0.8928
L-23.8505 0.8928
L-26.5289 1.7856
L-31.8857 -3.90487e-15
L-26.5289 -1.7856
L-23.8505 -0.8928
L1.09336e-16 -0.8928
L-1.09336e-16 0.8928" id="C0_55_9fdaebfd9c"/>
     <path d="
M0.8928 -5.46682e-17
L0.8928 8.42194
L1.7856 11.1003
L1.00771e-15 16.4571
L-1.7856 11.1003
L-0.8928 8.42194
L-0.8928 5.46682e-17
L0.8928 -5.46682e-17" id="C0_56_90958b9919"/>
     <path d="
M0 -0.8928
L87.6219 -0.8928
L90.3003 -1.7856
L95.6571 0
L90.3003 1.7856
L87.6219 0.8928
L0 0.8928
L0 -0.8928" id="C0_57_24e85ccba2"/>
     <path d="
M-0.8928 -5.46682e-17
L-0.8928 -57.7934
L-1.7856 -60.4718
L4.03084e-15 -65.8286
L1.7856 -60.4718
L0.8928 -57.7934
L0.8928 5.46682e-17
L-0.8928 -5.46682e-17" id="C0_58_8d0279fa17"/>
     <path d="
M-1.09336e-16 0.8928
L-23.8505 0.8928
L-26.5289 1.7856
L-31.8857 -3.90487e-15
L-26.5289 -1.7856
L-23.8505 -0.8928
L1.09336e-16 -0.8928
L-1.09336e-16 0.8928" id="C0_59_9fdaebfd9c"/>
     <path d="
M0.8928 -5.46682e-17
L0.8928 24.8791
L1.7856 27.5575
L2.01542e-15 32.9143
L-1.7856 27.5575
L-0.8928 24.8791
L-0.8928 5.46682e-17
L0.8928 -5.46682e-17" id="C0_5a_a4d158698f"/>
     <path d="
M0 -0.8928
L55.7362 -0.8928
L58.4146 -1.7856
L63.7714 0
L58.4146 1.7856
L55.7362 0.8928
L0 0.8928
L0 -0.8928" id="C0_5b_f616aa102b"/>
     <path d="
M-0.8928 -5.46682e-17
L-0.8928 -8.42194
L-1.7856 -11.1003
L1.00771e-15 -16.4571
L1.7856 -11.1003
L0.8928 -8.42194
L0.8928 5.46682e-17
L-0.8928 -5.46682e-17" id="C0_5c_bdb1889c06"/>
     <path d="
M-1.09336e-16 0.8928
L-87.6219 0.8928
L-90.3003 1.7856
L-95.6571 -1.17146e-14
L-90.3003 -1.7856
L-87.6219 -0.8928
L1.09336e-16 -0.8928
L-1.09336e-16 0.8928" id="C0_5d_c5dd68c85b"/>
     <path d="
M0.8928 -5.46682e-17
L0.8928 8.42194
L1.7856 11.1003
L1.00771e-15 16.4571
L-1.7856 11.1003
L-0.8928 8.42194
L-0.8928 5.46682e-17
L0.8928 -5.46682e-17" id="C0_5e_90958b9919"/>
     <path d="
M0 -0.8928
L23.8505 -0.8928
L26.5289 -1.7856
L31.8857 0
L26.5289 1.7856
L23.8505 0.8928
L0 0.8928
L0 -0.8928" id="C0_5f_ce700e7015"/>
     <path d="
M-0.8928 -5.46682e-17
L-0.8928 -24.8791
L-1.7856 -27.5575
L2.01542e-15 -32.9143
L1.7856 -27.5575
L0.8928 -24.8791
L0.8928 5.46682e-17
L-0.8928 -5.46682e-17" id="C0_60_cf81730f18"/>
     <path d="
M-1.09336e-16 0.8928
L-119.508 0.8928
L-122.186 1.7856
L-127.543 -1.56195e-14
L-122.186 -1.7856
L-119.508 -0.8928
L1.09336e-16 -0.8928
L-1.09336e-16 0.8928" id="C0_61_582687295f"/>
     <path d="
M0.8928 -5.46682e-17
L0.8928 24.8791
L1.7856 27.5575
L2.01542e-15 32.9143
L-1.7856 27.5575
L-0.8928 24.8791
L-0.8928 5.46682e-17
L0.8928 -5.46682e-17" id="C0_62_a4d158698f"/>
     <path d="
M0 -0.8928
L23.8505 -0.8928
L26.5289 -1.7856
L31.8857 0
L26.5289 1.7856
L23.8505 0.8928
L0 0.8928
L0 -0.8928" id="C0_63_ce700e7015"/>
    </defs>
    <g clip-path="url(#p7ff5b81e1d)">
     <use x="343.028571429" xlink:href="#C0_0_5a7625b99a" y="133.714285714"/>
    </g>
    <g clip-path="url(#p7ff5b81e1d)">
     <use x="343.028571429" xlink:href="#C0_1_9fdaebfd9c" y="51.4285714286"/>
    </g>
    <g clip-path="url(#p7ff5b81e1d)">
     <use x="311.142857143" xlink:href="#C0_2_a4d158698f" y="51.4285714286"/>
    </g>
    <g clip-path="url(#p7ff5b81e1d)">
     <use x="311.142857143" xlink:href="#C0_3_f616aa102b" y="84.3428571429"/>
    </g>
    <g clip-path="url(#p7ff5b81e1d)">
     <use x="374.914285714" xlink:href="#C0_4_bdb1889c06" y="84.3428571429"/>
    </g>
    <g clip-path="url(#p7ff5b81e1d)">
     <use x="374.914285714" xlink:href="#C0_5_a86fb683ad" y="67.8857142857"/>
    </g>
    <g clip-path="url(#p7ff5b81e1d)">
     <use x="215.485714286" xlink:href="#C0_6_90958b9919" y="67.8857142857"/>
    </g>
    <g clip-path="url(#p7ff5b81e1d)">
     <use x="215.485714286" xlink:href="#C0_7_f616aa102b" y="84.3428571429"/>
    </g>
    <g clip-path="url(#p7ff5b81e1d)">
     <use x="279.257142857" xlink:href="#C0_8_cf81730f18" y="84.3428571429"/>
    </g>
    <g clip-path="url(#p7ff5b81e1d)">
     <use x="279.257142857" xlink:href="#C0_9_9fdaebfd9c" y="51.4285714286"/>
    </g>
    <g clip-path="url(#p7ff5b81e1d)">
     <use x="247.371428571" xlink:href="#C0_a_dbce651ff0" y="51.4285714286"/>
    </g>
    <g clip-path="url(#p7ff5b81e1d)">
     <use x="247.371428571" xlink:href="#C0_b_ce700e7015" y="133.714285714"/>
    </g>
    <g clip-path="url(#p7ff5b81e1d)">
     <use x="279.257142857" xlink:href="#C0_c_cf81730f18" y="133.714285714"/>
    </g>
    <g clip-path="url(#p7ff5b81e1d)">
     <use x="279.257142857" xlink:href="#C0_d_582687295f" y="100.8"/>
    </g>
    <g clip-path="url(#p7ff5b81e1d)">
     <use x="151.714285714" xlink:href="#C0_e_a4d158698f" y="100.8"/>
    </g>
    <g clip-path="url(#p7ff5b81e1d)">
     <use x="151.714285714" xlink:href="#C0_f_ce700e7015" y="133.714285714"/>
    </g>
    <g clip-path="url(#p7ff5b81e1d)">
     <use x="183.6" xlink:href="#C0_10_bdb1889c06" y="133.714285714"/>
    </g>
    <g clip-path="url(#p7ff5b81e1d)">
     <use x="183.6" xlink:href="#C0_11_c5dd68c85b" y="117.257142857"/>
    </g>
    <g clip-path="url(#p7ff5b81e1d)">
     <use x="87.9428571429" xlink:href="#C0_12_90958b9919" y="117.257142857"/>
    </g>
    <g clip-path="url(#p7ff5b81e1d)">
     <use x="87.9428571429" xlink:href="#C0_13_f616aa102b" y="133.714285714"/>
    </g>
    <g clip-path="url(#p7ff5b81e1d)">
     <use x="151.714285714" xlink:href="#C0_14_cf81730f18" y="133.714285714"/>
    </g>
    <g clip-path="url(#p7ff5b81e1d)">
     <use x="151.714285714" xlink:href="#C0_15_9fdaebfd9c" y="100.8"/>
    </g>
    <g clip-path="url(#p7ff5b81e1d)">
     <use x="119.828571429" xlink:href="#C0_16_9594bf0ed2" y="100.8"/>
    </g>
    <g clip-path="url(#p7ff5b81e1d)">
     <use x="119.828571429" xlink:href="#C0_17_24e85ccba2" y="166.628571429"/>
    </g>
    <g clip-path="url(#p7ff5b81e1d)">
     <use x="215.485714286" xlink:href="#C0_18_bdb1889c06" y="166.628571429"/>
    </g>
    <g clip-path="url(#p7ff5b81e1d)">
     <use x="215.485714286" xlink:href="#C0_19_9fdaebfd9c" y="150.171428571"/>
    </g>
    <g clip-path="url(#p7ff5b81e1d)">
     <use x="183.6" xlink:href="#C0_1a_4d9b49cab2" y="150.171428571"/>
    </g>
    <g clip-path="url(#p7ff5b81e1d)">
     <use x="183.6" xlink:href="#C0_1b_ce700e7015" y="199.542857143"/>
    </g>
    <g clip-path="url(#p7ff5b81e1d)">
     <use x="215.485714286" xlink:href="#C0_1c_bdb1889c06" y="199.542857143"/>
    </g>
    <g clip-path="url(#p7ff5b81e1d)">
     <use x="215.485714286" xlink:href="#C0_1d_90bc92312e" y="183.085714286"/>
    </g>
    <g clip-path="url(#p7ff5b81e1d)">
     <use x="151.714285714" xlink:href="#C0_1e_9594bf0ed2" y="183.085714286"/>
    </g>
    <g clip-path="url(#p7ff5b81e1d)">
     <use x="151.714285714" xlink:href="#C0_1f_f616aa102b" y="248.914285714"/>
    </g>
    <g clip-path="url(#p7ff5b81e1d)">
     <use x="215.485714286" xlink:href="#C0_20_bdb1889c06" y="248.914285714"/>
    </g>
    <g clip-path="url(#p7ff5b81e1d)">
     <use x="215.485714286" xlink:href="#C0_21_9fdaebfd9c" y="232.457142857"/>
    </g>
    <g clip-path="url(#p7ff5b81e1d)">
     <use x="183.6" xlink:href="#C0_22_4d9b49cab2" y="232.457142857"/>
    </g>
    <g clip-path="url(#p7ff5b81e1d)">
     <use x="183.6" xlink:href="#C0_23_ce700e7015" y="281.828571429"/>
    </g>
    <g clip-path="url(#p7ff5b81e1d)">
     <use x="215.485714286" xlink:href="#C0_24_bdb1889c06" y="281.828571429"/>
    </g>
    <g clip-path="url(#p7ff5b81e1d)">
     <use x="215.485714286" xlink:href="#C0_25_c5dd68c85b" y="265.371428571"/>
    </g>
    <g clip-path="url(#p7ff5b81e1d)">
     <use x="119.828571429" xlink:href="#C0_26_9594bf0ed2" y="265.371428571"/>
    </g>
    <g clip-path="url(#p7ff5b81e1d)">
     <use x="119.828571429" xlink:href="#C0_27_ce700e7015" y="331.2"/>
    </g>
    <g clip-path="url(#p7ff5b81e1d)">
     <use x="151.714285714" xlink:href="#C0_28_cf81730f18" y="331.2"/>
    </g>
    <g clip-path="url(#p7ff5b81e1d)">
     <use x="151.714285714" xlink:href="#C0_29_90bc92312e" y="298.285714286"/>
    </g>
    <g clip-path="url(#p7ff5b81e1d)">
     <use x="87.9428571429" xlink:href="#C0_2a_90958b9919" y="298.285714286"/>
    </g>
    <g clip-path="url(#p7ff5b81e1d)">
     <use x="87.9428571429" xlink:href="#C0_2b_24e85ccba2" y="314.742857143"/>
    </g>
    <g clip-path="url(#p7ff5b81e1d)">
     <use x="183.6" xlink:href="#C0_2c_bdb1889c06" y="314.742857143"/>
    </g>
    <g clip-path="url(#p7ff5b81e1d)">
     <use x="183.6" xlink:href="#C0_2d_9fdaebfd9c" y="298.285714286"/>
    </g>
    <g clip-path="url(#p7ff5b81e1d)">
     <use x="151.714285714" xlink:href="#C0_2e_a4d158698f" y="298.285714286"/>
    </g>
    <g clip-path="url(#p7ff5b81e1d)">
     <use x="151.714285714" xlink:href="#C0_2f_04f1e157ad" y="331.2"/>
    </g>
    <g clip-path="url(#p7ff5b81e1d)">
     <use x="279.257142857" xlink:href="#C0_30_cf81730f18" y="331.2"/>
    </g>
    <g clip-path="url(#p7ff5b81e1d)">
     <use x="279.257142857" xlink:href="#C0_31_9fdaebfd9c" y="298.285714286"/>
    </g>
    <g clip-path="url(#p7ff5b81e1d)">
     <use x="247.371428571" xlink:href="#C0_32_dbce651ff0" y="298.285714286"/>
    </g>
    <g clip-path="url(#p7ff5b81e1d)">
     <use x="247.371428571" xlink:href="#C0_33_ce700e7015" y="380.571428571"/>
    </g>
    <g clip-path="url(#p7ff5b81e1d)">
     <use x="279.257142857" xlink:href="#C0_34_cf81730f18" y="380.571428571"/>
    </g>
    <g clip-path="url(#p7ff5b81e1d)">
     <use x="279.257142857" xlink:href="#C0_35_90bc92312e" y="347.657142857"/>
    </g>
    <g clip-path="url(#p7ff5b81e1d)">
     <use x="215.485714286" xlink:href="#C0_36_90958b9919" y="347.657142857"/>
    </g>
    <g clip-path="url(#p7ff5b81e1d)">
     <use x="215.485714286" xlink:href="#C0_37_74ca611b0a" y="364.114285714"/>
    </g>
    <g clip-path="url(#p7ff5b81e1d)">
     <use x="374.914285714" xlink:href="#C0_38_bdb1889c06" y="364.114285714"/>
    </g>
    <g clip-path="url(#p7ff5b81e1d)">
     <use x="374.914285714" xlink:href="#C0_39_90bc92312e" y="347.657142857"/>
    </g>
    <g clip-path="url(#p7ff5b81e1d)">
     <use x="311.142857143" xlink:href="#C0_3a_a4d158698f" y="347.657142857"/>
    </g>
    <g clip-path="url(#p7ff5b81e1d)">
     <use x="311.142857143" xlink:href="#C0_3b_ce700e7015" y="380.571428571"/>
    </g>
    <g clip-path="url(#p7ff5b81e1d)">
     <use x="343.028571429" xlink:href="#C0_3c_5a7625b99a" y="380.571428571"/>
    </g>
    <g clip-path="url(#p7ff5b81e1d)">
     <use x="343.028571429" xlink:href="#C0_3d_9fdaebfd9c" y="298.285714286"/>
    </g>
    <g clip-path="url(#p7ff5b81e1d)">
     <use x="311.142857143" xlink:href="#C0_3e_a4d158698f" y="298.285714286"/>
    </g>
    <g clip-path="url(#p7ff5b81e1d)">
     <use x="311.142857143" xlink:href="#C0_3f_04f1e157ad" y="331.2"/>
    </g>
    <g clip-path="url(#p7ff5b81e1d)">
     <use x="438.685714286" xlink:href="#C0_40_cf81730f18" y="331.2"/>
    </g>
    <g clip-path="url(#p7ff5b81e1d)">
     <use x="438.685714286" xlink:href="#C0_41_9fdaebfd9c" y="298.285714286"/>
    </g>
    <g clip-path="url(#p7ff5b81e1d)">
     <use x="406.8" xlink:href="#C0_42_90958b9919" y="298.285714286"/>
    </g>
    <g clip-path="url(#p7ff5b81e1d)">
     <use x="406.8" xlink:href="#C0_43_24e85ccba2" y="314.742857143"/>
    </g>
    <g clip-path="url(#p7ff5b81e1d)">
     <use x="502.457142857" xlink:href="#C0_44_bdb1889c06" y="314.742857143"/>
    </g>
    <g clip-path="url(#p7ff5b81e1d)">
     <use x="502.457142857" xlink:href="#C0_45_90bc92312e" y="298.285714286"/>
    </g>
    <g clip-path="url(#p7ff5b81e1d)">
     <use x="438.685714286" xlink:href="#C0_46_a4d158698f" y="298.285714286"/>
    </g>
    <g clip-path="url(#p7ff5b81e1d)">
     <use x="438.685714286" xlink:href="#C0_47_ce700e7015" y="331.2"/>
    </g>
    <g clip-path="url(#p7ff5b81e1d)">
     <use x="470.571428571" xlink:href="#C0_48_8d0279fa17" y="331.2"/>
    </g>
    <g clip-path="url(#p7ff5b81e1d)">
     <use x="470.571428571" xlink:href="#C0_49_c5dd68c85b" y="265.371428571"/>
    </g>
    <g clip-path="url(#p7ff5b81e1d)">
     <use x="374.914285714" xlink:href="#C0_4a_90958b9919" y="265.371428571"/>
    </g>
    <g clip-path="url(#p7ff5b81e1d)">
     <use x="374.914285714" xlink:href="#C0_4b_ce700e7015" y="281.828571429"/>
    </g>
    <g clip-path="url(#p7ff5b81e1d)">
     <use x="406.8" xlink:href="#C0_4c_e21dbab380" y="281.828571429"/>
    </g>
    <g clip-path="url(#p7ff5b81e1d)">
     <use x="406.8" xlink:href="#C0_4d_9fdaebfd9c" y="232.457142857"/>
    </g>
    <g clip-path="url(#p7ff5b81e1d)">
     <use x="374.914285714" xlink:href="#C0_4e_90958b9919" y="232.457142857"/>
    </g>
    <g clip-path="url(#p7ff5b81e1d)">
     <use x="374.914285714" xlink:href="#C0_4f_f616aa102b" y="248.914285714"/>
    </g>
    <g clip-path="url(#p7ff5b81e1d)">
     <use x="438.685714286" xlink:href="#C0_50_8d0279fa17" y="248.914285714"/>
    </g>
    <g clip-path="url(#p7ff5b81e1d)">
     <use x="438.685714286" xlink:href="#C0_51_90bc92312e" y="183.085714286"/>
    </g>
    <g clip-path="url(#p7ff5b81e1d)">
     <use x="374.914285714" xlink:href="#C0_52_90958b9919" y="183.085714286"/>
    </g>
    <g clip-path="url(#p7ff5b81e1d)">
     <use x="374.914285714" xlink:href="#C0_53_ce700e7015" y="199.542857143"/>
    </g>
    <g clip-path="url(#p7ff5b81e1d)">
     <use x="406.8" xlink:href="#C0_54_e21dbab380" y="199.542857143"/>
    </g>
    <g clip-path="url(#p7ff5b81e1d)">
     <use x="406.8" xlink:href="#C0_55_9fdaebfd9c" y="150.171428571"/>
    </g>
    <g clip-path="url(#p7ff5b81e1d)">
     <use x="374.914285714" xlink:href="#C0_56_90958b9919" y="150.171428571"/>
    </g>
    <g clip-path="url(#p7ff5b81e1d)">
     <use x="374.914285714" xlink:href="#C0_57_24e85ccba2" y="166.628571429"/>
    </g>
    <g clip-path="url(#p7ff5b81e1d)">
     <use x="470.571428571" xlink:href="#C0_58_8d0279fa17" y="166.628571429"/>
    </g>
    <g clip-path="url(#p7ff5b81e1d)">
     <use x="470.571428571" xlink:href="#C0_59_9fdaebfd9c" y="100.8"/>
    </g>
    <g clip-path="url(#p7ff5b81e1d)">
     <use x="438.685714286" xlink:href="#C0_5a_a4d158698f" y="100.8"/>
    </g>
    <g clip-path="url(#p7ff5b81e1d)">
     <use x="438.685714286" xlink:href="#C0_5b_f616aa102b" y="133.714285714"/>
    </g>
    <g clip-path="url(#p7ff5b81e1d)">
     <use x="502.457142857" xlink:href="#C0_5c_bdb1889c06" y="133.714285714"/>
    </g>
    <g clip-path="url(#p7ff5b81e1d)">
     <use x="502.457142857" xlink:href="#C0_5d_c5dd68c85b" y="117.257142857"/>
    </g>
    <g clip-path="url(#p7ff5b81e1d)">
     <use x="406.8" xlink:href="#C0_5e_90958b9919" y="117.257142857"/>
    </g>
    <g clip-path="url(#p7ff5b81e1d)">
     <use x="406.8" xlink:href="#C0_5f_ce700e7015" y="133.714285714"/>
    </g>
    <g clip-path="url(#p7ff5b81e1d)">
     <use x="438.685714286" xlink:href="#C0_60_cf81730f18" y="133.714285714"/>
    </g>
    <g clip-path="url(#p7ff5b81e1d)">
     <use x="438.685714286" xlink:href="#C0_61_582687295f" y="100.8"/>
    </g>
    <g clip-path="url(#p7ff5b81e1d)">
     <use x="311.142857143" xlink:href="#C0_62_a4d158698f" y="100.8"/>
    </g>
    <g clip-path="url(#p7ff5b81e1d)">
     <use x="311.142857143" xlink:href="#C0_63_ce700e7015" y="133.714285714"/>
    </g>
   </g>
   <g id="matplotlib.axis_1">
    <g id="xtick_1">
     <g id="line2d_1">
      <defs>
       <path d="
M0 0
L0 -4" id="m93b0483c22" style="stroke:#000000;stroke-width:0.5;"/>
      </defs>
      <g>
       <use style="stroke:#000000;stroke-width:0.5;" x="135.771428571" xlink:href="#m93b0483c22" y="388.8"/>
      </g>
     </g>
     <g id="line2d_2">
      <defs>
       <path d="
M0 0
L0 4" id="m741efc42ff" style="stroke:#000000;stroke-width:0.5;"/>
      </defs>
      <g>
       <use style="stroke:#000000;stroke-width:0.5;" x="135.771428571" xlink:href="#m741efc42ff" y="43.2"/>
      </g>
     </g>
     <g id="text_1">
      <!-- −10 -->
      <defs>
       <path d="
M12.4062 8.29688
L28.5156 8.29688
L28.5156 63.9219
L10.9844 60.4062
L10.9844 69.3906
L28.4219 72.9062
L38.2812 72.9062
L38.2812 8.29688
L54.3906 8.29688
L54.3906 0
L12.4062 0
z
" id="DejaVuSans-31"/>
       <path d="
M31.7812 66.4062
Q24.1719 66.4062 20.3281 58.9062
Q16.5 51.4219 16.5 36.375
Q16.5 21.3906 20.3281 13.8906
Q24.1719 6.39062 31.7812 6.39062
Q39.4531 6.39062 43.2812 13.8906
Q47.125 21.3906 47.125 36.375
Q47.125 51.4219 43.2812 58.9062
Q39.4531 66.4062 31.7812 66.4062
M31.7812 74.2188
Q44.0469 74.2188 50.5156 64.5156
Q56.9844 54.8281 56.9844 36.375
Q56.9844 17.9688 50.5156 8.26562
Q44.0469 -1.42188 31.7812 -1.42188
Q19.5312 -1.42188 13.0625 8.26562
Q6.59375 17.9688 6.59375 36.375
Q6.59375 54.8281 13.0625 64.5156
Q19.5312 74.2188 31.7812 74.2188" id="DejaVuSans-30"/>
       <path d="
M10.5938 35.5
L73.1875 35.5
L73.1875 27.2031
L10.5938 27.2031
z
" id="DejaVuSans-2212"/>
      </defs>
      <g transform="translate(124.142678571 401.918125)scale(0.12 -0.12)">
       <use xlink:href="#DejaVuSans-2212"/>
       <use x="83.7890625" xlink:href="#DejaVuSans-31"/>
       <use x="147.412109375" xlink:href="#DejaVuSans-30"/>
      </g>
     </g>
    </g>
    <g id="xtick_2">
     <g id="line2d_3">
      <g>
       <use style="stroke:#000000;stroke-width:0.5;" x="215.485714286" xlink:href="#m93b0483c22" y="388.8"/>
      </g>
     </g>
     <g id="line2d_4">
      <g>
       <use style="stroke:#000000;stroke-width:0.5;" x="215.485714286" xlink:href="#m741efc42ff" y="43.2"/>
      </g>
     </g>
     <g id="text_2">
      <!-- −5 -->
      <defs>
       <path d="
M10.7969 72.9062
L49.5156 72.9062
L49.5156 64.5938
L19.8281 64.5938
L19.8281 46.7344
Q21.9688 47.4688 24.1094 47.8281
Q26.2656 48.1875 28.4219 48.1875
Q40.625 48.1875 47.75 41.5
Q54.8906 34.8125 54.8906 23.3906
Q54.8906 11.625 47.5625 5.09375
Q40.2344 -1.42188 26.9062 -1.42188
Q22.3125 -1.42188 17.5469 -0.640625
Q12.7969 0.140625 7.71875 1.70312
L7.71875 11.625
Q12.1094 9.23438 16.7969 8.0625
Q21.4844 6.89062 26.7031 6.89062
Q35.1562 6.89062 40.0781 11.3281
Q45.0156 15.7656 45.0156 23.3906
Q45.0156 31 40.0781 35.4375
Q35.1562 39.8906 26.7031 39.8906
Q22.75 39.8906 18.8125 39.0156
Q14.8906 38.1406 10.7969 36.2812
z
" id="DejaVuSans-35"/>
      </defs>
      <g transform="translate(207.800089286 401.918125)scale(0.12 -0.12)">
       <use xlink:href="#DejaVuSans-2212"/>
       <use x="83.7890625" xlink:href="#DejaVuSans-35"/>
      </g>
     </g>
    </g>
    <g id="xtick_3">
     <g id="line2d_5">
      <g>
       <use style="stroke:#000000;stroke-width:0.5;" x="295.2" xlink:href="#m93b0483c22" y="388.8"/>
      </g>
     </g>
     <g id="line2d_6">
      <g>
       <use style="stroke:#000000;stroke-width:0.5;" x="295.2" xlink:href="#m741efc42ff" y="43.2"/>
      </g>
     </g>
     <g id="text_3">
      <!-- 0 -->
      <g transform="translate(292.1765625 401.918125)scale(0.12 -0.12)">
       <use xlink:href="#DejaVuSans-30"/>
      </g>
     </g>
    </g>
    <g id="xtick_4">
     <g id="line2d_7">
      <g>
       <use style="stroke:#000000;stroke-width:0.5;" x="374.914285714" xlink:href="#m93b0483c22" y="388.8"/>
      </g>
     </g>
     <g id="line2d_8">
      <g>
       <use style="stroke:#000000;stroke-width:0.5;" x="374.914285714" xlink:href="#m741efc42ff" y="43.2"/>
      </g>
     </g>
     <g id="text_4">
      <!-- 5 -->
      <g transform="translate(372.083973214 401.918125)scale(0.12 -0.12)">
       <use xlink:href="#DejaVuSans-35"/>
      </g>
     </g>
    </g>
    <g id="xtick_5">
     <g id="line2d_9">
      <g>
       <use style="stroke:#000000;stroke-width:0.5;" x="454.628571429" xlink:href="#m93b0483c22" y="388.8"/>
      </g>
     </g>
     <g id="line2d_10">
      <g>
       <use style="stroke:#000000;stroke-width:0.5;" x="454.628571429" xlink:href="#m741efc42ff" y="43.2"/>
      </g>
     </g>
     <g id="text_5">
      <!-- 10 -->
      <g transform="translate(448.051071429 401.918125)scale(0.12 -0.12)">
       <use xlink:href="#DejaVuSans-31"/>
       <use x="63.623046875" xlink:href="#DejaVuSans-30"/>
      </g>
     </g>
    </g>
   </g>
   <g id="matplotlib.axis_2">
    <g id="ytick_1">
     <g id="line2d_11">
      <defs>
       <path d="
M0 0
L4 0" id="m728421d6d4" style="stroke:#000000;stroke-width:0.5;"/>
      </defs>
      <g>
       <use style="stroke:#000000;stroke-width:0.5;" x="72.0" xlink:href="#m728421d6d4" y="380.571428571"/>
      </g>
     </g>
     <g id="line2d_12">
      <defs>
       <path d="
M0 0
L-4 0" id="mcb0005524f" style="stroke:#000000;stroke-width:0.5;"/>
      </defs>
      <g>
       <use style="stroke:#000000;stroke-width:0.5;" x="518.4" xlink:href="#mcb0005524f" y="380.571428571"/>
      </g>
     </g>
     <g id="text_6">
      <!-- −20 -->
      <defs>
       <path d="
M19.1875 8.29688
L53.6094 8.29688
L53.6094 0
L7.32812 0
L7.32812 8.29688
Q12.9375 14.1094 22.625 23.8906
Q32.3281 33.6875 34.8125 36.5312
Q39.5469 41.8438 41.4219 45.5312
Q43.3125 49.2188 43.3125 52.7812
Q43.3125 58.5938 39.2344 62.25
Q35.1562 65.9219 28.6094 65.9219
Q23.9688 65.9219 18.8125 64.3125
Q13.6719 62.7031 7.8125 59.4219
L7.8125 69.3906
Q13.7656 71.7812 18.9375 73
Q24.125 74.2188 28.4219 74.2188
Q39.75 74.2188 46.4844 68.5469
Q53.2188 62.8906 53.2188 53.4219
Q53.2188 48.9219 51.5312 44.8906
Q49.8594 40.875 45.4062 35.4062
Q44.1875 33.9844 37.6406 27.2188
Q31.1094 20.4531 19.1875 8.29688" id="DejaVuSans-32"/>
      </defs>
      <g transform="translate(44.7425 383.882678571)scale(0.12 -0.12)">
       <use xlink:href="#DejaVuSans-2212"/>
       <use x="83.7890625" xlink:href="#DejaVuSans-32"/>
       <use x="147.412109375" xlink:href="#DejaVuSans-30"/>
      </g>
     </g>
    </g>
    <g id="ytick_2">
     <g id="line2d_13">
      <g>
       <use style="stroke:#000000;stroke-width:0.5;" x="72.0" xlink:href="#m728421d6d4" y="298.285714286"/>
      </g>
     </g>
     <g id="line2d_14">
      <g>
       <use style="stroke:#000000;stroke-width:0.5;" x="518.4" xlink:href="#mcb0005524f" y="298.285714286"/>
      </g>
     </g>
     <g id="text_7">
      <!-- −10 -->
      <g transform="translate(44.7425 301.596964286)scale(0.12 -0.12)">
       <use xlink:href="#DejaVuSans-2212"/>
       <use x="83.7890625" xlink:href="#DejaVuSans-31"/>
       <use x="147.412109375" xlink:href="#DejaVuSans-30"/>
      </g>
     </g>
    </g>
    <g id="ytick_3">
     <g id="line2d_15">
      <g>
       <use style="stroke:#000000;stroke-width:0.5;" x="72.0" xlink:href="#m728421d6d4" y="216.0"/>
      </g>
     </g>
     <g id="line2d_16">
      <g>
       <use style="stroke:#000000;stroke-width:0.5;" x="518.4" xlink:href="#mcb0005524f" y="216.0"/>
      </g>
     </g>
     <g id="text_8">
      <!-- 0 -->
      <g transform="translate(61.953125 219.31125)scale(0.12 -0.12)">
       <use xlink:href="#DejaVuSans-30"/>
      </g>
     </g>
    </g>
    <g id="ytick_4">
     <g id="line2d_17">
      <g>
       <use style="stroke:#000000;stroke-width:0.5;" x="72.0" xlink:href="#m728421d6d4" y="133.714285714"/>
      </g>
     </g>
     <g id="line2d_18">
      <g>
       <use style="stroke:#000000;stroke-width:0.5;" x="518.4" xlink:href="#mcb0005524f" y="133.714285714"/>
      </g>
     </g>
     <g id="text_9">
      <!-- 10 -->
      <g transform="translate(54.845 137.025535714)scale(0.12 -0.12)">
       <use xlink:href="#DejaVuSans-31"/>
       <use x="63.623046875" xlink:href="#DejaVuSans-30"/>
      </g>
     </g>
    </g>
    <g id="ytick_5">
     <g id="line2d_19">
      <g>
       <use style="stroke:#000000;stroke-width:0.5;" x="72.0" xlink:href="#m728421d6d4" y="51.4285714286"/>
      </g>
     </g>
     <g id="line2d_20">
      <g>
       <use style="stroke:#000000;stroke-width:0.5;" x="518.4" xlink:href="#mcb0005524f" y="51.4285714286"/>
      </g>
     </g>
     <g id="text_10">
      <!-- 20 -->
      <g transform="translate(54.40625 54.7398214286)scale(0.12 -0.12)">
       <use xlink:href="#DejaVuSans-32"/>
       <use x="63.623046875" xlink:href="#DejaVuSans-30"/>
      </g>
     </g>
    </g>
   </g>
   <g id="patch_3">
    <path d="
M72 43.2
L518.4 43.2" style="fill:none;stroke:#000000;"/>
   </g>
   <g id="patch_4">
    <path d="
M518.4 388.8
L518.4 43.2" style="fill:none;stroke:#000000;"/>
   </g>
   <g id="patch_5">
    <path d="
M72 388.8
L518.4 388.8" style="fill:none;stroke:#000000;"/>
   </g>
   <g id="patch_6">
    <path d="
M72 388.8
L72 43.2" style="fill:none;stroke:#000000;"/>
   </g>
  </g>
 </g>
 <defs>
  <clipPath id="p7ff5b81e1d">
   <rect height="345.6" width="446.4" x="72.0" y="43.2"/>
  </clipPath>
 </defs>
</svg>
