<?xml version="1.0" encoding="utf-8" standalone="no"?>
<!DOCTYPE svg PUBLIC "-//W3C//DTD SVG 1.1//EN"
  "http://www.w3.org/Graphics/SVG/1.1/DTD/svg11.dtd">
<!-- Created with matplotlib (http://matplotlib.org/) -->
<svg height="432pt" version="1.1" viewBox="0 0 576 432" width="576pt" xmlns="http://www.w3.org/2000/svg" xmlns:xlink="http://www.w3.org/1999/xlink">
 <defs>
  <style type="text/css">
*{stroke-linecap:butt;stroke-linejoin:round;}
  </style>
 </defs>
 <g id="figure_1">
  <g id="patch_1">
   <path d="
M0 432
L576 432
L576 0
L0 0
z
" style="fill:#ffffff;"/>
  </g>
  <g id="axes_1">
   <g id="patch_2">
    <path d="
M72 388.8
L518.4 388.8
L518.4 43.2
L72 43.2
z
" style="fill:#ffffff;"/>
   </g>
   <g id="Quiver_1">
    <defs>
     <path d="
M-0.8928 -5.46682e-17
L-0.8928 -30.3648
L-1.7856 -33.0432
L2.35132e-15 -38.4
L1.7856 -33.0432
L0.8928 -30.3648
L0.8928 5.46682e-17
L-0.8928 -5.46682e-17" id="C0_0_87fc198369"/>
     <path d="
M-1.09336e-16 0.8928
L-41.5648 0.8928
L-44.2432 1.7856
L-49.6 -6.07425e-15
L-44.2432 -1.7856
L-41.5648 -0.8928
L1.09336e-16 -0.8928
L-1.09336e-16 0.8928" id="C0_1_d353a7d079"/>
     <path d="
M0.8928 -5.46682e-17
L0.8928 30.3648
L1.7856 33.0432
L2.35132e-15 38.4
L-1.7856 33.0432
L-0.8928 30.3648
L-0.8928 5.46682e-17
L0.8928 -5.46682e-17" id="C0_2_7204a05e65"/>
     <path d="
M0 -0.8928
L8.49813 -0.8928
L11.1765 -1.7856
L16.5333 0
L11.1765 1.7856
L8.49813 0.8928
L0 0.8928
L0 -0.8928" id="C0_3_be9f5c9d67"/>
     <path d="
M-0.8928 -5.46682e-17
L-0.8928 -11.1648
L-1.7856 -13.8432
L1.17566e-15 -19.2
L1.7856 -13.8432
L0.8928 -11.1648
L0.8928 5.46682e-17
L-0.8928 -5.46682e-17" id="C0_4_19681e42d9"/>
     <path d="
M-1.09336e-16 0.8928
L-74.6315 0.8928
L-77.3099 1.7856
L-82.6667 -1.01237e-14
L-77.3099 -1.7856
L-74.6315 -0.8928
L1.09336e-16 -0.8928
L-1.09336e-16 0.8928" id="C0_5_f5327b7319"/>
     <path d="
M0.8928 -5.46682e-17
L0.8928 11.1648
L1.7856 13.8432
L1.17566e-15 19.2
L-1.7856 13.8432
L-0.8928 11.1648
L-0.8928 5.46682e-17
L0.8928 -5.46682e-17" id="C0_6_020e3dfb49"/>
     <path d="
M0 -0.8928
L58.0981 -0.8928
L60.7765 -1.7856
L66.1333 0
L60.7765 1.7856
L58.0981 0.8928
L0 0.8928
L0 -0.8928" id="C0_7_dce6e194d9"/>
     <path d="
M-0.8928 -5.46682e-17
L-0.8928 -30.3648
L-1.7856 -33.0432
L2.35132e-15 -38.4
L1.7856 -33.0432
L0.8928 -30.3648
L0.8928 5.46682e-17
L-0.8928 -5.46682e-17" id="C0_8_87fc198369"/>
     <path d="
M-1.09336e-16 0.8928
L-25.0315 0.8928
L-27.7099 1.7856
L-33.0667 -4.0495e-15
L-27.7099 -1.7856
L-25.0315 -0.8928
L1.09336e-16 -0.8928
L-1.09336e-16 0.8928" id="C0_9_030ca19c09"/>
     <path d="
M0.8928 -5.46682e-17
L0.8928 1.5648
L1.7856 4.2432
L5.8783e-16 9.6
L-1.7856 4.2432
L-0.8928 1.5648
L-0.8928 5.46682e-17
L0.8928 -5.46682e-17" id="C0_a_d9677e379e"/>
     <path d="
M0 -0.8928
L8.49813 -0.8928
L11.1765 -1.7856
L16.5333 0
L11.1765 1.7856
L8.49813 0.8928
L0 0.8928
L0 -0.8928" id="C0_b_be9f5c9d67"/>
     <path d="
M-0.8928 -5.46682e-17
L-0.8928 -20.7648
L-1.7856 -23.4432
L1.76349e-15 -28.8
L1.7856 -23.4432
L0.8928 -20.7648
L0.8928 5.46682e-17
L-0.8928 -5.46682e-17" id="C0_c_eb0605d780"/>
     <path d="
M-1.09336e-16 0.8928
L-25.0315 0.8928
L-27.7099 1.7856
L-33.0667 -4.0495e-15
L-27.7099 -1.7856
L-25.0315 -0.8928
L1.09336e-16 -0.8928
L-1.09336e-16 0.8928" id="C0_d_030ca19c09"/>
     <path d="
M0.8928 -5.46682e-17
L0.8928 20.7648
L1.7856 23.4432
L1.76349e-15 28.8
L-1.7856 23.4432
L-0.8928 20.7648
L-0.8928 5.46682e-17
L0.8928 -5.46682e-17" id="C0_e_c2ab4db44d"/>
     <path d="
M0 -0.8928
L8.49813 -0.8928
L11.1765 -1.7856
L16.5333 0
L11.1765 1.7856
L8.49813 0.8928
L0 0.8928
L0 -0.8928" id="C0_f_be9f5c9d67"/>
     <path d="
M-0.8928 -5.46682e-17
L-0.8928 -1.5648
L-1.7856 -4.2432
L5.8783e-16 -9.6
L1.7856 -4.2432
L0.8928 -1.5648
L0.8928 5.46682e-17
L-0.8928 -5.46682e-17" id="C0_10_bc051a4f24"/>
     <path d="
M-1.09336e-16 0.8928
L-25.0315 0.8928
L-27.7099 1.7856
L-33.0667 -4.0495e-15
L-27.7099 -1.7856
L-25.0315 -0.8928
L1.09336e-16 -0.8928
L-1.09336e-16 0.8928" id="C0_11_030ca19c09"/>
     <path d="
M0.8928 -5.46682e-17
L0.8928 11.1648
L1.7856 13.8432
L1.17566e-15 19.2
L-1.7856 13.8432
L-0.8928 11.1648
L-0.8928 5.46682e-17
L0.8928 -5.46682e-17" id="C0_12_020e3dfb49"/>
     <path d="
M0 -0.8928
L74.6315 -0.8928
L77.3099 -1.7856
L82.6667 0
L77.3099 1.7856
L74.6315 0.8928
L0 0.8928
L0 -0.8928" id="C0_13_79eff79d7e"/>
     <path d="
M-0.8928 -5.46682e-17
L-0.8928 -20.7648
L-1.7856 -23.4432
L1.76349e-15 -28.8
L1.7856 -23.4432
L0.8928 -20.7648
L0.8928 5.46682e-17
L-0.8928 -5.46682e-17" id="C0_14_eb0605d780"/>
     <path d="
M-1.09336e-16 0.8928
L-41.5648 0.8928
L-44.2432 1.7856
L-49.6 -6.07425e-15
L-44.2432 -1.7856
L-41.5648 -0.8928
L1.09336e-16 -0.8928
L-1.09336e-16 0.8928" id="C0_15_d353a7d079"/>
     <path d="
M0.8928 -5.46682e-17
L0.8928 1.5648
L1.7856 4.2432
L5.8783e-16 9.6
L-1.7856 4.2432
L-0.8928 1.5648
L-0.8928 5.46682e-17
L0.8928 -5.46682e-17" id="C0_16_d9677e379e"/>
     <path d="
M0 -0.8928
L25.0315 -0.8928
L27.7099 -1.7856
L33.0667 0
L27.7099 1.7856
L25.0315 0.8928
L0 0.8928
L0 -0.8928" id="C0_17_7482c1f3bb"/>
     <path d="
M-0.8928 -5.46682e-17
L-0.8928 -20.7648
L-1.7856 -23.4432
L1.76349e-15 -28.8
L1.7856 -23.4432
L0.8928 -20.7648
L0.8928 5.46682e-17
L-0.8928 -5.46682e-17" id="C0_18_eb0605d780"/>
     <path d="
M-1.09336e-16 0.8928
L-41.5648 0.8928
L-44.2432 1.7856
L-49.6 -6.07425e-15
L-44.2432 -1.7856
L-41.5648 -0.8928
L1.09336e-16 -0.8928
L-1.09336e-16 0.8928" id="C0_19_d353a7d079"/>
     <path d="
M0.8928 -5.46682e-17
L0.8928 1.5648
L1.7856 4.2432
L5.8783e-16 9.6
L-1.7856 4.2432
L-0.8928 1.5648
L-0.8928 5.46682e-17
L0.8928 -5.46682e-17" id="C0_1a_d9677e379e"/>
     <path d="
M0 -0.8928
L25.0315 -0.8928
L27.7099 -1.7856
L33.0667 0
L27.7099 1.7856
L25.0315 0.8928
L0 0.8928
L0 -0.8928" id="C0_1b_7482c1f3bb"/>
     <path d="
M-0.8928 -5.46682e-17
L-0.8928 -39.9648
L-1.7856 -42.6432
L2.93915e-15 -48
L1.7856 -42.6432
L0.8928 -39.9648
L0.8928 5.46682e-17
L-0.8928 -5.46682e-17" id="C0_1c_a7c3e8faea"/>
     <path d="
M-1.09336e-16 0.8928
L-91.1648 0.8928
L-93.8432 1.7856
L-99.2 -1.21485e-14
L-93.8432 -1.7856
L-91.1648 -0.8928
L1.09336e-16 -0.8928
L-1.09336e-16 0.8928" id="C0_1d_f4c0c098f1"/>
     <path d="
M0.8928 -5.46682e-17
L0.8928 1.5648
L1.7856 4.2432
L5.8783e-16 9.6
L-1.7856 4.2432
L-0.8928 1.5648
L-0.8928 5.46682e-17
L0.8928 -5.46682e-17" id="C0_1e_d9677e379e"/>
     <path d="
M0 -0.8928
L25.0315 -0.8928
L27.7099 -1.7856
L33.0667 0
L27.7099 1.7856
L25.0315 0.8928
L0 0.8928
L0 -0.8928" id="C0_1f_7482c1f3bb"/>
     <path d="
M-0.8928 -5.46682e-17
L-0.8928 -11.1648
L-1.7856 -13.8432
L1.17566e-15 -19.2
L1.7856 -13.8432
L0.8928 -11.1648
L0.8928 5.46682e-17
L-0.8928 -5.46682e-17" id="C0_20_19681e42d9"/>
     <path d="
M-1.09336e-16 0.8928
L-8.49813 0.8928
L-11.1765 1.7856
L-16.5333 -2.02475e-15
L-11.1765 -1.7856
L-8.49813 -0.8928
L1.09336e-16 -0.8928
L-1.09336e-16 0.8928" id="C0_21_0a00dab107"/>
     <path d="
M0.8928 -5.46682e-17
L0.8928 49.5648
L1.7856 52.2432
L3.52698e-15 57.6
L-1.7856 52.2432
L-0.8928 49.5648
L-0.8928 5.46682e-17
L0.8928 -5.46682e-17" id="C0_22_f53191241d"/>
     <path d="
M0 -0.8928
L41.5648 -0.8928
L44.2432 -1.7856
L49.6 0
L44.2432 1.7856
L41.5648 0.8928
L0 0.8928
L0 -0.8928" id="C0_23_1f65689608"/>
     <path d="
M-0.8928 -5.46682e-17
L-0.8928 -1.5648
L-1.7856 -4.2432
L5.8783e-16 -9.6
L1.7856 -4.2432
L0.8928 -1.5648
L0.8928 5.46682e-17
L-0.8928 -5.46682e-17" id="C0_24_bc051a4f24"/>
     <path d="
M-1.09336e-16 0.8928
L-8.49813 0.8928
L-11.1765 1.7856
L-16.5333 -2.02475e-15
L-11.1765 -1.7856
L-8.49813 -0.8928
L1.09336e-16 -0.8928
L-1.09336e-16 0.8928" id="C0_25_0a00dab107"/>
     <path d="
M0.8928 -5.46682e-17
L0.8928 20.7648
L1.7856 23.4432
L1.76349e-15 28.8
L-1.7856 23.4432
L-0.8928 20.7648
L-0.8928 5.46682e-17
L0.8928 -5.46682e-17" id="C0_26_c2ab4db44d"/>
     <path d="
M0 -0.8928
L25.0315 -0.8928
L27.7099 -1.7856
L33.0667 0
L27.7099 1.7856
L25.0315 0.8928
L0 0.8928
L0 -0.8928" id="C0_27_7482c1f3bb"/>
     <path d="
M-0.8928 -5.46682e-17
L-0.8928 -1.5648
L-1.7856 -4.2432
L5.8783e-16 -9.6
L1.7856 -4.2432
L0.8928 -1.5648
L0.8928 5.46682e-17
L-0.8928 -5.46682e-17" id="C0_28_bc051a4f24"/>
     <path d="
M-1.09336e-16 0.8928
L-124.231 0.8928
L-126.91 1.7856
L-132.267 -1.6198e-14
L-126.91 -1.7856
L-124.231 -0.8928
L1.09336e-16 -0.8928
L-1.09336e-16 0.8928" id="C0_29_6adeb51c53"/>
     <path d="
M0.8928 -5.46682e-17
L0.8928 39.9648
L1.7856 42.6432
L2.93915e-15 48
L-1.7856 42.6432
L-0.8928 39.9648
L-0.8928 5.46682e-17
L0.8928 -5.46682e-17" id="C0_2a_65327df009"/>
     <path d="
M0 -0.8928
L41.5648 -0.8928
L44.2432 -1.7856
L49.6 0
L44.2432 1.7856
L41.5648 0.8928
L0 0.8928
L0 -0.8928" id="C0_2b_1f65689608"/>
     <path d="
M-0.8928 -5.46682e-17
L-0.8928 -1.5648
L-1.7856 -4.2432
L5.8783e-16 -9.6
L1.7856 -4.2432
L0.8928 -1.5648
L0.8928 5.46682e-17
L-0.8928 -5.46682e-17" id="C0_2c_bc051a4f24"/>
     <path d="
M-1.09336e-16 0.8928
L-8.49813 0.8928
L-11.1765 1.7856
L-16.5333 -2.02475e-15
L-11.1765 -1.7856
L-8.49813 -0.8928
L1.09336e-16 -0.8928
L-1.09336e-16 0.8928" id="C0_2d_0a00dab107"/>
     <path d="
M0.8928 -5.46682e-17
L0.8928 30.3648
L1.7856 33.0432
L2.35132e-15 38.4
L-1.7856 33.0432
L-0.8928 30.3648
L-0.8928 5.46682e-17
L0.8928 -5.46682e-17" id="C0_2e_7204a05e65"/>
     <path d="
M0 -0.8928
L25.0315 -0.8928
L27.7099 -1.7856
L33.0667 0
L27.7099 1.7856
L25.0315 0.8928
L0 0.8928
L0 -0.8928" id="C0_2f_7482c1f3bb"/>
     <path d="
M-0.8928 -5.46682e-17
L-0.8928 -1.5648
L-1.7856 -4.2432
L5.8783e-16 -9.6
L1.7856 -4.2432
L0.8928 -1.5648
L0.8928 5.46682e-17
L-0.8928 -5.46682e-17" id="C0_30_bc051a4f24"/>
     <path d="
M-1.09336e-16 0.8928
L-8.49813 0.8928
L-11.1765 1.7856
L-16.5333 -2.02475e-15
L-11.1765 -1.7856
L-8.49813 -0.8928
L1.09336e-16 -0.8928
L-1.09336e-16 0.8928" id="C0_31_0a00dab107"/>
     <path d="
M0.8928 -5.46682e-17
L0.8928 11.1648
L1.7856 13.8432
L1.17566e-15 19.2
L-1.7856 13.8432
L-0.8928 11.1648
L-0.8928 5.46682e-17
L0.8928 -5.46682e-17" id="C0_32_020e3dfb49"/>
     <path d="
M0 -0.8928
L74.6315 -0.8928
L77.3099 -1.7856
L82.6667 0
L77.3099 1.7856
L74.6315 0.8928
L0 0.8928
L0 -0.8928" id="C0_33_79eff79d7e"/>
     <path d="
M-0.8928 -5.46682e-17
L-0.8928 -11.1648
L-1.7856 -13.8432
L1.17566e-15 -19.2
L1.7856 -13.8432
L0.8928 -11.1648
L0.8928 5.46682e-17
L-0.8928 -5.46682e-17" id="C0_34_19681e42d9"/>
     <path d="
M-1.09336e-16 0.8928
L-8.49813 0.8928
L-11.1765 1.7856
L-16.5333 -2.02475e-15
L-11.1765 -1.7856
L-8.49813 -0.8928
L1.09336e-16 -0.8928
L-1.09336e-16 0.8928" id="C0_35_0a00dab107"/>
     <path d="
M0.8928 -5.46682e-17
L0.8928 59.1648
L1.7856 61.8432
L4.11481e-15 67.2
L-1.7856 61.8432
L-0.8928 59.1648
L-0.8928 5.46682e-17
L0.8928 -5.46682e-17" id="C0_36_0844488a67"/>
     <path d="
M0 -0.8928
L8.49813 -0.8928
L11.1765 -1.7856
L16.5333 0
L11.1765 1.7856
L8.49813 0.8928
L0 0.8928
L0 -0.8928" id="C0_37_be9f5c9d67"/>
     <path d="
M-0.8928 -5.46682e-17
L-0.8928 -11.1648
L-1.7856 -13.8432
L1.17566e-15 -19.2
L1.7856 -13.8432
L0.8928 -11.1648
L0.8928 5.46682e-17
L-0.8928 -5.46682e-17" id="C0_38_19681e42d9"/>
     <path d="
M-1.09336e-16 0.8928
L-74.6315 0.8928
L-77.3099 1.7856
L-82.6667 -1.01237e-14
L-77.3099 -1.7856
L-74.6315 -0.8928
L1.09336e-16 -0.8928
L-1.09336e-16 0.8928" id="C0_39_f5327b7319"/>
     <path d="
M0.8928 -5.46682e-17
L0.8928 11.1648
L1.7856 13.8432
L1.17566e-15 19.2
L-1.7856 13.8432
L-0.8928 11.1648
L-0.8928 5.46682e-17
L0.8928 -5.46682e-17" id="C0_3a_020e3dfb49"/>
     <path d="
M0 -0.8928
L8.49813 -0.8928
L11.1765 -1.7856
L16.5333 0
L11.1765 1.7856
L8.49813 0.8928
L0 0.8928
L0 -0.8928" id="C0_3b_be9f5c9d67"/>
     <path d="
M-0.8928 -5.46682e-17
L-0.8928 -1.5648
L-1.7856 -4.2432
L5.8783e-16 -9.6
L1.7856 -4.2432
L0.8928 -1.5648
L0.8928 5.46682e-17
L-0.8928 -5.46682e-17" id="C0_3c_bc051a4f24"/>
     <path d="
M-1.09336e-16 0.8928
L-25.0315 0.8928
L-27.7099 1.7856
L-33.0667 -4.0495e-15
L-27.7099 -1.7856
L-25.0315 -0.8928
L1.09336e-16 -0.8928
L-1.09336e-16 0.8928" id="C0_3d_030ca19c09"/>
     <path d="
M0.8928 -5.46682e-17
L0.8928 30.3648
L1.7856 33.0432
L2.35132e-15 38.4
L-1.7856 33.0432
L-0.8928 30.3648
L-0.8928 5.46682e-17
L0.8928 -5.46682e-17" id="C0_3e_7204a05e65"/>
     <path d="
M0 -0.8928
L8.49813 -0.8928
L11.1765 -1.7856
L16.5333 0
L11.1765 1.7856
L8.49813 0.8928
L0 0.8928
L0 -0.8928" id="C0_3f_be9f5c9d67"/>
     <path d="
M-0.8928 -5.46682e-17
L-0.8928 -1.5648
L-1.7856 -4.2432
L5.8783e-16 -9.6
L1.7856 -4.2432
L0.8928 -1.5648
L0.8928 5.46682e-17
L-0.8928 -5.46682e-17" id="C0_40_bc051a4f24"/>
     <path d="
M-1.09336e-16 0.8928
L-41.5648 0.8928
L-44.2432 1.7856
L-49.6 -6.07425e-15
L-44.2432 -1.7856
L-41.5648 -0.8928
L1.09336e-16 -0.8928
L-1.09336e-16 0.8928" id="C0_41_d353a7d079"/>
     <path d="
M0.8928 -5.46682e-17
L0.8928 39.9648
L1.7856 42.6432
L2.93915e-15 48
L-1.7856 42.6432
L-0.8928 39.9648
L-0.8928 5.46682e-17
L0.8928 -5.46682e-17" id="C0_42_65327df009"/>
     <path d="
M0 -0.8928
L124.231 -0.8928
L126.91 -1.7856
L132.267 0
L126.91 1.7856
L124.231 0.8928
L0 0.8928
L0 -0.8928" id="C0_43_e6b53e82fa"/>
     <path d="
M-0.8928 -5.46682e-17
L-0.8928 -1.5648
L-1.7856 -4.2432
L5.8783e-16 -9.6
L1.7856 -4.2432
L0.8928 -1.5648
L0.8928 5.46682e-17
L-0.8928 -5.46682e-17" id="C0_44_bc051a4f24"/>
     <path d="
M-1.09336e-16 0.8928
L-25.0315 0.8928
L-27.7099 1.7856
L-33.0667 -4.0495e-15
L-27.7099 -1.7856
L-25.0315 -0.8928
L1.09336e-16 -0.8928
L-1.09336e-16 0.8928" id="C0_45_030ca19c09"/>
     <path d="
M0.8928 -5.46682e-17
L0.8928 20.7648
L1.7856 23.4432
L1.76349e-15 28.8
L-1.7856 23.4432
L-0.8928 20.7648
L-0.8928 5.46682e-17
L0.8928 -5.46682e-17" id="C0_46_c2ab4db44d"/>
     <path d="
M0 -0.8928
L8.49813 -0.8928
L11.1765 -1.7856
L16.5333 0
L11.1765 1.7856
L8.49813 0.8928
L0 0.8928
L0 -0.8928" id="C0_47_be9f5c9d67"/>
     <path d="
M-0.8928 -5.46682e-17
L-0.8928 -1.5648
L-1.7856 -4.2432
L5.8783e-16 -9.6
L1.7856 -4.2432
L0.8928 -1.5648
L0.8928 5.46682e-17
L-0.8928 -5.46682e-17" id="C0_48_bc051a4f24"/>
     <path d="
M-1.09336e-16 0.8928
L-41.5648 0.8928
L-44.2432 1.7856
L-49.6 -6.07425e-15
L-44.2432 -1.7856
L-41.5648 -0.8928
L1.09336e-16 -0.8928
L-1.09336e-16 0.8928" id="C0_49_d353a7d079"/>
     <path d="
M0.8928 -5.46682e-17
L0.8928 49.5648
L1.7856 52.2432
L3.52698e-15 57.6
L-1.7856 52.2432
L-0.8928 49.5648
L-0.8928 5.46682e-17
L0.8928 -5.46682e-17" id="C0_4a_f53191241d"/>
     <path d="
M0 -0.8928
L8.49813 -0.8928
L11.1765 -1.7856
L16.5333 0
L11.1765 1.7856
L8.49813 0.8928
L0 0.8928
L0 -0.8928" id="C0_4b_be9f5c9d67"/>
     <path d="
M-0.8928 -5.46682e-17
L-0.8928 -11.1648
L-1.7856 -13.8432
L1.17566e-15 -19.2
L1.7856 -13.8432
L0.8928 -11.1648
L0.8928 5.46682e-17
L-0.8928 -5.46682e-17" id="C0_4c_19681e42d9"/>
     <path d="
M-1.09336e-16 0.8928
L-25.0315 0.8928
L-27.7099 1.7856
L-33.0667 -4.0495e-15
L-27.7099 -1.7856
L-25.0315 -0.8928
L1.09336e-16 -0.8928
L-1.09336e-16 0.8928" id="C0_4d_030ca19c09"/>
     <path d="
M0.8928 -5.46682e-17
L0.8928 1.5648
L1.7856 4.2432
L5.8783e-16 9.6
L-1.7856 4.2432
L-0.8928 1.5648
L-0.8928 5.46682e-17
L0.8928 -5.46682e-17" id="C0_4e_d9677e379e"/>
     <path d="
M0 -0.8928
L91.1648 -0.8928
L93.8432 -1.7856
L99.2 0
L93.8432 1.7856
L91.1648 0.8928
L0 0.8928
L0 -0.8928" id="C0_4f_47c8698e4f"/>
     <path d="
M-0.8928 -5.46682e-17
L-0.8928 -39.9648
L-1.7856 -42.6432
L2.93915e-15 -48
L1.7856 -42.6432
L0.8928 -39.9648
L0.8928 5.46682e-17
L-0.8928 -5.46682e-17" id="C0_50_a7c3e8faea"/>
     <path d="
M-1.09336e-16 0.8928
L-25.0315 0.8928
L-27.7099 1.7856
L-33.0667 -4.0495e-15
L-27.7099 -1.7856
L-25.0315 -0.8928
L1.09336e-16 -0.8928
L-1.09336e-16 0.8928" id="C0_51_030ca19c09"/>
     <path d="
M0.8928 -5.46682e-17
L0.8928 1.5648
L1.7856 4.2432
L5.8783e-16 9.6
L-1.7856 4.2432
L-0.8928 1.5648
L-0.8928 5.46682e-17
L0.8928 -5.46682e-17" id="C0_52_d9677e379e"/>
     <path d="
M0 -0.8928
L41.5648 -0.8928
L44.2432 -1.7856
L49.6 0
L44.2432 1.7856
L41.5648 0.8928
L0 0.8928
L0 -0.8928" id="C0_53_1f65689608"/>
     <path d="
M-0.8928 -5.46682e-17
L-0.8928 -20.7648
L-1.7856 -23.4432
L1.76349e-15 -28.8
L1.7856 -23.4432
L0.8928 -20.7648
L0.8928 5.46682e-17
L-0.8928 -5.46682e-17" id="C0_54_eb0605d780"/>
     <path d="
M-1.09336e-16 0.8928
L-25.0315 0.8928
L-27.7099 1.7856
L-33.0667 -4.0495e-15
L-27.7099 -1.7856
L-25.0315 -0.8928
L1.09336e-16 -0.8928
L-1.09336e-16 0.8928" id="C0_55_030ca19c09"/>
     <path d="
M0.8928 -5.46682e-17
L0.8928 1.5648
L1.7856 4.2432
L5.8783e-16 9.6
L-1.7856 4.2432
L-0.8928 1.5648
L-0.8928 5.46682e-17
L0.8928 -5.46682e-17" id="C0_56_d9677e379e"/>
     <path d="
M0 -0.8928
L41.5648 -0.8928
L44.2432 -1.7856
L49.6 0
L44.2432 1.7856
L41.5648 0.8928
L0 0.8928
L0 -0.8928" id="C0_57_1f65689608"/>
     <path d="
M-0.8928 -5.46682e-17
L-0.8928 -20.7648
L-1.7856 -23.4432
L1.76349e-15 -28.8
L1.7856 -23.4432
L0.8928 -20.7648
L0.8928 5.46682e-17
L-0.8928 -5.46682e-17" id="C0_58_eb0605d780"/>
     <path d="
M-1.09336e-16 0.8928
L-74.6315 0.8928
L-77.3099 1.7856
L-82.6667 -1.01237e-14
L-77.3099 -1.7856
L-74.6315 -0.8928
L1.09336e-16 -0.8928
L-1.09336e-16 0.8928" id="C0_59_f5327b7319"/>
     <path d="
M0.8928 -5.46682e-17
L0.8928 11.1648
L1.7856 13.8432
L1.17566e-15 19.2
L-1.7856 13.8432
L-0.8928 11.1648
L-0.8928 5.46682e-17
L0.8928 -5.46682e-17" id="C0_5a_020e3dfb49"/>
     <path d="
M0 -0.8928
L25.0315 -0.8928
L27.7099 -1.7856
L33.0667 0
L27.7099 1.7856
L25.0315 0.8928
L0 0.8928
L0 -0.8928" id="C0_5b_7482c1f3bb"/>
     <path d="
M-0.8928 -5.46682e-17
L-0.8928 -1.5648
L-1.7856 -4.2432
L5.8783e-16 -9.6
L1.7856 -4.2432
L0.8928 -1.5648
L0.8928 5.46682e-17
L-0.8928 -5.46682e-17" id="C0_5c_bc051a4f24"/>
     <path d="
M-1.09336e-16 0.8928
L-8.49813 0.8928
L-11.1765 1.7856
L-16.5333 -2.02475e-15
L-11.1765 -1.7856
L-8.49813 -0.8928
L1.09336e-16 -0.8928
L-1.09336e-16 0.8928" id="C0_5d_0a00dab107"/>
     <path d="
M0.8928 -5.46682e-17
L0.8928 20.7648
L1.7856 23.4432
L1.76349e-15 28.8
L-1.7856 23.4432
L-0.8928 20.7648
L-0.8928 5.46682e-17
L0.8928 -5.46682e-17" id="C0_5e_c2ab4db44d"/>
     <path d="
M0 -0.8928
L25.0315 -0.8928
L27.7099 -1.7856
L33.0667 0
L27.7099 1.7856
L25.0315 0.8928
L0 0.8928
L0 -0.8928" id="C0_5f_7482c1f3bb"/>
     <path d="
M-0.8928 -5.46682e-17
L-0.8928 -20.7648
L-1.7856 -23.4432
L1.76349e-15 -28.8
L1.7856 -23.4432
L0.8928 -20.7648
L0.8928 5.46682e-17
L-0.8928 -5.46682e-17" id="C0_60_eb0605d780"/>
     <path d="
M-1.09336e-16 0.8928
L-8.49813 0.8928
L-11.1765 1.7856
L-16.5333 -2.02475e-15
L-11.1765 -1.7856
L-8.49813 -0.8928
L1.09336e-16 -0.8928
L-1.09336e-16 0.8928" id="C0_61_0a00dab107"/>
     <path d="
M0.8928 -5.46682e-17
L0.8928 1.5648
L1.7856 4.2432
L5.8783e-16 9.6
L-1.7856 4.2432
L-0.8928 1.5648
L-0.8928 5.46682e-17
L0.8928 -5.46682e-17" id="C0_62_d9677e379e"/>
     <path d="
M0 -0.8928
L25.0315 -0.8928
L27.7099 -1.7856
L33.0667 0
L27.7099 1.7856
L25.0315 0.8928
L0 0.8928
L0 -0.8928" id="C0_63_7482c1f3bb"/>
     <path d="
M-0.8928 -5.46682e-17
L-0.8928 -30.3648
L-1.7856 -33.0432
L2.35132e-15 -38.4
L1.7856 -33.0432
L0.8928 -30.3648
L0.8928 5.46682e-17
L-0.8928 -5.46682e-17" id="C0_64_87fc198369"/>
     <path d="
M-1.09336e-16 0.8928
L-58.0981 0.8928
L-60.7765 1.7856
L-66.1333 -8.099e-15
L-60.7765 -1.7856
L-58.0981 -0.8928
L1.09336e-16 -0.8928
L-1.09336e-16 0.8928" id="C0_65_ca9f18a244"/>
     <path d="
M0.8928 -5.46682e-17
L0.8928 11.1648
L1.7856 13.8432
L1.17566e-15 19.2
L-1.7856 13.8432
L-0.8928 11.1648
L-0.8928 5.46682e-17
L0.8928 -5.46682e-17" id="C0_66_020e3dfb49"/>
     <path d="
M0 -0.8928
L74.6315 -0.8928
L77.3099 -1.7856
L82.6667 0
L77.3099 1.7856
L74.6315 0.8928
L0 0.8928
L0 -0.8928" id="C0_67_79eff79d7e"/>
     <path d="
M-0.8928 -5.46682e-17
L-0.8928 -11.1648
L-1.7856 -13.8432
L1.17566e-15 -19.2
L1.7856 -13.8432
L0.8928 -11.1648
L0.8928 5.46682e-17
L-0.8928 -5.46682e-17" id="C0_68_19681e42d9"/>
     <path d="
M-1.09336e-16 0.8928
L-8.49813 0.8928
L-11.1765 1.7856
L-16.5333 -2.02475e-15
L-11.1765 -1.7856
L-8.49813 -0.8928
L1.09336e-16 -0.8928
L-1.09336e-16 0.8928" id="C0_69_0a00dab107"/>
     <path d="
M0.8928 -5.46682e-17
L0.8928 30.3648
L1.7856 33.0432
L2.35132e-15 38.4
L-1.7856 33.0432
L-0.8928 30.3648
L-0.8928 5.46682e-17
L0.8928 -5.46682e-17" id="C0_6a_7204a05e65"/>
     <path d="
M0 -0.8928
L41.5648 -0.8928
L44.2432 -1.7856
L49.6 0
L44.2432 1.7856
L41.5648 0.8928
L0 0.8928
L0 -0.8928" id="C0_6b_1f65689608"/>
     <path d="
M-0.8928 -5.46682e-17
L-0.8928 -30.3648
L-1.7856 -33.0432
L2.35132e-15 -38.4
L1.7856 -33.0432
L0.8928 -30.3648
L0.8928 5.46682e-17
L-0.8928 -5.46682e-17" id="C0_6c_87fc198369"/>
     <path d="
M-1.09336e-16 0.8928
L-25.0315 0.8928
L-27.7099 1.7856
L-33.0667 -4.0495e-15
L-27.7099 -1.7856
L-25.0315 -0.8928
L1.09336e-16 -0.8928
L-1.09336e-16 0.8928" id="C0_6d_030ca19c09"/>
     <path d="
M0.8928 -5.46682e-17
L0.8928 11.1648
L1.7856 13.8432
L1.17566e-15 19.2
L-1.7856 13.8432
L-0.8928 11.1648
L-0.8928 5.46682e-17
L0.8928 -5.46682e-17" id="C0_6e_020e3dfb49"/>
     <path d="
M0 -0.8928
L8.49813 -0.8928
L11.1765 -1.7856
L16.5333 0
L11.1765 1.7856
L8.49813 0.8928
L0 0.8928
L0 -0.8928" id="C0_6f_be9f5c9d67"/>
     <path d="
M-0.8928 -5.46682e-17
L-0.8928 -1.5648
L-1.7856 -4.2432
L5.8783e-16 -9.6
L1.7856 -4.2432
L0.8928 -1.5648
L0.8928 5.46682e-17
L-0.8928 -5.46682e-17" id="C0_70_bc051a4f24"/>
     <path d="
M-1.09336e-16 0.8928
L-41.5648 0.8928
L-44.2432 1.7856
L-49.6 -6.07425e-15
L-44.2432 -1.7856
L-41.5648 -0.8928
L1.09336e-16 -0.8928
L-1.09336e-16 0.8928" id="C0_71_d353a7d079"/>
     <path d="
M0.8928 -5.46682e-17
L0.8928 11.1648
L1.7856 13.8432
L1.17566e-15 19.2
L-1.7856 13.8432
L-0.8928 11.1648
L-0.8928 5.46682e-17
L0.8928 -5.46682e-17" id="C0_72_020e3dfb49"/>
     <path d="
M0 -0.8928
L41.5648 -0.8928
L44.2432 -1.7856
L49.6 0
L44.2432 1.7856
L41.5648 0.8928
L0 0.8928
L0 -0.8928" id="C0_73_1f65689608"/>
     <path d="
M-0.8928 -5.46682e-17
L-0.8928 -1.5648
L-1.7856 -4.2432
L5.8783e-16 -9.6
L1.7856 -4.2432
L0.8928 -1.5648
L0.8928 5.46682e-17
L-0.8928 -5.46682e-17" id="C0_74_bc051a4f24"/>
     <path d="
M-1.09336e-16 0.8928
L-8.49813 0.8928
L-11.1765 1.7856
L-16.5333 -2.02475e-15
L-11.1765 -1.7856
L-8.49813 -0.8928
L1.09336e-16 -0.8928
L-1.09336e-16 0.8928" id="C0_75_0a00dab107"/>
     <path d="
M0.8928 -5.46682e-17
L0.8928 20.7648
L1.7856 23.4432
L1.76349e-15 28.8
L-1.7856 23.4432
L-0.8928 20.7648
L-0.8928 5.46682e-17
L0.8928 -5.46682e-17" id="C0_76_c2ab4db44d"/>
     <path d="
M0 -0.8928
L58.0981 -0.8928
L60.7765 -1.7856
L66.1333 0
L60.7765 1.7856
L58.0981 0.8928
L0 0.8928
L0 -0.8928" id="C0_77_dce6e194d9"/>
     <path d="
M-0.8928 -5.46682e-17
L-0.8928 -20.7648
L-1.7856 -23.4432
L1.76349e-15 -28.8
L1.7856 -23.4432
L0.8928 -20.7648
L0.8928 5.46682e-17
L-0.8928 -5.46682e-17" id="C0_78_eb0605d780"/>
     <path d="
M-1.09336e-16 0.8928
L-8.49813 0.8928
L-11.1765 1.7856
L-16.5333 -2.02475e-15
L-11.1765 -1.7856
L-8.49813 -0.8928
L1.09336e-16 -0.8928
L-1.09336e-16 0.8928" id="C0_79_0a00dab107"/>
     <path d="
M0.8928 -5.46682e-17
L0.8928 1.5648
L1.7856 4.2432
L5.8783e-16 9.6
L-1.7856 4.2432
L-0.8928 1.5648
L-0.8928 5.46682e-17
L0.8928 -5.46682e-17" id="C0_7a_d9677e379e"/>
     <path d="
M0 -0.8928
L41.5648 -0.8928
L44.2432 -1.7856
L49.6 0
L44.2432 1.7856
L41.5648 0.8928
L0 0.8928
L0 -0.8928" id="C0_7b_1f65689608"/>
     <path d="
M-0.8928 -5.46682e-17
L-0.8928 -11.1648
L-1.7856 -13.8432
L1.17566e-15 -19.2
L1.7856 -13.8432
L0.8928 -11.1648
L0.8928 5.46682e-17
L-0.8928 -5.46682e-17" id="C0_7c_19681e42d9"/>
     <path d="
M-1.09336e-16 0.8928
L-41.5648 0.8928
L-44.2432 1.7856
L-49.6 -6.07425e-15
L-44.2432 -1.7856
L-41.5648 -0.8928
L1.09336e-16 -0.8928
L-1.09336e-16 0.8928" id="C0_7d_d353a7d079"/>
     <path d="
M0.8928 -5.46682e-17
L0.8928 1.5648
L1.7856 4.2432
L5.8783e-16 9.6
L-1.7856 4.2432
L-0.8928 1.5648
L-0.8928 5.46682e-17
L0.8928 -5.46682e-17" id="C0_7e_d9677e379e"/>
     <path d="
M0 -0.8928
L8.49813 -0.8928
L11.1765 -1.7856
L16.5333 0
L11.1765 1.7856
L8.49813 0.8928
L0 0.8928
L0 -0.8928" id="C0_7f_be9f5c9d67"/>
     <path d="
M-0.8928 -5.46682e-17
L-0.8928 -11.1648
L-1.7856 -13.8432
L1.17566e-15 -19.2
L1.7856 -13.8432
L0.8928 -11.1648
L0.8928 5.46682e-17
L-0.8928 -5.46682e-17" id="C0_80_19681e42d9"/>
     <path d="
M-1.09336e-16 0.8928
L-25.0315 0.8928
L-27.7099 1.7856
L-33.0667 -4.0495e-15
L-27.7099 -1.7856
L-25.0315 -0.8928
L1.09336e-16 -0.8928
L-1.09336e-16 0.8928" id="C0_81_030ca19c09"/>
     <path d="
M0.8928 -5.46682e-17
L0.8928 30.3648
L1.7856 33.0432
L2.35132e-15 38.4
L-1.7856 33.0432
L-0.8928 30.3648
L-0.8928 5.46682e-17
L0.8928 -5.46682e-17" id="C0_82_7204a05e65"/>
     <path d="
M0 -0.8928
L41.5648 -0.8928
L44.2432 -1.7856
L49.6 0
L44.2432 1.7856
L41.5648 0.8928
L0 0.8928
L0 -0.8928" id="C0_83_1f65689608"/>
     <path d="
M-0.8928 -5.46682e-17
L-0.8928 -30.3648
L-1.7856 -33.0432
L2.35132e-15 -38.4
L1.7856 -33.0432
L0.8928 -30.3648
L0.8928 5.46682e-17
L-0.8928 -5.46682e-17" id="C0_84_87fc198369"/>
     <path d="
M-1.09336e-16 0.8928
L-8.49813 0.8928
L-11.1765 1.7856
L-16.5333 -2.02475e-15
L-11.1765 -1.7856
L-8.49813 -0.8928
L1.09336e-16 -0.8928
L-1.09336e-16 0.8928" id="C0_85_0a00dab107"/>
     <path d="
M0.8928 -5.46682e-17
L0.8928 11.1648
L1.7856 13.8432
L1.17566e-15 19.2
L-1.7856 13.8432
L-0.8928 11.1648
L-0.8928 5.46682e-17
L0.8928 -5.46682e-17" id="C0_86_020e3dfb49"/>
     <path d="
M0 -0.8928
L74.6315 -0.8928
L77.3099 -1.7856
L82.6667 0
L77.3099 1.7856
L74.6315 0.8928
L0 0.8928
L0 -0.8928" id="C0_87_79eff79d7e"/>
     <path d="
M-0.8928 -5.46682e-17
L-0.8928 -11.1648
L-1.7856 -13.8432
L1.17566e-15 -19.2
L1.7856 -13.8432
L0.8928 -11.1648
L0.8928 5.46682e-17
L-0.8928 -5.46682e-17" id="C0_88_19681e42d9"/>
     <path d="
M-1.09336e-16 0.8928
L-58.0981 0.8928
L-60.7765 1.7856
L-66.1333 -8.099e-15
L-60.7765 -1.7856
L-58.0981 -0.8928
L1.09336e-16 -0.8928
L-1.09336e-16 0.8928" id="C0_89_ca9f18a244"/>
     <path d="
M0.8928 -5.46682e-17
L0.8928 30.3648
L1.7856 33.0432
L2.35132e-15 38.4
L-1.7856 33.0432
L-0.8928 30.3648
L-0.8928 5.46682e-17
L0.8928 -5.46682e-17" id="C0_8a_7204a05e65"/>
     <path d="
M0 -0.8928
L25.0315 -0.8928
L27.7099 -1.7856
L33.0667 0
L27.7099 1.7856
L25.0315 0.8928
L0 0.8928
L0 -0.8928" id="C0_8b_7482c1f3bb"/>
     <path d="
M-0.8928 -5.46682e-17
L-0.8928 -1.5648
L-1.7856 -4.2432
L5.8783e-16 -9.6
L1.7856 -4.2432
L0.8928 -1.5648
L0.8928 5.46682e-17
L-0.8928 -5.46682e-17" id="C0_8c_bc051a4f24"/>
     <path d="
M-1.09336e-16 0.8928
L-8.49813 0.8928
L-11.1765 1.7856
L-16.5333 -2.02475e-15
L-11.1765 -1.7856
L-8.49813 -0.8928
L1.09336e-16 -0.8928
L-1.09336e-16 0.8928" id="C0_8d_0a00dab107"/>
     <path d="
M0.8928 -5.46682e-17
L0.8928 20.7648
L1.7856 23.4432
L1.76349e-15 28.8
L-1.7856 23.4432
L-0.8928 20.7648
L-0.8928 5.46682e-17
L0.8928 -5.46682e-17" id="C0_8e_c2ab4db44d"/>
     <path d="
M0 -0.8928
L25.0315 -0.8928
L27.7099 -1.7856
L33.0667 0
L27.7099 1.7856
L25.0315 0.8928
L0 0.8928
L0 -0.8928" id="C0_8f_7482c1f3bb"/>
     <path d="
M-0.8928 -5.46682e-17
L-0.8928 -20.7648
L-1.7856 -23.4432
L1.76349e-15 -28.8
L1.7856 -23.4432
L0.8928 -20.7648
L0.8928 5.46682e-17
L-0.8928 -5.46682e-17" id="C0_90_eb0605d780"/>
     <path d="
M-1.09336e-16 0.8928
L-8.49813 0.8928
L-11.1765 1.7856
L-16.5333 -2.02475e-15
L-11.1765 -1.7856
L-8.49813 -0.8928
L1.09336e-16 -0.8928
L-1.09336e-16 0.8928" id="C0_91_0a00dab107"/>
     <path d="
M0.8928 -5.46682e-17
L0.8928 1.5648
L1.7856 4.2432
L5.8783e-16 9.6
L-1.7856 4.2432
L-0.8928 1.5648
L-0.8928 5.46682e-17
L0.8928 -5.46682e-17" id="C0_92_d9677e379e"/>
     <path d="
M0 -0.8928
L25.0315 -0.8928
L27.7099 -1.7856
L33.0667 0
L27.7099 1.7856
L25.0315 0.8928
L0 0.8928
L0 -0.8928" id="C0_93_7482c1f3bb"/>
     <path d="
M-0.8928 -5.46682e-17
L-0.8928 -11.1648
L-1.7856 -13.8432
L1.17566e-15 -19.2
L1.7856 -13.8432
L0.8928 -11.1648
L0.8928 5.46682e-17
L-0.8928 -5.46682e-17" id="C0_94_19681e42d9"/>
     <path d="
M-1.09336e-16 0.8928
L-74.6315 0.8928
L-77.3099 1.7856
L-82.6667 -1.01237e-14
L-77.3099 -1.7856
L-74.6315 -0.8928
L1.09336e-16 -0.8928
L-1.09336e-16 0.8928" id="C0_95_f5327b7319"/>
     <path d="
M0.8928 -5.46682e-17
L0.8928 20.7648
L1.7856 23.4432
L1.76349e-15 28.8
L-1.7856 23.4432
L-0.8928 20.7648
L-0.8928 5.46682e-17
L0.8928 -5.46682e-17" id="C0_96_c2ab4db44d"/>
     <path d="
M0 -0.8928
L41.5648 -0.8928
L44.2432 -1.7856
L49.6 0
L44.2432 1.7856
L41.5648 0.8928
L0 0.8928
L0 -0.8928" id="C0_97_1f65689608"/>
     <path d="
M-0.8928 -5.46682e-17
L-0.8928 -1.5648
L-1.7856 -4.2432
L5.8783e-16 -9.6
L1.7856 -4.2432
L0.8928 -1.5648
L0.8928 5.46682e-17
L-0.8928 -5.46682e-17" id="C0_98_bc051a4f24"/>
     <path d="
M-1.09336e-16 0.8928
L-25.0315 0.8928
L-27.7099 1.7856
L-33.0667 -4.0495e-15
L-27.7099 -1.7856
L-25.0315 -0.8928
L1.09336e-16 -0.8928
L-1.09336e-16 0.8928" id="C0_99_030ca19c09"/>
     <path d="
M0.8928 -5.46682e-17
L0.8928 20.7648
L1.7856 23.4432
L1.76349e-15 28.8
L-1.7856 23.4432
L-0.8928 20.7648
L-0.8928 5.46682e-17
L0.8928 -5.46682e-17" id="C0_9a_c2ab4db44d"/>
     <path d="
M0 -0.8928
L41.5648 -0.8928
L44.2432 -1.7856
L49.6 0
L44.2432 1.7856
L41.5648 0.8928
L0 0.8928
L0 -0.8928" id="C0_9b_1f65689608"/>
     <path d="
M-0.8928 -5.46682e-17
L-0.8928 -1.5648
L-1.7856 -4.2432
L5.8783e-16 -9.6
L1.7856 -4.2432
L0.8928 -1.5648
L0.8928 5.46682e-17
L-0.8928 -5.46682e-17" id="C0_9c_bc051a4f24"/>
     <path d="
M-1.09336e-16 0.8928
L-25.0315 0.8928
L-27.7099 1.7856
L-33.0667 -4.0495e-15
L-27.7099 -1.7856
L-25.0315 -0.8928
L1.09336e-16 -0.8928
L-1.09336e-16 0.8928" id="C0_9d_030ca19c09"/>
     <path d="
M0.8928 -5.46682e-17
L0.8928 39.9648
L1.7856 42.6432
L2.93915e-15 48
L-1.7856 42.6432
L-0.8928 39.9648
L-0.8928 5.46682e-17
L0.8928 -5.46682e-17" id="C0_9e_65327df009"/>
     <path d="
M0 -0.8928
L91.1648 -0.8928
L93.8432 -1.7856
L99.2 0
L93.8432 1.7856
L91.1648 0.8928
L0 0.8928
L0 -0.8928" id="C0_9f_47c8698e4f"/>
     <path d="
M-0.8928 -5.46682e-17
L-0.8928 -1.5648
L-1.7856 -4.2432
L5.8783e-16 -9.6
L1.7856 -4.2432
L0.8928 -1.5648
L0.8928 5.46682e-17
L-0.8928 -5.46682e-17" id="C0_a0_bc051a4f24"/>
     <path d="
M-1.09336e-16 0.8928
L-25.0315 0.8928
L-27.7099 1.7856
L-33.0667 -4.0495e-15
L-27.7099 -1.7856
L-25.0315 -0.8928
L1.09336e-16 -0.8928
L-1.09336e-16 0.8928" id="C0_a1_030ca19c09"/>
     <path d="
M0.8928 -5.46682e-17
L0.8928 11.1648
L1.7856 13.8432
L1.17566e-15 19.2
L-1.7856 13.8432
L-0.8928 11.1648
L-0.8928 5.46682e-17
L0.8928 -5.46682e-17" id="C0_a2_020e3dfb49"/>
     <path d="
M0 -0.8928
L8.49813 -0.8928
L11.1765 -1.7856
L16.5333 0
L11.1765 1.7856
L8.49813 0.8928
L0 0.8928
L0 -0.8928" id="C0_a3_be9f5c9d67"/>
     <path d="
M-0.8928 -5.46682e-17
L-0.8928 -49.5648
L-1.7856 -52.2432
L3.52698e-15 -57.6
L1.7856 -52.2432
L0.8928 -49.5648
L0.8928 5.46682e-17
L-0.8928 -5.46682e-17" id="C0_a4_29bc26b568"/>
     <path d="
M-1.09336e-16 0.8928
L-41.5648 0.8928
L-44.2432 1.7856
L-49.6 -6.07425e-15
L-44.2432 -1.7856
L-41.5648 -0.8928
L1.09336e-16 -0.8928
L-1.09336e-16 0.8928" id="C0_a5_d353a7d079"/>
     <path d="
M0.8928 -5.46682e-17
L0.8928 1.5648
L1.7856 4.2432
L5.8783e-16 9.6
L-1.7856 4.2432
L-0.8928 1.5648
L-0.8928 5.46682e-17
L0.8928 -5.46682e-17" id="C0_a6_d9677e379e"/>
     <path d="
M0 -0.8928
L8.49813 -0.8928
L11.1765 -1.7856
L16.5333 0
L11.1765 1.7856
L8.49813 0.8928
L0 0.8928
L0 -0.8928" id="C0_a7_be9f5c9d67"/>
     <path d="
M-0.8928 -5.46682e-17
L-0.8928 -20.7648
L-1.7856 -23.4432
L1.76349e-15 -28.8
L1.7856 -23.4432
L0.8928 -20.7648
L0.8928 5.46682e-17
L-0.8928 -5.46682e-17" id="C0_a8_eb0605d780"/>
     <path d="
M-1.09336e-16 0.8928
L-25.0315 0.8928
L-27.7099 1.7856
L-33.0667 -4.0495e-15
L-27.7099 -1.7856
L-25.0315 -0.8928
L1.09336e-16 -0.8928
L-1.09336e-16 0.8928" id="C0_a9_030ca19c09"/>
     <path d="
M0.8928 -5.46682e-17
L0.8928 1.5648
L1.7856 4.2432
L5.8783e-16 9.6
L-1.7856 4.2432
L-0.8928 1.5648
L-0.8928 5.46682e-17
L0.8928 -5.46682e-17" id="C0_aa_d9677e379e"/>
     <path d="
M0 -0.8928
L124.231 -0.8928
L126.91 -1.7856
L132.267 0
L126.91 1.7856
L124.231 0.8928
L0 0.8928
L0 -0.8928" id="C0_ab_e6b53e82fa"/>
     <path d="
M-0.8928 -5.46682e-17
L-0.8928 -39.9648
L-1.7856 -42.6432
L2.93915e-15 -48
L1.7856 -42.6432
L0.8928 -39.9648
L0.8928 5.46682e-17
L-0.8928 -5.46682e-17" id="C0_ac_a7c3e8faea"/>
     <path d="
M-1.09336e-16 0.8928
L-41.5648 0.8928
L-44.2432 1.7856
L-49.6 -6.07425e-15
L-44.2432 -1.7856
L-41.5648 -0.8928
L1.09336e-16 -0.8928
L-1.09336e-16 0.8928" id="C0_ad_d353a7d079"/>
     <path d="
M0.8928 -5.46682e-17
L0.8928 1.5648
L1.7856 4.2432
L5.8783e-16 9.6
L-1.7856 4.2432
L-0.8928 1.5648
L-0.8928 5.46682e-17
L0.8928 -5.46682e-17" id="C0_ae_d9677e379e"/>
     <path d="
M0 -0.8928
L8.49813 -0.8928
L11.1765 -1.7856
L16.5333 0
L11.1765 1.7856
L8.49813 0.8928
L0 0.8928
L0 -0.8928" id="C0_af_be9f5c9d67"/>
     <path d="
M-0.8928 -5.46682e-17
L-0.8928 -30.3648
L-1.7856 -33.0432
L2.35132e-15 -38.4
L1.7856 -33.0432
L0.8928 -30.3648
L0.8928 5.46682e-17
L-0.8928 -5.46682e-17" id="C0_b0_87fc198369"/>
     <path d="
M-1.09336e-16 0.8928
L-25.0315 0.8928
L-27.7099 1.7856
L-33.0667 -4.0495e-15
L-27.7099 -1.7856
L-25.0315 -0.8928
L1.09336e-16 -0.8928
L-1.09336e-16 0.8928" id="C0_b1_030ca19c09"/>
     <path d="
M0.8928 -5.46682e-17
L0.8928 1.5648
L1.7856 4.2432
L5.8783e-16 9.6
L-1.7856 4.2432
L-0.8928 1.5648
L-0.8928 5.46682e-17
L0.8928 -5.46682e-17" id="C0_b2_d9677e379e"/>
     <path d="
M0 -0.8928
L8.49813 -0.8928
L11.1765 -1.7856
L16.5333 0
L11.1765 1.7856
L8.49813 0.8928
L0 0.8928
L0 -0.8928" id="C0_b3_be9f5c9d67"/>
     <path d="
M-0.8928 -5.46682e-17
L-0.8928 -11.1648
L-1.7856 -13.8432
L1.17566e-15 -19.2
L1.7856 -13.8432
L0.8928 -11.1648
L0.8928 5.46682e-17
L-0.8928 -5.46682e-17" id="C0_b4_19681e42d9"/>
     <path d="
M-1.09336e-16 0.8928
L-74.6315 0.8928
L-77.3099 1.7856
L-82.6667 -1.01237e-14
L-77.3099 -1.7856
L-74.6315 -0.8928
L1.09336e-16 -0.8928
L-1.09336e-16 0.8928" id="C0_b5_f5327b7319"/>
     <path d="
M0.8928 -5.46682e-17
L0.8928 11.1648
L1.7856 13.8432
L1.17566e-15 19.2
L-1.7856 13.8432
L-0.8928 11.1648
L-0.8928 5.46682e-17
L0.8928 -5.46682e-17" id="C0_b6_020e3dfb49"/>
     <path d="
M0 -0.8928
L8.49813 -0.8928
L11.1765 -1.7856
L16.5333 0
L11.1765 1.7856
L8.49813 0.8928
L0 0.8928
L0 -0.8928" id="C0_b7_be9f5c9d67"/>
     <path d="
M-0.8928 -5.46682e-17
L-0.8928 -59.1648
L-1.7856 -61.8432
L4.11481e-15 -67.2
L1.7856 -61.8432
L0.8928 -59.1648
L0.8928 5.46682e-17
L-0.8928 -5.46682e-17" id="C0_b8_24e3de6fbe"/>
     <path d="
M-1.09336e-16 0.8928
L-8.49813 0.8928
L-11.1765 1.7856
L-16.5333 -2.02475e-15
L-11.1765 -1.7856
L-8.49813 -0.8928
L1.09336e-16 -0.8928
L-1.09336e-16 0.8928" id="C0_b9_0a00dab107"/>
     <path d="
M0.8928 -5.46682e-17
L0.8928 11.1648
L1.7856 13.8432
L1.17566e-15 19.2
L-1.7856 13.8432
L-0.8928 11.1648
L-0.8928 5.46682e-17
L0.8928 -5.46682e-17" id="C0_ba_020e3dfb49"/>
     <path d="
M0 -0.8928
L74.6315 -0.8928
L77.3099 -1.7856
L82.6667 0
L77.3099 1.7856
L74.6315 0.8928
L0 0.8928
L0 -0.8928" id="C0_bb_79eff79d7e"/>
     <path d="
M-0.8928 -5.46682e-17
L-0.8928 -11.1648
L-1.7856 -13.8432
L1.17566e-15 -19.2
L1.7856 -13.8432
L0.8928 -11.1648
L0.8928 5.46682e-17
L-0.8928 -5.46682e-17" id="C0_bc_19681e42d9"/>
     <path d="
M-1.09336e-16 0.8928
L-8.49813 0.8928
L-11.1765 1.7856
L-16.5333 -2.02475e-15
L-11.1765 -1.7856
L-8.49813 -0.8928
L1.09336e-16 -0.8928
L-1.09336e-16 0.8928" id="C0_bd_0a00dab107"/>
     <path d="
M0.8928 -5.46682e-17
L0.8928 1.5648
L1.7856 4.2432
L5.8783e-16 9.6
L-1.7856 4.2432
L-0.8928 1.5648
L-0.8928 5.46682e-17
L0.8928 -5.46682e-17" id="C0_be_d9677e379e"/>
     <path d="
M0 -0.8928
L25.0315 -0.8928
L27.7099 -1.7856
L33.0667 0
L27.7099 1.7856
L25.0315 0.8928
L0 0.8928
L0 -0.8928" id="C0_bf_7482c1f3bb"/>
     <path d="
M-0.8928 -5.46682e-17
L-0.8928 -30.3648
L-1.7856 -33.0432
L2.35132e-15 -38.4
L1.7856 -33.0432
L0.8928 -30.3648
L0.8928 5.46682e-17
L-0.8928 -5.46682e-17" id="C0_c0_87fc198369"/>
     <path d="
M-1.09336e-16 0.8928
L-8.49813 0.8928
L-11.1765 1.7856
L-16.5333 -2.02475e-15
L-11.1765 -1.7856
L-8.49813 -0.8928
L1.09336e-16 -0.8928
L-1.09336e-16 0.8928" id="C0_c1_0a00dab107"/>
     <path d="
M0.8928 -5.46682e-17
L0.8928 1.5648
L1.7856 4.2432
L5.8783e-16 9.6
L-1.7856 4.2432
L-0.8928 1.5648
L-0.8928 5.46682e-17
L0.8928 -5.46682e-17" id="C0_c2_d9677e379e"/>
     <path d="
M0 -0.8928
L41.5648 -0.8928
L44.2432 -1.7856
L49.6 0
L44.2432 1.7856
L41.5648 0.8928
L0 0.8928
L0 -0.8928" id="C0_c3_1f65689608"/>
     <path d="
M-0.8928 -5.46682e-17
L-0.8928 -39.9648
L-1.7856 -42.6432
L2.93915e-15 -48
L1.7856 -42.6432
L0.8928 -39.9648
L0.8928 5.46682e-17
L-0.8928 -5.46682e-17" id="C0_c4_a7c3e8faea"/>
     <path d="
M-1.09336e-16 0.8928
L-124.231 0.8928
L-126.91 1.7856
L-132.267 -1.6198e-14
L-126.91 -1.7856
L-124.231 -0.8928
L1.09336e-16 -0.8928
L-1.09336e-16 0.8928" id="C0_c5_6adeb51c53"/>
     <path d="
M0.8928 -5.46682e-17
L0.8928 1.5648
L1.7856 4.2432
L5.8783e-16 9.6
L-1.7856 4.2432
L-0.8928 1.5648
L-0.8928 5.46682e-17
L0.8928 -5.46682e-17" id="C0_c6_d9677e379e"/>
     <path d="
M0 -0.8928
L25.0315 -0.8928
L27.7099 -1.7856
L33.0667 0
L27.7099 1.7856
L25.0315 0.8928
L0 0.8928
L0 -0.8928" id="C0_c7_7482c1f3bb"/>
     <path d="
M-0.8928 -5.46682e-17
L-0.8928 -20.7648
L-1.7856 -23.4432
L1.76349e-15 -28.8
L1.7856 -23.4432
L0.8928 -20.7648
L0.8928 5.46682e-17
L-0.8928 -5.46682e-17" id="C0_c8_eb0605d780"/>
     <path d="
M-1.09336e-16 0.8928
L-8.49813 0.8928
L-11.1765 1.7856
L-16.5333 -2.02475e-15
L-11.1765 -1.7856
L-8.49813 -0.8928
L1.09336e-16 -0.8928
L-1.09336e-16 0.8928" id="C0_c9_0a00dab107"/>
     <path d="
M0.8928 -5.46682e-17
L0.8928 1.5648
L1.7856 4.2432
L5.8783e-16 9.6
L-1.7856 4.2432
L-0.8928 1.5648
L-0.8928 5.46682e-17
L0.8928 -5.46682e-17" id="C0_ca_d9677e379e"/>
     <path d="
M0 -0.8928
L41.5648 -0.8928
L44.2432 -1.7856
L49.6 0
L44.2432 1.7856
L41.5648 0.8928
L0 0.8928
L0 -0.8928" id="C0_cb_1f65689608"/>
     <path d="
M-0.8928 -5.46682e-17
L-0.8928 -49.5648
L-1.7856 -52.2432
L3.52698e-15 -57.6
L1.7856 -52.2432
L0.8928 -49.5648
L0.8928 5.46682e-17
L-0.8928 -5.46682e-17" id="C0_cc_29bc26b568"/>
     <path d="
M-1.09336e-16 0.8928
L-8.49813 0.8928
L-11.1765 1.7856
L-16.5333 -2.02475e-15
L-11.1765 -1.7856
L-8.49813 -0.8928
L1.09336e-16 -0.8928
L-1.09336e-16 0.8928" id="C0_cd_0a00dab107"/>
     <path d="
M0.8928 -5.46682e-17
L0.8928 11.1648
L1.7856 13.8432
L1.17566e-15 19.2
L-1.7856 13.8432
L-0.8928 11.1648
L-0.8928 5.46682e-17
L0.8928 -5.46682e-17" id="C0_ce_020e3dfb49"/>
     <path d="
M0 -0.8928
L25.0315 -0.8928
L27.7099 -1.7856
L33.0667 0
L27.7099 1.7856
L25.0315 0.8928
L0 0.8928
L0 -0.8928" id="C0_cf_7482c1f3bb"/>
     <path d="
M-0.8928 -5.46682e-17
L-0.8928 -1.5648
L-1.7856 -4.2432
L5.8783e-16 -9.6
L1.7856 -4.2432
L0.8928 -1.5648
L0.8928 5.46682e-17
L-0.8928 -5.46682e-17" id="C0_d0_bc051a4f24"/>
     <path d="
M-1.09336e-16 0.8928
L-91.1648 0.8928
L-93.8432 1.7856
L-99.2 -1.21485e-14
L-93.8432 -1.7856
L-91.1648 -0.8928
L1.09336e-16 -0.8928
L-1.09336e-16 0.8928" id="C0_d1_f4c0c098f1"/>
     <path d="
M0.8928 -5.46682e-17
L0.8928 39.9648
L1.7856 42.6432
L2.93915e-15 48
L-1.7856 42.6432
L-0.8928 39.9648
L-0.8928 5.46682e-17
L0.8928 -5.46682e-17" id="C0_d2_65327df009"/>
     <path d="
M0 -0.8928
L25.0315 -0.8928
L27.7099 -1.7856
L33.0667 0
L27.7099 1.7856
L25.0315 0.8928
L0 0.8928
L0 -0.8928" id="C0_d3_7482c1f3bb"/>
     <path d="
M-0.8928 -5.46682e-17
L-0.8928 -1.5648
L-1.7856 -4.2432
L5.8783e-16 -9.6
L1.7856 -4.2432
L0.8928 -1.5648
L0.8928 5.46682e-17
L-0.8928 -5.46682e-17" id="C0_d4_bc051a4f24"/>
     <path d="
M-1.09336e-16 0.8928
L-41.5648 0.8928
L-44.2432 1.7856
L-49.6 -6.07425e-15
L-44.2432 -1.7856
L-41.5648 -0.8928
L1.09336e-16 -0.8928
L-1.09336e-16 0.8928" id="C0_d5_d353a7d079"/>
     <path d="
M0.8928 -5.46682e-17
L0.8928 20.7648
L1.7856 23.4432
L1.76349e-15 28.8
L-1.7856 23.4432
L-0.8928 20.7648
L-0.8928 5.46682e-17
L0.8928 -5.46682e-17" id="C0_d6_c2ab4db44d"/>
     <path d="
M0 -0.8928
L25.0315 -0.8928
L27.7099 -1.7856
L33.0667 0
L27.7099 1.7856
L25.0315 0.8928
L0 0.8928
L0 -0.8928" id="C0_d7_7482c1f3bb"/>
     <path d="
M-0.8928 -5.46682e-17
L-0.8928 -1.5648
L-1.7856 -4.2432
L5.8783e-16 -9.6
L1.7856 -4.2432
L0.8928 -1.5648
L0.8928 5.46682e-17
L-0.8928 -5.46682e-17" id="C0_d8_bc051a4f24"/>
     <path d="
M-1.09336e-16 0.8928
L-41.5648 0.8928
L-44.2432 1.7856
L-49.6 -6.07425e-15
L-44.2432 -1.7856
L-41.5648 -0.8928
L1.09336e-16 -0.8928
L-1.09336e-16 0.8928" id="C0_d9_d353a7d079"/>
     <path d="
M0.8928 -5.46682e-17
L0.8928 20.7648
L1.7856 23.4432
L1.76349e-15 28.8
L-1.7856 23.4432
L-0.8928 20.7648
L-0.8928 5.46682e-17
L0.8928 -5.46682e-17" id="C0_da_c2ab4db44d"/>
     <path d="
M0 -0.8928
L74.6315 -0.8928
L77.3099 -1.7856
L82.6667 0
L77.3099 1.7856
L74.6315 0.8928
L0 0.8928
L0 -0.8928" id="C0_db_79eff79d7e"/>
     <path d="
M-0.8928 -5.46682e-17
L-0.8928 -11.1648
L-1.7856 -13.8432
L1.17566e-15 -19.2
L1.7856 -13.8432
L0.8928 -11.1648
L0.8928 5.46682e-17
L-0.8928 -5.46682e-17" id="C0_dc_19681e42d9"/>
     <path d="
M-1.09336e-16 0.8928
L-25.0315 0.8928
L-27.7099 1.7856
L-33.0667 -4.0495e-15
L-27.7099 -1.7856
L-25.0315 -0.8928
L1.09336e-16 -0.8928
L-1.09336e-16 0.8928" id="C0_dd_030ca19c09"/>
     <path d="
M0.8928 -5.46682e-17
L0.8928 1.5648
L1.7856 4.2432
L5.8783e-16 9.6
L-1.7856 4.2432
L-0.8928 1.5648
L-0.8928 5.46682e-17
L0.8928 -5.46682e-17" id="C0_de_d9677e379e"/>
     <path d="
M0 -0.8928
L8.49813 -0.8928
L11.1765 -1.7856
L16.5333 0
L11.1765 1.7856
L8.49813 0.8928
L0 0.8928
L0 -0.8928" id="C0_df_be9f5c9d67"/>
     <path d="
M-0.8928 -5.46682e-17
L-0.8928 -20.7648
L-1.7856 -23.4432
L1.76349e-15 -28.8
L1.7856 -23.4432
L0.8928 -20.7648
L0.8928 5.46682e-17
L-0.8928 -5.46682e-17" id="C0_e0_eb0605d780"/>
     <path d="
M-1.09336e-16 0.8928
L-25.0315 0.8928
L-27.7099 1.7856
L-33.0667 -4.0495e-15
L-27.7099 -1.7856
L-25.0315 -0.8928
L1.09336e-16 -0.8928
L-1.09336e-16 0.8928" id="C0_e1_030ca19c09"/>
     <path d="
M0.8928 -5.46682e-17
L0.8928 20.7648
L1.7856 23.4432
L1.76349e-15 28.8
L-1.7856 23.4432
L-0.8928 20.7648
L-0.8928 5.46682e-17
L0.8928 -5.46682e-17" id="C0_e2_c2ab4db44d"/>
     <path d="
M0 -0.8928
L8.49813 -0.8928
L11.1765 -1.7856
L16.5333 0
L11.1765 1.7856
L8.49813 0.8928
L0 0.8928
L0 -0.8928" id="C0_e3_be9f5c9d67"/>
     <path d="
M-0.8928 -5.46682e-17
L-0.8928 -1.5648
L-1.7856 -4.2432
L5.8783e-16 -9.6
L1.7856 -4.2432
L0.8928 -1.5648
L0.8928 5.46682e-17
L-0.8928 -5.46682e-17" id="C0_e4_bc051a4f24"/>
     <path d="
M-1.09336e-16 0.8928
L-25.0315 0.8928
L-27.7099 1.7856
L-33.0667 -4.0495e-15
L-27.7099 -1.7856
L-25.0315 -0.8928
L1.09336e-16 -0.8928
L-1.09336e-16 0.8928" id="C0_e5_030ca19c09"/>
     <path d="
M0.8928 -5.46682e-17
L0.8928 30.3648
L1.7856 33.0432
L2.35132e-15 38.4
L-1.7856 33.0432
L-0.8928 30.3648
L-0.8928 5.46682e-17
L0.8928 -5.46682e-17" id="C0_e6_7204a05e65"/>
     <path d="
M0 -0.8928
L58.0981 -0.8928
L60.7765 -1.7856
L66.1333 0
L60.7765 1.7856
L58.0981 0.8928
L0 0.8928
L0 -0.8928" id="C0_e7_dce6e194d9"/>
     <path d="
M-0.8928 -5.46682e-17
L-0.8928 -11.1648
L-1.7856 -13.8432
L1.17566e-15 -19.2
L1.7856 -13.8432
L0.8928 -11.1648
L0.8928 5.46682e-17
L-0.8928 -5.46682e-17" id="C0_e8_19681e42d9"/>
     <path d="
M-1.09336e-16 0.8928
L-74.6315 0.8928
L-77.3099 1.7856
L-82.6667 -1.01237e-14
L-77.3099 -1.7856
L-74.6315 -0.8928
L1.09336e-16 -0.8928
L-1.09336e-16 0.8928" id="C0_e9_f5327b7319"/>
     <path d="
M0.8928 -5.46682e-17
L0.8928 11.1648
L1.7856 13.8432
L1.17566e-15 19.2
L-1.7856 13.8432
L-0.8928 11.1648
L-0.8928 5.46682e-17
L0.8928 -5.46682e-17" id="C0_ea_020e3dfb49"/>
     <path d="
M0 -0.8928
L8.49813 -0.8928
L11.1765 -1.7856
L16.5333 0
L11.1765 1.7856
L8.49813 0.8928
L0 0.8928
L0 -0.8928" id="C0_eb_be9f5c9d67"/>
     <path d="
M-0.8928 -5.46682e-17
L-0.8928 -30.3648
L-1.7856 -33.0432
L2.35132e-15 -38.4
L1.7856 -33.0432
L0.8928 -30.3648
L0.8928 5.46682e-17
L-0.8928 -5.46682e-17" id="C0_ec_87fc198369"/>
     <path d="
M-1.09336e-16 0.8928
L-41.5648 0.8928
L-44.2432 1.7856
L-49.6 -6.07425e-15
L-44.2432 -1.7856
L-41.5648 -0.8928
L1.09336e-16 -0.8928
L-1.09336e-16 0.8928" id="C0_ed_d353a7d079"/>
     <path d="
M0.8928 -5.46682e-17
L0.8928 30.3648
L1.7856 33.0432
L2.35132e-15 38.4
L-1.7856 33.0432
L-0.8928 30.3648
L-0.8928 5.46682e-17
L0.8928 -5.46682e-17" id="C0_ee_7204a05e65"/>
     <path d="
M0 -0.8928
L25.0315 -0.8928
L27.7099 -1.7856
L33.0667 0
L27.7099 1.7856
L25.0315 0.8928
L0 0.8928
L0 -0.8928" id="C0_ef_7482c1f3bb"/>
     <path d="
M-0.8928 -5.46682e-17
L-0.8928 -11.1648
L-1.7856 -13.8432
L1.17566e-15 -19.2
L1.7856 -13.8432
L0.8928 -11.1648
L0.8928 5.46682e-17
L-0.8928 -5.46682e-17" id="C0_f0_19681e42d9"/>
     <path d="
M-1.09336e-16 0.8928
L-8.49813 0.8928
L-11.1765 1.7856
L-16.5333 -2.02475e-15
L-11.1765 -1.7856
L-8.49813 -0.8928
L1.09336e-16 -0.8928
L-1.09336e-16 0.8928" id="C0_f1_0a00dab107"/>
     <path d="
M0.8928 -5.46682e-17
L0.8928 1.5648
L1.7856 4.2432
L5.8783e-16 9.6
L-1.7856 4.2432
L-0.8928 1.5648
L-0.8928 5.46682e-17
L0.8928 -5.46682e-17" id="C0_f2_d9677e379e"/>
     <path d="
M0 -0.8928
L41.5648 -0.8928
L44.2432 -1.7856
L49.6 0
L44.2432 1.7856
L41.5648 0.8928
L0 0.8928
L0 -0.8928" id="C0_f3_1f65689608"/>
     <path d="
M-0.8928 -5.46682e-17
L-0.8928 -11.1648
L-1.7856 -13.8432
L1.17566e-15 -19.2
L1.7856 -13.8432
L0.8928 -11.1648
L0.8928 5.46682e-17
L-0.8928 -5.46682e-17" id="C0_f4_19681e42d9"/>
     <path d="
M-1.09336e-16 0.8928
L-41.5648 0.8928
L-44.2432 1.7856
L-49.6 -6.07425e-15
L-44.2432 -1.7856
L-41.5648 -0.8928
L1.09336e-16 -0.8928
L-1.09336e-16 0.8928" id="C0_f5_d353a7d079"/>
     <path d="
M0.8928 -5.46682e-17
L0.8928 1.5648
L1.7856 4.2432
L5.8783e-16 9.6
L-1.7856 4.2432
L-0.8928 1.5648
L-0.8928 5.46682e-17
L0.8928 -5.46682e-17" id="C0_f6_d9677e379e"/>
     <path d="
M0 -0.8928
L8.49813 -0.8928
L11.1765 -1.7856
L16.5333 0
L11.1765 1.7856
L8.49813 0.8928
L0 0.8928
L0 -0.8928" id="C0_f7_be9f5c9d67"/>
     <path d="
M-0.8928 -5.46682e-17
L-0.8928 -20.7648
L-1.7856 -23.4432
L1.76349e-15 -28.8
L1.7856 -23.4432
L0.8928 -20.7648
L0.8928 5.46682e-17
L-0.8928 -5.46682e-17" id="C0_f8_eb0605d780"/>
     <path d="
M-1.09336e-16 0.8928
L-58.0981 0.8928
L-60.7765 1.7856
L-66.1333 -8.099e-15
L-60.7765 -1.7856
L-58.0981 -0.8928
L1.09336e-16 -0.8928
L-1.09336e-16 0.8928" id="C0_f9_ca9f18a244"/>
     <path d="
M0.8928 -5.46682e-17
L0.8928 20.7648
L1.7856 23.4432
L1.76349e-15 28.8
L-1.7856 23.4432
L-0.8928 20.7648
L-0.8928 5.46682e-17
L0.8928 -5.46682e-17" id="C0_fa_c2ab4db44d"/>
     <path d="
M0 -0.8928
L8.49813 -0.8928
L11.1765 -1.7856
L16.5333 0
L11.1765 1.7856
L8.49813 0.8928
L0 0.8928
L0 -0.8928" id="C0_fb_be9f5c9d67"/>
     <path d="
M-0.8928 -5.46682e-17
L-0.8928 -1.5648
L-1.7856 -4.2432
L5.8783e-16 -9.6
L1.7856 -4.2432
L0.8928 -1.5648
L0.8928 5.46682e-17
L-0.8928 -5.46682e-17" id="C0_fc_bc051a4f24"/>
     <path d="
M-1.09336e-16 0.8928
L-41.5648 0.8928
L-44.2432 1.7856
L-49.6 -6.07425e-15
L-44.2432 -1.7856
L-41.5648 -0.8928
L1.09336e-16 -0.8928
L-1.09336e-16 0.8928" id="C0_fd_d353a7d079"/>
     <path d="
M0.8928 -5.46682e-17
L0.8928 11.1648
L1.7856 13.8432
L1.17566e-15 19.2
L-1.7856 13.8432
L-0.8928 11.1648
L-0.8928 5.46682e-17
L0.8928 -5.46682e-17" id="C0_fe_020e3dfb49"/>
     <path d="
M0 -0.8928
L41.5648 -0.8928
L44.2432 -1.7856
L49.6 0
L44.2432 1.7856
L41.5648 0.8928
L0 0.8928
L0 -0.8928" id="C0_ff_1f65689608"/>
     <path d="
M-0.8928 -5.46682e-17
L-0.8928 -1.5648
L-1.7856 -4.2432
L5.8783e-16 -9.6
L1.7856 -4.2432
L0.8928 -1.5648
L0.8928 5.46682e-17
L-0.8928 -5.46682e-17" id="C0_100_bc051a4f24"/>
     <path d="
M-1.09336e-16 0.8928
L-8.49813 0.8928
L-11.1765 1.7856
L-16.5333 -2.02475e-15
L-11.1765 -1.7856
L-8.49813 -0.8928
L1.09336e-16 -0.8928
L-1.09336e-16 0.8928" id="C0_101_0a00dab107"/>
     <path d="
M0.8928 -5.46682e-17
L0.8928 11.1648
L1.7856 13.8432
L1.17566e-15 19.2
L-1.7856 13.8432
L-0.8928 11.1648
L-0.8928 5.46682e-17
L0.8928 -5.46682e-17" id="C0_102_020e3dfb49"/>
     <path d="
M0 -0.8928
L25.0315 -0.8928
L27.7099 -1.7856
L33.0667 0
L27.7099 1.7856
L25.0315 0.8928
L0 0.8928
L0 -0.8928" id="C0_103_7482c1f3bb"/>
    </defs>
    <g clip-path="url(#p7ff5b81e1d)">
     <use x="295.2" xlink:href="#C0_0_87fc198369" y="163.2"/>
    </g>
    <g clip-path="url(#p7ff5b81e1d)">
     <use x="295.2" xlink:href="#C0_1_d353a7d079" y="124.8"/>
    </g>
    <g clip-path="url(#p7ff5b81e1d)">
     <use x="245.6" xlink:href="#C0_2_7204a05e65" y="124.8"/>
    </g>
    <g clip-path="url(#p7ff5b81e1d)">
     <use x="245.6" xlink:href="#C0_3_be9f5c9d67" y="163.2"/>
    </g>
    <g clip-path="url(#p7ff5b81e1d)">
     <use x="262.133333333" xlink:href="#C0_4_19681e42d9" y="163.2"/>
    </g>
    <g clip-path="url(#p7ff5b81e1d)">
     <use x="262.133333333" xlink:href="#C0_5_f5327b7319" y="144.0"/>
    </g>
    <g clip-path="url(#p7ff5b81e1d)">
     <use x="179.466666667" xlink:href="#C0_6_020e3dfb49" y="144.0"/>
    </g>
    <g clip-path="url(#p7ff5b81e1d)">
     <use x="179.466666667" xlink:href="#C0_7_dce6e194d9" y="163.2"/>
    </g>
    <g clip-path="url(#p7ff5b81e1d)">
     <use x="245.6" xlink:href="#C0_8_87fc198369" y="163.2"/>
    </g>
    <g clip-path="url(#p7ff5b81e1d)">
     <use x="245.6" xlink:href="#C0_9_030ca19c09" y="124.8"/>
    </g>
    <g clip-path="url(#p7ff5b81e1d)">
     <use x="212.533333333" xlink:href="#C0_a_d9677e379e" y="124.8"/>
    </g>
    <g clip-path="url(#p7ff5b81e1d)">
     <use x="212.533333333" xlink:href="#C0_b_be9f5c9d67" y="134.4"/>
    </g>
    <g clip-path="url(#p7ff5b81e1d)">
     <use x="229.066666667" xlink:href="#C0_c_eb0605d780" y="134.4"/>
    </g>
    <g clip-path="url(#p7ff5b81e1d)">
     <use x="229.066666667" xlink:href="#C0_d_030ca19c09" y="105.6"/>
    </g>
    <g clip-path="url(#p7ff5b81e1d)">
     <use x="196.0" xlink:href="#C0_e_c2ab4db44d" y="105.6"/>
    </g>
    <g clip-path="url(#p7ff5b81e1d)">
     <use x="196.0" xlink:href="#C0_f_be9f5c9d67" y="134.4"/>
    </g>
    <g clip-path="url(#p7ff5b81e1d)">
     <use x="212.533333333" xlink:href="#C0_10_bc051a4f24" y="134.4"/>
    </g>
    <g clip-path="url(#p7ff5b81e1d)">
     <use x="212.533333333" xlink:href="#C0_11_030ca19c09" y="124.8"/>
    </g>
    <g clip-path="url(#p7ff5b81e1d)">
     <use x="179.466666667" xlink:href="#C0_12_020e3dfb49" y="124.8"/>
    </g>
    <g clip-path="url(#p7ff5b81e1d)">
     <use x="179.466666667" xlink:href="#C0_13_79eff79d7e" y="144.0"/>
    </g>
    <g clip-path="url(#p7ff5b81e1d)">
     <use x="262.133333333" xlink:href="#C0_14_eb0605d780" y="144.0"/>
    </g>
    <g clip-path="url(#p7ff5b81e1d)">
     <use x="262.133333333" xlink:href="#C0_15_d353a7d079" y="115.2"/>
    </g>
    <g clip-path="url(#p7ff5b81e1d)">
     <use x="212.533333333" xlink:href="#C0_16_d9677e379e" y="115.2"/>
    </g>
    <g clip-path="url(#p7ff5b81e1d)">
     <use x="212.533333333" xlink:href="#C0_17_7482c1f3bb" y="124.8"/>
    </g>
    <g clip-path="url(#p7ff5b81e1d)">
     <use x="245.6" xlink:href="#C0_18_eb0605d780" y="124.8"/>
    </g>
    <g clip-path="url(#p7ff5b81e1d)">
     <use x="245.6" xlink:href="#C0_19_d353a7d079" y="96.0"/>
    </g>
    <g clip-path="url(#p7ff5b81e1d)">
     <use x="196.0" xlink:href="#C0_1a_d9677e379e" y="96.0"/>
    </g>
    <g clip-path="url(#p7ff5b81e1d)">
     <use x="196.0" xlink:href="#C0_1b_7482c1f3bb" y="105.6"/>
    </g>
    <g clip-path="url(#p7ff5b81e1d)">
     <use x="229.066666667" xlink:href="#C0_1c_a7c3e8faea" y="105.6"/>
    </g>
    <g clip-path="url(#p7ff5b81e1d)">
     <use x="229.066666667" xlink:href="#C0_1d_f4c0c098f1" y="57.6"/>
    </g>
    <g clip-path="url(#p7ff5b81e1d)">
     <use x="129.866666667" xlink:href="#C0_1e_d9677e379e" y="57.6"/>
    </g>
    <g clip-path="url(#p7ff5b81e1d)">
     <use x="129.866666667" xlink:href="#C0_1f_7482c1f3bb" y="67.2"/>
    </g>
    <g clip-path="url(#p7ff5b81e1d)">
     <use x="162.933333333" xlink:href="#C0_20_19681e42d9" y="67.2"/>
    </g>
    <g clip-path="url(#p7ff5b81e1d)">
     <use x="162.933333333" xlink:href="#C0_21_0a00dab107" y="48.0"/>
    </g>
    <g clip-path="url(#p7ff5b81e1d)">
     <use x="146.4" xlink:href="#C0_22_f53191241d" y="48.0"/>
    </g>
    <g clip-path="url(#p7ff5b81e1d)">
     <use x="146.4" xlink:href="#C0_23_1f65689608" y="105.6"/>
    </g>
    <g clip-path="url(#p7ff5b81e1d)">
     <use x="196.0" xlink:href="#C0_24_bc051a4f24" y="105.6"/>
    </g>
    <g clip-path="url(#p7ff5b81e1d)">
     <use x="196.0" xlink:href="#C0_25_0a00dab107" y="96.0"/>
    </g>
    <g clip-path="url(#p7ff5b81e1d)">
     <use x="179.466666667" xlink:href="#C0_26_c2ab4db44d" y="96.0"/>
    </g>
    <g clip-path="url(#p7ff5b81e1d)">
     <use x="179.466666667" xlink:href="#C0_27_7482c1f3bb" y="124.8"/>
    </g>
    <g clip-path="url(#p7ff5b81e1d)">
     <use x="212.533333333" xlink:href="#C0_28_bc051a4f24" y="124.8"/>
    </g>
    <g clip-path="url(#p7ff5b81e1d)">
     <use x="212.533333333" xlink:href="#C0_29_6adeb51c53" y="115.2"/>
    </g>
    <g clip-path="url(#p7ff5b81e1d)">
     <use x="80.2666666667" xlink:href="#C0_2a_65327df009" y="115.2"/>
    </g>
    <g clip-path="url(#p7ff5b81e1d)">
     <use x="80.2666666667" xlink:href="#C0_2b_1f65689608" y="163.2"/>
    </g>
    <g clip-path="url(#p7ff5b81e1d)">
     <use x="129.866666667" xlink:href="#C0_2c_bc051a4f24" y="163.2"/>
    </g>
    <g clip-path="url(#p7ff5b81e1d)">
     <use x="129.866666667" xlink:href="#C0_2d_0a00dab107" y="153.6"/>
    </g>
    <g clip-path="url(#p7ff5b81e1d)">
     <use x="113.333333333" xlink:href="#C0_2e_7204a05e65" y="153.6"/>
    </g>
    <g clip-path="url(#p7ff5b81e1d)">
     <use x="113.333333333" xlink:href="#C0_2f_7482c1f3bb" y="192.0"/>
    </g>
    <g clip-path="url(#p7ff5b81e1d)">
     <use x="146.4" xlink:href="#C0_30_bc051a4f24" y="192.0"/>
    </g>
    <g clip-path="url(#p7ff5b81e1d)">
     <use x="146.4" xlink:href="#C0_31_0a00dab107" y="182.4"/>
    </g>
    <g clip-path="url(#p7ff5b81e1d)">
     <use x="129.866666667" xlink:href="#C0_32_020e3dfb49" y="182.4"/>
    </g>
    <g clip-path="url(#p7ff5b81e1d)">
     <use x="129.866666667" xlink:href="#C0_33_79eff79d7e" y="201.6"/>
    </g>
    <g clip-path="url(#p7ff5b81e1d)">
     <use x="212.533333333" xlink:href="#C0_34_19681e42d9" y="201.6"/>
    </g>
    <g clip-path="url(#p7ff5b81e1d)">
     <use x="212.533333333" xlink:href="#C0_35_0a00dab107" y="182.4"/>
    </g>
    <g clip-path="url(#p7ff5b81e1d)">
     <use x="196.0" xlink:href="#C0_36_0844488a67" y="182.4"/>
    </g>
    <g clip-path="url(#p7ff5b81e1d)">
     <use x="196.0" xlink:href="#C0_37_be9f5c9d67" y="249.6"/>
    </g>
    <g clip-path="url(#p7ff5b81e1d)">
     <use x="212.533333333" xlink:href="#C0_38_19681e42d9" y="249.6"/>
    </g>
    <g clip-path="url(#p7ff5b81e1d)">
     <use x="212.533333333" xlink:href="#C0_39_f5327b7319" y="230.4"/>
    </g>
    <g clip-path="url(#p7ff5b81e1d)">
     <use x="129.866666667" xlink:href="#C0_3a_020e3dfb49" y="230.4"/>
    </g>
    <g clip-path="url(#p7ff5b81e1d)">
     <use x="129.866666667" xlink:href="#C0_3b_be9f5c9d67" y="249.6"/>
    </g>
    <g clip-path="url(#p7ff5b81e1d)">
     <use x="146.4" xlink:href="#C0_3c_bc051a4f24" y="249.6"/>
    </g>
    <g clip-path="url(#p7ff5b81e1d)">
     <use x="146.4" xlink:href="#C0_3d_030ca19c09" y="240.0"/>
    </g>
    <g clip-path="url(#p7ff5b81e1d)">
     <use x="113.333333333" xlink:href="#C0_3e_7204a05e65" y="240.0"/>
    </g>
    <g clip-path="url(#p7ff5b81e1d)">
     <use x="113.333333333" xlink:href="#C0_3f_be9f5c9d67" y="278.4"/>
    </g>
    <g clip-path="url(#p7ff5b81e1d)">
     <use x="129.866666667" xlink:href="#C0_40_bc051a4f24" y="278.4"/>
    </g>
    <g clip-path="url(#p7ff5b81e1d)">
     <use x="129.866666667" xlink:href="#C0_41_d353a7d079" y="268.8"/>
    </g>
    <g clip-path="url(#p7ff5b81e1d)">
     <use x="80.2666666667" xlink:href="#C0_42_65327df009" y="268.8"/>
    </g>
    <g clip-path="url(#p7ff5b81e1d)">
     <use x="80.2666666667" xlink:href="#C0_43_e6b53e82fa" y="316.8"/>
    </g>
    <g clip-path="url(#p7ff5b81e1d)">
     <use x="212.533333333" xlink:href="#C0_44_bc051a4f24" y="316.8"/>
    </g>
    <g clip-path="url(#p7ff5b81e1d)">
     <use x="212.533333333" xlink:href="#C0_45_030ca19c09" y="307.2"/>
    </g>
    <g clip-path="url(#p7ff5b81e1d)">
     <use x="179.466666667" xlink:href="#C0_46_c2ab4db44d" y="307.2"/>
    </g>
    <g clip-path="url(#p7ff5b81e1d)">
     <use x="179.466666667" xlink:href="#C0_47_be9f5c9d67" y="336.0"/>
    </g>
    <g clip-path="url(#p7ff5b81e1d)">
     <use x="196.0" xlink:href="#C0_48_bc051a4f24" y="336.0"/>
    </g>
    <g clip-path="url(#p7ff5b81e1d)">
     <use x="196.0" xlink:href="#C0_49_d353a7d079" y="326.4"/>
    </g>
    <g clip-path="url(#p7ff5b81e1d)">
     <use x="146.4" xlink:href="#C0_4a_f53191241d" y="326.4"/>
    </g>
    <g clip-path="url(#p7ff5b81e1d)">
     <use x="146.4" xlink:href="#C0_4b_be9f5c9d67" y="384.0"/>
    </g>
    <g clip-path="url(#p7ff5b81e1d)">
     <use x="162.933333333" xlink:href="#C0_4c_19681e42d9" y="384.0"/>
    </g>
    <g clip-path="url(#p7ff5b81e1d)">
     <use x="162.933333333" xlink:href="#C0_4d_030ca19c09" y="364.8"/>
    </g>
    <g clip-path="url(#p7ff5b81e1d)">
     <use x="129.866666667" xlink:href="#C0_4e_d9677e379e" y="364.8"/>
    </g>
    <g clip-path="url(#p7ff5b81e1d)">
     <use x="129.866666667" xlink:href="#C0_4f_47c8698e4f" y="374.4"/>
    </g>
    <g clip-path="url(#p7ff5b81e1d)">
     <use x="229.066666667" xlink:href="#C0_50_a7c3e8faea" y="374.4"/>
    </g>
    <g clip-path="url(#p7ff5b81e1d)">
     <use x="229.066666667" xlink:href="#C0_51_030ca19c09" y="326.4"/>
    </g>
    <g clip-path="url(#p7ff5b81e1d)">
     <use x="196.0" xlink:href="#C0_52_d9677e379e" y="326.4"/>
    </g>
    <g clip-path="url(#p7ff5b81e1d)">
     <use x="196.0" xlink:href="#C0_53_1f65689608" y="336.0"/>
    </g>
    <g clip-path="url(#p7ff5b81e1d)">
     <use x="245.6" xlink:href="#C0_54_eb0605d780" y="336.0"/>
    </g>
    <g clip-path="url(#p7ff5b81e1d)">
     <use x="245.6" xlink:href="#C0_55_030ca19c09" y="307.2"/>
    </g>
    <g clip-path="url(#p7ff5b81e1d)">
     <use x="212.533333333" xlink:href="#C0_56_d9677e379e" y="307.2"/>
    </g>
    <g clip-path="url(#p7ff5b81e1d)">
     <use x="212.533333333" xlink:href="#C0_57_1f65689608" y="316.8"/>
    </g>
    <g clip-path="url(#p7ff5b81e1d)">
     <use x="262.133333333" xlink:href="#C0_58_eb0605d780" y="316.8"/>
    </g>
    <g clip-path="url(#p7ff5b81e1d)">
     <use x="262.133333333" xlink:href="#C0_59_f5327b7319" y="288.0"/>
    </g>
    <g clip-path="url(#p7ff5b81e1d)">
     <use x="179.466666667" xlink:href="#C0_5a_020e3dfb49" y="288.0"/>
    </g>
    <g clip-path="url(#p7ff5b81e1d)">
     <use x="179.466666667" xlink:href="#C0_5b_7482c1f3bb" y="307.2"/>
    </g>
    <g clip-path="url(#p7ff5b81e1d)">
     <use x="212.533333333" xlink:href="#C0_5c_bc051a4f24" y="307.2"/>
    </g>
    <g clip-path="url(#p7ff5b81e1d)">
     <use x="212.533333333" xlink:href="#C0_5d_0a00dab107" y="297.6"/>
    </g>
    <g clip-path="url(#p7ff5b81e1d)">
     <use x="196.0" xlink:href="#C0_5e_c2ab4db44d" y="297.6"/>
    </g>
    <g clip-path="url(#p7ff5b81e1d)">
     <use x="196.0" xlink:href="#C0_5f_7482c1f3bb" y="326.4"/>
    </g>
    <g clip-path="url(#p7ff5b81e1d)">
     <use x="229.066666667" xlink:href="#C0_60_eb0605d780" y="326.4"/>
    </g>
    <g clip-path="url(#p7ff5b81e1d)">
     <use x="229.066666667" xlink:href="#C0_61_0a00dab107" y="297.6"/>
    </g>
    <g clip-path="url(#p7ff5b81e1d)">
     <use x="212.533333333" xlink:href="#C0_62_d9677e379e" y="297.6"/>
    </g>
    <g clip-path="url(#p7ff5b81e1d)">
     <use x="212.533333333" xlink:href="#C0_63_7482c1f3bb" y="307.2"/>
    </g>
    <g clip-path="url(#p7ff5b81e1d)">
     <use x="245.6" xlink:href="#C0_64_87fc198369" y="307.2"/>
    </g>
    <g clip-path="url(#p7ff5b81e1d)">
     <use x="245.6" xlink:href="#C0_65_ca9f18a244" y="268.8"/>
    </g>
    <g clip-path="url(#p7ff5b81e1d)">
     <use x="179.466666667" xlink:href="#C0_66_020e3dfb49" y="268.8"/>
    </g>
    <g clip-path="url(#p7ff5b81e1d)">
     <use x="179.466666667" xlink:href="#C0_67_79eff79d7e" y="288.0"/>
    </g>
    <g clip-path="url(#p7ff5b81e1d)">
     <use x="262.133333333" xlink:href="#C0_68_19681e42d9" y="288.0"/>
    </g>
    <g clip-path="url(#p7ff5b81e1d)">
     <use x="262.133333333" xlink:href="#C0_69_0a00dab107" y="268.8"/>
    </g>
    <g clip-path="url(#p7ff5b81e1d)">
     <use x="245.6" xlink:href="#C0_6a_7204a05e65" y="268.8"/>
    </g>
    <g clip-path="url(#p7ff5b81e1d)">
     <use x="245.6" xlink:href="#C0_6b_1f65689608" y="307.2"/>
    </g>
    <g clip-path="url(#p7ff5b81e1d)">
     <use x="295.2" xlink:href="#C0_6c_87fc198369" y="307.2"/>
    </g>
    <g clip-path="url(#p7ff5b81e1d)">
     <use x="295.2" xlink:href="#C0_6d_030ca19c09" y="268.8"/>
    </g>
    <g clip-path="url(#p7ff5b81e1d)">
     <use x="262.133333333" xlink:href="#C0_6e_020e3dfb49" y="268.8"/>
    </g>
    <g clip-path="url(#p7ff5b81e1d)">
     <use x="262.133333333" xlink:href="#C0_6f_be9f5c9d67" y="288.0"/>
    </g>
    <g clip-path="url(#p7ff5b81e1d)">
     <use x="278.666666667" xlink:href="#C0_70_bc051a4f24" y="288.0"/>
    </g>
    <g clip-path="url(#p7ff5b81e1d)">
     <use x="278.666666667" xlink:href="#C0_71_d353a7d079" y="278.4"/>
    </g>
    <g clip-path="url(#p7ff5b81e1d)">
     <use x="229.066666667" xlink:href="#C0_72_020e3dfb49" y="278.4"/>
    </g>
    <g clip-path="url(#p7ff5b81e1d)">
     <use x="229.066666667" xlink:href="#C0_73_1f65689608" y="297.6"/>
    </g>
    <g clip-path="url(#p7ff5b81e1d)">
     <use x="278.666666667" xlink:href="#C0_74_bc051a4f24" y="297.6"/>
    </g>
    <g clip-path="url(#p7ff5b81e1d)">
     <use x="278.666666667" xlink:href="#C0_75_0a00dab107" y="288.0"/>
    </g>
    <g clip-path="url(#p7ff5b81e1d)">
     <use x="262.133333333" xlink:href="#C0_76_c2ab4db44d" y="288.0"/>
    </g>
    <g clip-path="url(#p7ff5b81e1d)">
     <use x="262.133333333" xlink:href="#C0_77_dce6e194d9" y="316.8"/>
    </g>
    <g clip-path="url(#p7ff5b81e1d)">
     <use x="328.266666667" xlink:href="#C0_78_eb0605d780" y="316.8"/>
    </g>
    <g clip-path="url(#p7ff5b81e1d)">
     <use x="328.266666667" xlink:href="#C0_79_0a00dab107" y="288.0"/>
    </g>
    <g clip-path="url(#p7ff5b81e1d)">
     <use x="311.733333333" xlink:href="#C0_7a_d9677e379e" y="288.0"/>
    </g>
    <g clip-path="url(#p7ff5b81e1d)">
     <use x="311.733333333" xlink:href="#C0_7b_1f65689608" y="297.6"/>
    </g>
    <g clip-path="url(#p7ff5b81e1d)">
     <use x="361.333333333" xlink:href="#C0_7c_19681e42d9" y="297.6"/>
    </g>
    <g clip-path="url(#p7ff5b81e1d)">
     <use x="361.333333333" xlink:href="#C0_7d_d353a7d079" y="278.4"/>
    </g>
    <g clip-path="url(#p7ff5b81e1d)">
     <use x="311.733333333" xlink:href="#C0_7e_d9677e379e" y="278.4"/>
    </g>
    <g clip-path="url(#p7ff5b81e1d)">
     <use x="311.733333333" xlink:href="#C0_7f_be9f5c9d67" y="288.0"/>
    </g>
    <g clip-path="url(#p7ff5b81e1d)">
     <use x="328.266666667" xlink:href="#C0_80_19681e42d9" y="288.0"/>
    </g>
    <g clip-path="url(#p7ff5b81e1d)">
     <use x="328.266666667" xlink:href="#C0_81_030ca19c09" y="268.8"/>
    </g>
    <g clip-path="url(#p7ff5b81e1d)">
     <use x="295.2" xlink:href="#C0_82_7204a05e65" y="268.8"/>
    </g>
    <g clip-path="url(#p7ff5b81e1d)">
     <use x="295.2" xlink:href="#C0_83_1f65689608" y="307.2"/>
    </g>
    <g clip-path="url(#p7ff5b81e1d)">
     <use x="344.8" xlink:href="#C0_84_87fc198369" y="307.2"/>
    </g>
    <g clip-path="url(#p7ff5b81e1d)">
     <use x="344.8" xlink:href="#C0_85_0a00dab107" y="268.8"/>
    </g>
    <g clip-path="url(#p7ff5b81e1d)">
     <use x="328.266666667" xlink:href="#C0_86_020e3dfb49" y="268.8"/>
    </g>
    <g clip-path="url(#p7ff5b81e1d)">
     <use x="328.266666667" xlink:href="#C0_87_79eff79d7e" y="288.0"/>
    </g>
    <g clip-path="url(#p7ff5b81e1d)">
     <use x="410.933333333" xlink:href="#C0_88_19681e42d9" y="288.0"/>
    </g>
    <g clip-path="url(#p7ff5b81e1d)">
     <use x="410.933333333" xlink:href="#C0_89_ca9f18a244" y="268.8"/>
    </g>
    <g clip-path="url(#p7ff5b81e1d)">
     <use x="344.8" xlink:href="#C0_8a_7204a05e65" y="268.8"/>
    </g>
    <g clip-path="url(#p7ff5b81e1d)">
     <use x="344.8" xlink:href="#C0_8b_7482c1f3bb" y="307.2"/>
    </g>
    <g clip-path="url(#p7ff5b81e1d)">
     <use x="377.866666667" xlink:href="#C0_8c_bc051a4f24" y="307.2"/>
    </g>
    <g clip-path="url(#p7ff5b81e1d)">
     <use x="377.866666667" xlink:href="#C0_8d_0a00dab107" y="297.6"/>
    </g>
    <g clip-path="url(#p7ff5b81e1d)">
     <use x="361.333333333" xlink:href="#C0_8e_c2ab4db44d" y="297.6"/>
    </g>
    <g clip-path="url(#p7ff5b81e1d)">
     <use x="361.333333333" xlink:href="#C0_8f_7482c1f3bb" y="326.4"/>
    </g>
    <g clip-path="url(#p7ff5b81e1d)">
     <use x="394.4" xlink:href="#C0_90_eb0605d780" y="326.4"/>
    </g>
    <g clip-path="url(#p7ff5b81e1d)">
     <use x="394.4" xlink:href="#C0_91_0a00dab107" y="297.6"/>
    </g>
    <g clip-path="url(#p7ff5b81e1d)">
     <use x="377.866666667" xlink:href="#C0_92_d9677e379e" y="297.6"/>
    </g>
    <g clip-path="url(#p7ff5b81e1d)">
     <use x="377.866666667" xlink:href="#C0_93_7482c1f3bb" y="307.2"/>
    </g>
    <g clip-path="url(#p7ff5b81e1d)">
     <use x="410.933333333" xlink:href="#C0_94_19681e42d9" y="307.2"/>
    </g>
    <g clip-path="url(#p7ff5b81e1d)">
     <use x="410.933333333" xlink:href="#C0_95_f5327b7319" y="288.0"/>
    </g>
    <g clip-path="url(#p7ff5b81e1d)">
     <use x="328.266666667" xlink:href="#C0_96_c2ab4db44d" y="288.0"/>
    </g>
    <g clip-path="url(#p7ff5b81e1d)">
     <use x="328.266666667" xlink:href="#C0_97_1f65689608" y="316.8"/>
    </g>
    <g clip-path="url(#p7ff5b81e1d)">
     <use x="377.866666667" xlink:href="#C0_98_bc051a4f24" y="316.8"/>
    </g>
    <g clip-path="url(#p7ff5b81e1d)">
     <use x="377.866666667" xlink:href="#C0_99_030ca19c09" y="307.2"/>
    </g>
    <g clip-path="url(#p7ff5b81e1d)">
     <use x="344.8" xlink:href="#C0_9a_c2ab4db44d" y="307.2"/>
    </g>
    <g clip-path="url(#p7ff5b81e1d)">
     <use x="344.8" xlink:href="#C0_9b_1f65689608" y="336.0"/>
    </g>
    <g clip-path="url(#p7ff5b81e1d)">
     <use x="394.4" xlink:href="#C0_9c_bc051a4f24" y="336.0"/>
    </g>
    <g clip-path="url(#p7ff5b81e1d)">
     <use x="394.4" xlink:href="#C0_9d_030ca19c09" y="326.4"/>
    </g>
    <g clip-path="url(#p7ff5b81e1d)">
     <use x="361.333333333" xlink:href="#C0_9e_65327df009" y="326.4"/>
    </g>
    <g clip-path="url(#p7ff5b81e1d)">
     <use x="361.333333333" xlink:href="#C0_9f_47c8698e4f" y="374.4"/>
    </g>
    <g clip-path="url(#p7ff5b81e1d)">
     <use x="460.533333333" xlink:href="#C0_a0_bc051a4f24" y="374.4"/>
    </g>
    <g clip-path="url(#p7ff5b81e1d)">
     <use x="460.533333333" xlink:href="#C0_a1_030ca19c09" y="364.8"/>
    </g>
    <g clip-path="url(#p7ff5b81e1d)">
     <use x="427.466666667" xlink:href="#C0_a2_020e3dfb49" y="364.8"/>
    </g>
    <g clip-path="url(#p7ff5b81e1d)">
     <use x="427.466666667" xlink:href="#C0_a3_be9f5c9d67" y="384.0"/>
    </g>
    <g clip-path="url(#p7ff5b81e1d)">
     <use x="444.0" xlink:href="#C0_a4_29bc26b568" y="384.0"/>
    </g>
    <g clip-path="url(#p7ff5b81e1d)">
     <use x="444.0" xlink:href="#C0_a5_d353a7d079" y="326.4"/>
    </g>
    <g clip-path="url(#p7ff5b81e1d)">
     <use x="394.4" xlink:href="#C0_a6_d9677e379e" y="326.4"/>
    </g>
    <g clip-path="url(#p7ff5b81e1d)">
     <use x="394.4" xlink:href="#C0_a7_be9f5c9d67" y="336.0"/>
    </g>
    <g clip-path="url(#p7ff5b81e1d)">
     <use x="410.933333333" xlink:href="#C0_a8_eb0605d780" y="336.0"/>
    </g>
    <g clip-path="url(#p7ff5b81e1d)">
     <use x="410.933333333" xlink:href="#C0_a9_030ca19c09" y="307.2"/>
    </g>
    <g clip-path="url(#p7ff5b81e1d)">
     <use x="377.866666667" xlink:href="#C0_aa_d9677e379e" y="307.2"/>
    </g>
    <g clip-path="url(#p7ff5b81e1d)">
     <use x="377.866666667" xlink:href="#C0_ab_e6b53e82fa" y="316.8"/>
    </g>
    <g clip-path="url(#p7ff5b81e1d)">
     <use x="510.133333333" xlink:href="#C0_ac_a7c3e8faea" y="316.8"/>
    </g>
    <g clip-path="url(#p7ff5b81e1d)">
     <use x="510.133333333" xlink:href="#C0_ad_d353a7d079" y="268.8"/>
    </g>
    <g clip-path="url(#p7ff5b81e1d)">
     <use x="460.533333333" xlink:href="#C0_ae_d9677e379e" y="268.8"/>
    </g>
    <g clip-path="url(#p7ff5b81e1d)">
     <use x="460.533333333" xlink:href="#C0_af_be9f5c9d67" y="278.4"/>
    </g>
    <g clip-path="url(#p7ff5b81e1d)">
     <use x="477.066666667" xlink:href="#C0_b0_87fc198369" y="278.4"/>
    </g>
    <g clip-path="url(#p7ff5b81e1d)">
     <use x="477.066666667" xlink:href="#C0_b1_030ca19c09" y="240.0"/>
    </g>
    <g clip-path="url(#p7ff5b81e1d)">
     <use x="444.0" xlink:href="#C0_b2_d9677e379e" y="240.0"/>
    </g>
    <g clip-path="url(#p7ff5b81e1d)">
     <use x="444.0" xlink:href="#C0_b3_be9f5c9d67" y="249.6"/>
    </g>
    <g clip-path="url(#p7ff5b81e1d)">
     <use x="460.533333333" xlink:href="#C0_b4_19681e42d9" y="249.6"/>
    </g>
    <g clip-path="url(#p7ff5b81e1d)">
     <use x="460.533333333" xlink:href="#C0_b5_f5327b7319" y="230.4"/>
    </g>
    <g clip-path="url(#p7ff5b81e1d)">
     <use x="377.866666667" xlink:href="#C0_b6_020e3dfb49" y="230.4"/>
    </g>
    <g clip-path="url(#p7ff5b81e1d)">
     <use x="377.866666667" xlink:href="#C0_b7_be9f5c9d67" y="249.6"/>
    </g>
    <g clip-path="url(#p7ff5b81e1d)">
     <use x="394.4" xlink:href="#C0_b8_24e3de6fbe" y="249.6"/>
    </g>
    <g clip-path="url(#p7ff5b81e1d)">
     <use x="394.4" xlink:href="#C0_b9_0a00dab107" y="182.4"/>
    </g>
    <g clip-path="url(#p7ff5b81e1d)">
     <use x="377.866666667" xlink:href="#C0_ba_020e3dfb49" y="182.4"/>
    </g>
    <g clip-path="url(#p7ff5b81e1d)">
     <use x="377.866666667" xlink:href="#C0_bb_79eff79d7e" y="201.6"/>
    </g>
    <g clip-path="url(#p7ff5b81e1d)">
     <use x="460.533333333" xlink:href="#C0_bc_19681e42d9" y="201.6"/>
    </g>
    <g clip-path="url(#p7ff5b81e1d)">
     <use x="460.533333333" xlink:href="#C0_bd_0a00dab107" y="182.4"/>
    </g>
    <g clip-path="url(#p7ff5b81e1d)">
     <use x="444.0" xlink:href="#C0_be_d9677e379e" y="182.4"/>
    </g>
    <g clip-path="url(#p7ff5b81e1d)">
     <use x="444.0" xlink:href="#C0_bf_7482c1f3bb" y="192.0"/>
    </g>
    <g clip-path="url(#p7ff5b81e1d)">
     <use x="477.066666667" xlink:href="#C0_c0_87fc198369" y="192.0"/>
    </g>
    <g clip-path="url(#p7ff5b81e1d)">
     <use x="477.066666667" xlink:href="#C0_c1_0a00dab107" y="153.6"/>
    </g>
    <g clip-path="url(#p7ff5b81e1d)">
     <use x="460.533333333" xlink:href="#C0_c2_d9677e379e" y="153.6"/>
    </g>
    <g clip-path="url(#p7ff5b81e1d)">
     <use x="460.533333333" xlink:href="#C0_c3_1f65689608" y="163.2"/>
    </g>
    <g clip-path="url(#p7ff5b81e1d)">
     <use x="510.133333333" xlink:href="#C0_c4_a7c3e8faea" y="163.2"/>
    </g>
    <g clip-path="url(#p7ff5b81e1d)">
     <use x="510.133333333" xlink:href="#C0_c5_6adeb51c53" y="115.2"/>
    </g>
    <g clip-path="url(#p7ff5b81e1d)">
     <use x="377.866666667" xlink:href="#C0_c6_d9677e379e" y="115.2"/>
    </g>
    <g clip-path="url(#p7ff5b81e1d)">
     <use x="377.866666667" xlink:href="#C0_c7_7482c1f3bb" y="124.8"/>
    </g>
    <g clip-path="url(#p7ff5b81e1d)">
     <use x="410.933333333" xlink:href="#C0_c8_eb0605d780" y="124.8"/>
    </g>
    <g clip-path="url(#p7ff5b81e1d)">
     <use x="410.933333333" xlink:href="#C0_c9_0a00dab107" y="96.0"/>
    </g>
    <g clip-path="url(#p7ff5b81e1d)">
     <use x="394.4" xlink:href="#C0_ca_d9677e379e" y="96.0"/>
    </g>
    <g clip-path="url(#p7ff5b81e1d)">
     <use x="394.4" xlink:href="#C0_cb_1f65689608" y="105.6"/>
    </g>
    <g clip-path="url(#p7ff5b81e1d)">
     <use x="444.0" xlink:href="#C0_cc_29bc26b568" y="105.6"/>
    </g>
    <g clip-path="url(#p7ff5b81e1d)">
     <use x="444.0" xlink:href="#C0_cd_0a00dab107" y="48.0"/>
    </g>
    <g clip-path="url(#p7ff5b81e1d)">
     <use x="427.466666667" xlink:href="#C0_ce_020e3dfb49" y="48.0"/>
    </g>
    <g clip-path="url(#p7ff5b81e1d)">
     <use x="427.466666667" xlink:href="#C0_cf_7482c1f3bb" y="67.2"/>
    </g>
    <g clip-path="url(#p7ff5b81e1d)">
     <use x="460.533333333" xlink:href="#C0_d0_bc051a4f24" y="67.2"/>
    </g>
    <g clip-path="url(#p7ff5b81e1d)">
     <use x="460.533333333" xlink:href="#C0_d1_f4c0c098f1" y="57.6"/>
    </g>
    <g clip-path="url(#p7ff5b81e1d)">
     <use x="361.333333333" xlink:href="#C0_d2_65327df009" y="57.6"/>
    </g>
    <g clip-path="url(#p7ff5b81e1d)">
     <use x="361.333333333" xlink:href="#C0_d3_7482c1f3bb" y="105.6"/>
    </g>
    <g clip-path="url(#p7ff5b81e1d)">
     <use x="394.4" xlink:href="#C0_d4_bc051a4f24" y="105.6"/>
    </g>
    <g clip-path="url(#p7ff5b81e1d)">
     <use x="394.4" xlink:href="#C0_d5_d353a7d079" y="96.0"/>
    </g>
    <g clip-path="url(#p7ff5b81e1d)">
     <use x="344.8" xlink:href="#C0_d6_c2ab4db44d" y="96.0"/>
    </g>
    <g clip-path="url(#p7ff5b81e1d)">
     <use x="344.8" xlink:href="#C0_d7_7482c1f3bb" y="124.8"/>
    </g>
    <g clip-path="url(#p7ff5b81e1d)">
     <use x="377.866666667" xlink:href="#C0_d8_bc051a4f24" y="124.8"/>
    </g>
    <g clip-path="url(#p7ff5b81e1d)">
     <use x="377.866666667" xlink:href="#C0_d9_d353a7d079" y="115.2"/>
    </g>
    <g clip-path="url(#p7ff5b81e1d)">
     <use x="328.266666667" xlink:href="#C0_da_c2ab4db44d" y="115.2"/>
    </g>
    <g clip-path="url(#p7ff5b81e1d)">
     <use x="328.266666667" xlink:href="#C0_db_79eff79d7e" y="144.0"/>
    </g>
    <g clip-path="url(#p7ff5b81e1d)">
     <use x="410.933333333" xlink:href="#C0_dc_19681e42d9" y="144.0"/>
    </g>
    <g clip-path="url(#p7ff5b81e1d)">
     <use x="410.933333333" xlink:href="#C0_dd_030ca19c09" y="124.8"/>
    </g>
    <g clip-path="url(#p7ff5b81e1d)">
     <use x="377.866666667" xlink:href="#C0_de_d9677e379e" y="124.8"/>
    </g>
    <g clip-path="url(#p7ff5b81e1d)">
     <use x="377.866666667" xlink:href="#C0_df_be9f5c9d67" y="134.4"/>
    </g>
    <g clip-path="url(#p7ff5b81e1d)">
     <use x="394.4" xlink:href="#C0_e0_eb0605d780" y="134.4"/>
    </g>
    <g clip-path="url(#p7ff5b81e1d)">
     <use x="394.4" xlink:href="#C0_e1_030ca19c09" y="105.6"/>
    </g>
    <g clip-path="url(#p7ff5b81e1d)">
     <use x="361.333333333" xlink:href="#C0_e2_c2ab4db44d" y="105.6"/>
    </g>
    <g clip-path="url(#p7ff5b81e1d)">
     <use x="361.333333333" xlink:href="#C0_e3_be9f5c9d67" y="134.4"/>
    </g>
    <g clip-path="url(#p7ff5b81e1d)">
     <use x="377.866666667" xlink:href="#C0_e4_bc051a4f24" y="134.4"/>
    </g>
    <g clip-path="url(#p7ff5b81e1d)">
     <use x="377.866666667" xlink:href="#C0_e5_030ca19c09" y="124.8"/>
    </g>
    <g clip-path="url(#p7ff5b81e1d)">
     <use x="344.8" xlink:href="#C0_e6_7204a05e65" y="124.8"/>
    </g>
    <g clip-path="url(#p7ff5b81e1d)">
     <use x="344.8" xlink:href="#C0_e7_dce6e194d9" y="163.2"/>
    </g>
    <g clip-path="url(#p7ff5b81e1d)">
     <use x="410.933333333" xlink:href="#C0_e8_19681e42d9" y="163.2"/>
    </g>
    <g clip-path="url(#p7ff5b81e1d)">
     <use x="410.933333333" xlink:href="#C0_e9_f5327b7319" y="144.0"/>
    </g>
    <g clip-path="url(#p7ff5b81e1d)">
     <use x="328.266666667" xlink:href="#C0_ea_020e3dfb49" y="144.0"/>
    </g>
    <g clip-path="url(#p7ff5b81e1d)">
     <use x="328.266666667" xlink:href="#C0_eb_be9f5c9d67" y="163.2"/>
    </g>
    <g clip-path="url(#p7ff5b81e1d)">
     <use x="344.8" xlink:href="#C0_ec_87fc198369" y="163.2"/>
    </g>
    <g clip-path="url(#p7ff5b81e1d)">
     <use x="344.8" xlink:href="#C0_ed_d353a7d079" y="124.8"/>
    </g>
    <g clip-path="url(#p7ff5b81e1d)">
     <use x="295.2" xlink:href="#C0_ee_7204a05e65" y="124.8"/>
    </g>
    <g clip-path="url(#p7ff5b81e1d)">
     <use x="295.2" xlink:href="#C0_ef_7482c1f3bb" y="163.2"/>
    </g>
    <g clip-path="url(#p7ff5b81e1d)">
     <use x="328.266666667" xlink:href="#C0_f0_19681e42d9" y="163.2"/>
    </g>
    <g clip-path="url(#p7ff5b81e1d)">
     <use x="328.266666667" xlink:href="#C0_f1_0a00dab107" y="144.0"/>
    </g>
    <g clip-path="url(#p7ff5b81e1d)">
     <use x="311.733333333" xlink:href="#C0_f2_d9677e379e" y="144.0"/>
    </g>
    <g clip-path="url(#p7ff5b81e1d)">
     <use x="311.733333333" xlink:href="#C0_f3_1f65689608" y="153.6"/>
    </g>
    <g clip-path="url(#p7ff5b81e1d)">
     <use x="361.333333333" xlink:href="#C0_f4_19681e42d9" y="153.6"/>
    </g>
    <g clip-path="url(#p7ff5b81e1d)">
     <use x="361.333333333" xlink:href="#C0_f5_d353a7d079" y="134.4"/>
    </g>
    <g clip-path="url(#p7ff5b81e1d)">
     <use x="311.733333333" xlink:href="#C0_f6_d9677e379e" y="134.4"/>
    </g>
    <g clip-path="url(#p7ff5b81e1d)">
     <use x="311.733333333" xlink:href="#C0_f7_be9f5c9d67" y="144.0"/>
    </g>
    <g clip-path="url(#p7ff5b81e1d)">
     <use x="328.266666667" xlink:href="#C0_f8_eb0605d780" y="144.0"/>
    </g>
    <g clip-path="url(#p7ff5b81e1d)">
     <use x="328.266666667" xlink:href="#C0_f9_ca9f18a244" y="115.2"/>
    </g>
    <g clip-path="url(#p7ff5b81e1d)">
     <use x="262.133333333" xlink:href="#C0_fa_c2ab4db44d" y="115.2"/>
    </g>
    <g clip-path="url(#p7ff5b81e1d)">
     <use x="262.133333333" xlink:href="#C0_fb_be9f5c9d67" y="144.0"/>
    </g>
    <g clip-path="url(#p7ff5b81e1d)">
     <use x="278.666666667" xlink:href="#C0_fc_bc051a4f24" y="144.0"/>
    </g>
    <g clip-path="url(#p7ff5b81e1d)">
     <use x="278.666666667" xlink:href="#C0_fd_d353a7d079" y="134.4"/>
    </g>
    <g clip-path="url(#p7ff5b81e1d)">
     <use x="229.066666667" xlink:href="#C0_fe_020e3dfb49" y="134.4"/>
    </g>
    <g clip-path="url(#p7ff5b81e1d)">
     <use x="229.066666667" xlink:href="#C0_ff_1f65689608" y="153.6"/>
    </g>
    <g clip-path="url(#p7ff5b81e1d)">
     <use x="278.666666667" xlink:href="#C0_100_bc051a4f24" y="153.6"/>
    </g>
    <g clip-path="url(#p7ff5b81e1d)">
     <use x="278.666666667" xlink:href="#C0_101_0a00dab107" y="144.0"/>
    </g>
    <g clip-path="url(#p7ff5b81e1d)">
     <use x="262.133333333" xlink:href="#C0_102_020e3dfb49" y="144.0"/>
    </g>
    <g clip-path="url(#p7ff5b81e1d)">
     <use x="262.133333333" xlink:href="#C0_103_7482c1f3bb" y="163.2"/>
    </g>
   </g>
   <g id="matplotlib.axis_1">
    <g id="xtick_1">
     <g id="line2d_1">
      <defs>
       <path d="
M0 0
L0 -4" id="m93b0483c22" style="stroke:#000000;stroke-width:0.5;"/>
      </defs>
      <g>
       <use style="stroke:#000000;stroke-width:0.5;" x="129.866666667" xlink:href="#m93b0483c22" y="388.8"/>
      </g>
     </g>
     <g id="line2d_2">
      <defs>
       <path d="
M0 0
L0 4" id="m741efc42ff" style="stroke:#000000;stroke-width:0.5;"/>
      </defs>
      <g>
       <use style="stroke:#000000;stroke-width:0.5;" x="129.866666667" xlink:href="#m741efc42ff" y="43.2"/>
      </g>
     </g>
     <g id="text_1">
      <!-- 20 -->
      <defs>
       <path d="
M31.7812 66.4062
Q24.1719 66.4062 20.3281 58.9062
Q16.5 51.4219 16.5 36.375
Q16.5 21.3906 20.3281 13.8906
Q24.1719 6.39062 31.7812 6.39062
Q39.4531 6.39062 43.2812 13.8906
Q47.125 21.3906 47.125 36.375
Q47.125 51.4219 43.2812 58.9062
Q39.4531 66.4062 31.7812 66.4062
M31.7812 74.2188
Q44.0469 74.2188 50.5156 64.5156
Q56.9844 54.8281 56.9844 36.375
Q56.9844 17.9688 50.5156 8.26562
Q44.0469 -1.42188 31.7812 -1.42188
Q19.5312 -1.42188 13.0625 8.26562
Q6.59375 17.9688 6.59375 36.375
Q6.59375 54.8281 13.0625 64.5156
Q19.5312 74.2188 31.7812 74.2188" id="DejaVuSans-30"/>
       <path d="
M19.1875 8.29688
L53.6094 8.29688
L53.6094 0
L7.32812 0
L7.32812 8.29688
Q12.9375 14.1094 22.625 23.8906
Q32.3281 33.6875 34.8125 36.5312
Q39.5469 41.8438 41.4219 45.5312
Q43.3125 49.2188 43.3125 52.7812
Q43.3125 58.5938 39.2344 62.25
Q35.1562 65.9219 28.6094 65.9219
Q23.9688 65.9219 18.8125 64.3125
Q13.6719 62.7031 7.8125 59.4219
L7.8125 69.3906
Q13.7656 71.7812 18.9375 73
Q24.125 74.2188 28.4219 74.2188
Q39.75 74.2188 46.4844 68.5469
Q53.2188 62.8906 53.2188 53.4219
Q53.2188 48.9219 51.5312 44.8906
Q49.8594 40.875 45.4062 35.4062
Q44.1875 33.9844 37.6406 27.2188
Q31.1094 20.4531 19.1875 8.29688" id="DejaVuSans-32"/>
       <path d="
M10.5938 35.5
L73.1875 35.5
L73.1875 27.2031
L10.5938 27.2031
z
" id="DejaVuSans-2212"/>
      </defs>
      <g transform="translate(118.237916667 401.918125)scale(0.12 -0.12)">
       <use xlink:href="#DejaVuSans-2212"/>
       <use x="83.7890625" xlink:href="#DejaVuSans-32"/>
       <use x="147.412109375" xlink:href="#DejaVuSans-30"/>
      </g>
     </g>
    </g>
    <g id="xtick_2">
     <g id="line2d_3">
      <g>
       <use style="stroke:#000000;stroke-width:0.5;" x="212.533333333" xlink:href="#m93b0483c22" y="388.8"/>
      </g>
     </g>
     <g id="line2d_4">
      <g>
       <use style="stroke:#000000;stroke-width:0.5;" x="212.533333333" xlink:href="#m741efc42ff" y="43.2"/>
      </g>
     </g>
     <g id="text_2">
      <!-- 10 -->
      <defs>
       <path d="
M12.4062 8.29688
L28.5156 8.29688
L28.5156 63.9219
L10.9844 60.4062
L10.9844 69.3906
L28.4219 72.9062
L38.2812 72.9062
L38.2812 8.29688
L54.3906 8.29688
L54.3906 0
L12.4062 0
z
" id="DejaVuSans-31"/>
      </defs>
      <g transform="translate(200.904583333 401.918125)scale(0.12 -0.12)">
       <use xlink:href="#DejaVuSans-2212"/>
       <use x="83.7890625" xlink:href="#DejaVuSans-31"/>
       <use x="147.412109375" xlink:href="#DejaVuSans-30"/>
      </g>
     </g>
    </g>
    <g id="xtick_3">
     <g id="line2d_5">
      <g>
       <use style="stroke:#000000;stroke-width:0.5;" x="295.2" xlink:href="#m93b0483c22" y="388.8"/>
      </g>
     </g>
     <g id="line2d_6">
      <g>
       <use style="stroke:#000000;stroke-width:0.5;" x="295.2" xlink:href="#m741efc42ff" y="43.2"/>
      </g>
     </g>
     <g id="text_3">
      <!-- 0 -->
      <g transform="translate(292.1765625 401.918125)scale(0.12 -0.12)">
       <use xlink:href="#DejaVuSans-30"/>
      </g>
     </g>
    </g>
    <g id="xtick_4">
     <g id="line2d_7">
      <g>
       <use style="stroke:#000000;stroke-width:0.5;" x="377.866666667" xlink:href="#m93b0483c22" y="388.8"/>
      </g>
     </g>
     <g id="line2d_8">
      <g>
       <use style="stroke:#000000;stroke-width:0.5;" x="377.866666667" xlink:href="#m741efc42ff" y="43.2"/>
      </g>
     </g>
     <g id="text_4">
      <!-- 10 -->
      <g transform="translate(371.289166667 401.918125)scale(0.12 -0.12)">
       <use xlink:href="#DejaVuSans-31"/>
       <use x="63.623046875" xlink:href="#DejaVuSans-30"/>
      </g>
     </g>
    </g>
    <g id="xtick_5">
     <g id="line2d_9">
      <g>
       <use style="stroke:#000000;stroke-width:0.5;" x="460.533333333" xlink:href="#m93b0483c22" y="388.8"/>
      </g>
     </g>
     <g id="line2d_10">
      <g>
       <use style="stroke:#000000;stroke-width:0.5;" x="460.533333333" xlink:href="#m741efc42ff" y="43.2"/>
      </g>
     </g>
     <g id="text_5">
      <!-- 20 -->
      <g transform="translate(453.736458333 401.918125)scale(0.12 -0.12)">
       <use xlink:href="#DejaVuSans-32"/>
       <use x="63.623046875" xlink:href="#DejaVuSans-30"/>
      </g>
     </g>
    </g>
   </g>
   <g id="matplotlib.axis_2">
    <g id="ytick_1">
     <g id="line2d_11">
      <defs>
       <path d="
M0 0
L4 0" id="m728421d6d4" style="stroke:#000000;stroke-width:0.5;"/>
      </defs>
      <g>
       <use style="stroke:#000000;stroke-width:0.5;" x="72.0" xlink:href="#m728421d6d4" y="360.0"/>
      </g>
     </g>
     <g id="line2d_12">
      <defs>
       <path d="
M0 0
L-4 0" id="mcb0005524f" style="stroke:#000000;stroke-width:0.5;"/>
      </defs>
      <g>
       <use style="stroke:#000000;stroke-width:0.5;" x="518.4" xlink:href="#mcb0005524f" y="360.0"/>
      </g>
     </g>
     <g id="text_6">
      <!-- 30 -->
      <defs>
       <path d="
M40.5781 39.3125
Q47.6562 37.7969 51.625 33
Q55.6094 28.2188 55.6094 21.1875
Q55.6094 10.4062 48.1875 4.48438
Q40.7656 -1.42188 27.0938 -1.42188
Q22.5156 -1.42188 17.6562 -0.515625
Q12.7969 0.390625 7.625 2.20312
L7.625 11.7188
Q11.7188 9.32812 16.5938 8.10938
Q21.4844 6.89062 26.8125 6.89062
Q36.0781 6.89062 40.9375 10.5469
Q45.7969 14.2031 45.7969 21.1875
Q45.7969 27.6406 41.2812 31.2656
Q36.7656 34.9062 28.7188 34.9062
L20.2188 34.9062
L20.2188 43.0156
L29.1094 43.0156
Q36.375 43.0156 40.2344 45.9219
Q44.0938 48.8281 44.0938 54.2969
Q44.0938 59.9062 40.1094 62.9062
Q36.1406 65.9219 28.7188 65.9219
Q24.6562 65.9219 20.0156 65.0312
Q15.375 64.1562 9.8125 62.3125
L9.8125 71.0938
Q15.4375 72.6562 20.3438 73.4375
Q25.25 74.2188 29.5938 74.2188
Q40.8281 74.2188 47.3594 69.1094
Q53.9062 64.0156 53.9062 55.3281
Q53.9062 49.2656 50.4375 45.0938
Q46.9688 40.9219 40.5781 39.3125" id="DejaVuSans-33"/>
      </defs>
      <g transform="translate(44.7425 363.31125)scale(0.12 -0.12)">
       <use xlink:href="#DejaVuSans-2212"/>
       <use x="83.7890625" xlink:href="#DejaVuSans-33"/>
       <use x="147.412109375" xlink:href="#DejaVuSans-30"/>
      </g>
     </g>
    </g>
    <g id="ytick_2">
     <g id="line2d_13">
      <g>
       <use style="stroke:#000000;stroke-width:0.5;" x="72.0" xlink:href="#m728421d6d4" y="312.0"/>
      </g>
     </g>
     <g id="line2d_14">
      <g>
       <use style="stroke:#000000;stroke-width:0.5;" x="518.4" xlink:href="#mcb0005524f" y="312.0"/>
      </g>
     </g>
     <g id="text_7">
      <!-- 20 -->
      <g transform="translate(44.7425 315.31125)scale(0.12 -0.12)">
       <use xlink:href="#DejaVuSans-2212"/>
       <use x="83.7890625" xlink:href="#DejaVuSans-32"/>
       <use x="147.412109375" xlink:href="#DejaVuSans-30"/>
      </g>
     </g>
    </g>
    <g id="ytick_3">
     <g id="line2d_15">
      <g>
       <use style="stroke:#000000;stroke-width:0.5;" x="72.0" xlink:href="#m728421d6d4" y="264.0"/>
      </g>
     </g>
     <g id="line2d_16">
      <g>
       <use style="stroke:#000000;stroke-width:0.5;" x="518.4" xlink:href="#mcb0005524f" y="264.0"/>
      </g>
     </g>
     <g id="text_8">
      <!-- 10 -->
      <g transform="translate(44.7425 267.31125)scale(0.12 -0.12)">
       <use xlink:href="#DejaVuSans-2212"/>
       <use x="83.7890625" xlink:href="#DejaVuSans-31"/>
       <use x="147.412109375" xlink:href="#DejaVuSans-30"/>
      </g>
     </g>
    </g>
    <g id="ytick_4">
     <g id="line2d_17">
      <g>
       <use style="stroke:#000000;stroke-width:0.5;" x="72.0" xlink:href="#m728421d6d4" y="216.0"/>
      </g>
     </g>
     <g id="line2d_18">
      <g>
       <use style="stroke:#000000;stroke-width:0.5;" x="518.4" xlink:href="#mcb0005524f" y="216.0"/>
      </g>
     </g>
     <g id="text_9">
      <!-- 0 -->
      <g transform="translate(61.953125 219.31125)scale(0.12 -0.12)">
       <use xlink:href="#DejaVuSans-30"/>
      </g>
     </g>
    </g>
    <g id="ytick_5">
     <g id="line2d_19">
      <g>
       <use style="stroke:#000000;stroke-width:0.5;" x="72.0" xlink:href="#m728421d6d4" y="168.0"/>
      </g>
     </g>
     <g id="line2d_20">
      <g>
       <use style="stroke:#000000;stroke-width:0.5;" x="518.4" xlink:href="#mcb0005524f" y="168.0"/>
      </g>
     </g>
     <g id="text_10">
      <!-- 10 -->
      <g transform="translate(54.845 171.31125)scale(0.12 -0.12)">
       <use xlink:href="#DejaVuSans-31"/>
       <use x="63.623046875" xlink:href="#DejaVuSans-30"/>
      </g>
     </g>
    </g>
    <g id="ytick_6">
     <g id="line2d_21">
      <g>
       <use style="stroke:#000000;stroke-width:0.5;" x="72.0" xlink:href="#m728421d6d4" y="120.0"/>
      </g>
     </g>
     <g id="line2d_22">
      <g>
       <use style="stroke:#000000;stroke-width:0.5;" x="518.4" xlink:href="#mcb0005524f" y="120.0"/>
      </g>
     </g>
     <g id="text_11">
      <!-- 20 -->
      <g transform="translate(54.40625 123.31125)scale(0.12 -0.12)">
       <use xlink:href="#DejaVuSans-32"/>
       <use x="63.623046875" xlink:href="#DejaVuSans-30"/>
      </g>
     </g>
    </g>
    <g id="ytick_7">
     <g id="line2d_23">
      <g>
       <use style="stroke:#000000;stroke-width:0.5;" x="72.0" xlink:href="#m728421d6d4" y="72.0"/>
      </g>
     </g>
     <g id="line2d_24">
      <g>
       <use style="stroke:#000000;stroke-width:0.5;" x="518.4" xlink:href="#mcb0005524f" y="72.0"/>
      </g>
     </g>
     <g id="text_12">
      <!-- 30 -->
      <g transform="translate(54.441875 75.31125)scale(0.12 -0.12)">
       <use xlink:href="#DejaVuSans-33"/>
       <use x="63.623046875" xlink:href="#DejaVuSans-30"/>
      </g>
     </g>
    </g>
   </g>
   <g id="patch_3">
    <path d="
M72 43.2
L518.4 43.2" style="fill:none;stroke:#000000;"/>
   </g>
   <g id="patch_4">
    <path d="
M518.4 388.8
L518.4 43.2" style="fill:none;stroke:#000000;"/>
   </g>
   <g id="patch_5">
    <path d="
M72 388.8
L518.4 388.8" style="fill:none;stroke:#000000;"/>
   </g>
   <g id="patch_6">
    <path d="
M72 388.8
L72 43.2" style="fill:none;stroke:#000000;"/>
   </g>
  </g>
 </g>
 <defs>
  <clipPath id="p7ff5b81e1d">
   <rect height="345.6" width="446.4" x="72.0" y="43.2"/>
  </clipPath>
 </defs>
</svg>
