<?xml version="1.0" encoding="utf-8" standalone="no"?>
<!DOCTYPE svg PUBLIC "-//W3C//DTD SVG 1.1//EN"
  "http://www.w3.org/Graphics/SVG/1.1/DTD/svg11.dtd">
<!-- Created with matplotlib (http://matplotlib.org/) -->
<svg height="432pt" version="1.1" viewBox="0 0 576 432" width="576pt" xmlns="http://www.w3.org/2000/svg" xmlns:xlink="http://www.w3.org/1999/xlink">
 <defs>
  <style type="text/css">
*{stroke-linecap:butt;stroke-linejoin:round;}
  </style>
 </defs>
 <g id="figure_1">
  <g id="patch_1">
   <path d="
M0 432
L576 432
L576 0
L0 0
z
" style="fill:#ffffff;"/>
  </g>
  <g id="axes_1">
   <g id="patch_2">
    <path d="
M72 388.8
L518.4 388.8
L518.4 43.2
L72 43.2
z
" style="fill:#ffffff;"/>
   </g>
   <g id="Quiver_1">
    <defs>
     <path d="
M-0.8928 -5.46682e-17
L-0.8928 -78.3648
L-1.7856 -81.0432
L5.29047e-15 -86.4
L1.7856 -81.0432
L0.8928 -78.3648
L0.8928 5.46682e-17
L-0.8928 -5.46682e-17" id="C0_0_be53717e7a"/>
     <path d="
M-1.09336e-16 0.8928
L-103.565 0.8928
L-106.243 1.7856
L-111.6 -1.36671e-14
L-106.243 -1.7856
L-103.565 -0.8928
L1.09336e-16 -0.8928
L-1.09336e-16 0.8928" id="C0_1_0c12a3630c"/>
     <path d="
M0.8928 -5.46682e-17
L0.8928 35.1648
L1.7856 37.8432
L2.64524e-15 43.2
L-1.7856 37.8432
L-0.8928 35.1648
L-0.8928 5.46682e-17
L0.8928 -5.46682e-17" id="C0_2_92ec168647"/>
     <path d="
M0 -0.8928
L47.7648 -0.8928
L50.4432 -1.7856
L55.8 0
L50.4432 1.7856
L47.7648 0.8928
L0 0.8928
L0 -0.8928" id="C0_3_3718c72128"/>
     <path d="
M-0.8928 -5.46682e-17
L-0.8928 -78.3648
L-1.7856 -81.0432
L5.29047e-15 -86.4
L1.7856 -81.0432
L0.8928 -78.3648
L0.8928 5.46682e-17
L-0.8928 -5.46682e-17" id="C0_4_be53717e7a"/>
     <path d="
M-1.09336e-16 0.8928
L-103.565 0.8928
L-106.243 1.7856
L-111.6 -1.36671e-14
L-106.243 -1.7856
L-103.565 -0.8928
L1.09336e-16 -0.8928
L-1.09336e-16 0.8928" id="C0_5_0c12a3630c"/>
     <path d="
M0.8928 -5.46682e-17
L0.8928 251.165
L1.7856 253.843
L1.58714e-14 259.2
L-1.7856 253.843
L-0.8928 251.165
L-0.8928 5.46682e-17
L0.8928 -5.46682e-17" id="C0_6_b41cebf6e4"/>
     <path d="
M0 -0.8928
L103.565 -0.8928
L106.243 -1.7856
L111.6 0
L106.243 1.7856
L103.565 0.8928
L0 0.8928
L0 -0.8928" id="C0_7_636c605d31"/>
     <path d="
M-0.8928 -5.46682e-17
L-0.8928 -78.3648
L-1.7856 -81.0432
L5.29047e-15 -86.4
L1.7856 -81.0432
L0.8928 -78.3648
L0.8928 5.46682e-17
L-0.8928 -5.46682e-17" id="C0_8_be53717e7a"/>
     <path d="
M-1.09336e-16 0.8928
L-47.7648 0.8928
L-50.4432 1.7856
L-55.8 -6.83353e-15
L-50.4432 -1.7856
L-47.7648 -0.8928
L1.09336e-16 -0.8928
L-1.09336e-16 0.8928" id="C0_9_e7cc867a88"/>
     <path d="
M0.8928 -5.46682e-17
L0.8928 35.1648
L1.7856 37.8432
L2.64524e-15 43.2
L-1.7856 37.8432
L-0.8928 35.1648
L-0.8928 5.46682e-17
L0.8928 -5.46682e-17" id="C0_a_92ec168647"/>
     <path d="
M0 -0.8928
L103.565 -0.8928
L106.243 -1.7856
L111.6 0
L106.243 1.7856
L103.565 0.8928
L0 0.8928
L0 -0.8928" id="C0_b_636c605d31"/>
     <path d="
M-0.8928 -5.46682e-17
L-0.8928 -78.3648
L-1.7856 -81.0432
L5.29047e-15 -86.4
L1.7856 -81.0432
L0.8928 -78.3648
L0.8928 5.46682e-17
L-0.8928 -5.46682e-17" id="C0_c_be53717e7a"/>
     <path d="
M-1.09336e-16 0.8928
L-326.765 0.8928
L-329.443 1.7856
L-334.8 -4.10012e-14
L-329.443 -1.7856
L-326.765 -0.8928
L1.09336e-16 -0.8928
L-1.09336e-16 0.8928" id="C0_d_448296b59e"/>
     <path d="
M0.8928 -5.46682e-17
L0.8928 78.3648
L1.7856 81.0432
L5.29047e-15 86.4
L-1.7856 81.0432
L-0.8928 78.3648
L-0.8928 5.46682e-17
L0.8928 -5.46682e-17" id="C0_e_adfa0ce7a8"/>
     <path d="
M0 -0.8928
L103.565 -0.8928
L106.243 -1.7856
L111.6 0
L106.243 1.7856
L103.565 0.8928
L0 0.8928
L0 -0.8928" id="C0_f_636c605d31"/>
     <path d="
M-0.8928 -5.46682e-17
L-0.8928 -35.1648
L-1.7856 -37.8432
L2.64524e-15 -43.2
L1.7856 -37.8432
L0.8928 -35.1648
L0.8928 5.46682e-17
L-0.8928 -5.46682e-17" id="C0_10_c1adf5a754"/>
     <path d="
M-1.09336e-16 0.8928
L-47.7648 0.8928
L-50.4432 1.7856
L-55.8 -6.83353e-15
L-50.4432 -1.7856
L-47.7648 -0.8928
L1.09336e-16 -0.8928
L-1.09336e-16 0.8928" id="C0_11_e7cc867a88"/>
     <path d="
M0.8928 -5.46682e-17
L0.8928 78.3648
L1.7856 81.0432
L5.29047e-15 86.4
L-1.7856 81.0432
L-0.8928 78.3648
L-0.8928 5.46682e-17
L0.8928 -5.46682e-17" id="C0_12_adfa0ce7a8"/>
     <path d="
M0 -0.8928
L103.565 -0.8928
L106.243 -1.7856
L111.6 0
L106.243 1.7856
L103.565 0.8928
L0 0.8928
L0 -0.8928" id="C0_13_636c605d31"/>
     <path d="
M-0.8928 -5.46682e-17
L-0.8928 -251.165
L-1.7856 -253.843
L1.58714e-14 -259.2
L1.7856 -253.843
L0.8928 -251.165
L0.8928 5.46682e-17
L-0.8928 -5.46682e-17" id="C0_14_bcaf6510fb"/>
     <path d="
M-1.09336e-16 0.8928
L-103.565 0.8928
L-106.243 1.7856
L-111.6 -1.36671e-14
L-106.243 -1.7856
L-103.565 -0.8928
L1.09336e-16 -0.8928
L-1.09336e-16 0.8928" id="C0_15_0c12a3630c"/>
     <path d="
M0.8928 -5.46682e-17
L0.8928 78.3648
L1.7856 81.0432
L5.29047e-15 86.4
L-1.7856 81.0432
L-0.8928 78.3648
L-0.8928 5.46682e-17
L0.8928 -5.46682e-17" id="C0_16_adfa0ce7a8"/>
     <path d="
M0 -0.8928
L47.7648 -0.8928
L50.4432 -1.7856
L55.8 0
L50.4432 1.7856
L47.7648 0.8928
L0 0.8928
L0 -0.8928" id="C0_17_3718c72128"/>
     <path d="
M-0.8928 -5.46682e-17
L-0.8928 -35.1648
L-1.7856 -37.8432
L2.64524e-15 -43.2
L1.7856 -37.8432
L0.8928 -35.1648
L0.8928 5.46682e-17
L-0.8928 -5.46682e-17" id="C0_18_c1adf5a754"/>
     <path d="
M-1.09336e-16 0.8928
L-103.565 0.8928
L-106.243 1.7856
L-111.6 -1.36671e-14
L-106.243 -1.7856
L-103.565 -0.8928
L1.09336e-16 -0.8928
L-1.09336e-16 0.8928" id="C0_19_0c12a3630c"/>
     <path d="
M0.8928 -5.46682e-17
L0.8928 78.3648
L1.7856 81.0432
L5.29047e-15 86.4
L-1.7856 81.0432
L-0.8928 78.3648
L-0.8928 5.46682e-17
L0.8928 -5.46682e-17" id="C0_1a_adfa0ce7a8"/>
     <path d="
M0 -0.8928
L326.765 -0.8928
L329.443 -1.7856
L334.8 0
L329.443 1.7856
L326.765 0.8928
L0 0.8928
L0 -0.8928" id="C0_1b_024a94835c"/>
    </defs>
    <g clip-path="url(#p7ff5b81e1d)">
     <use x="462.6" xlink:href="#C0_0_be53717e7a" y="216.0"/>
    </g>
    <g clip-path="url(#p7ff5b81e1d)">
     <use x="462.6" xlink:href="#C0_1_0c12a3630c" y="129.6"/>
    </g>
    <g clip-path="url(#p7ff5b81e1d)">
     <use x="351.0" xlink:href="#C0_2_92ec168647" y="129.6"/>
    </g>
    <g clip-path="url(#p7ff5b81e1d)">
     <use x="351.0" xlink:href="#C0_3_3718c72128" y="172.8"/>
    </g>
    <g clip-path="url(#p7ff5b81e1d)">
     <use x="406.8" xlink:href="#C0_4_be53717e7a" y="172.8"/>
    </g>
    <g clip-path="url(#p7ff5b81e1d)">
     <use x="406.8" xlink:href="#C0_5_0c12a3630c" y="86.4"/>
    </g>
    <g clip-path="url(#p7ff5b81e1d)">
     <use x="295.2" xlink:href="#C0_6_b41cebf6e4" y="86.4"/>
    </g>
    <g clip-path="url(#p7ff5b81e1d)">
     <use x="295.2" xlink:href="#C0_7_636c605d31" y="345.6"/>
    </g>
    <g clip-path="url(#p7ff5b81e1d)">
     <use x="406.8" xlink:href="#C0_8_be53717e7a" y="345.6"/>
    </g>
    <g clip-path="url(#p7ff5b81e1d)">
     <use x="406.8" xlink:href="#C0_9_e7cc867a88" y="259.2"/>
    </g>
    <g clip-path="url(#p7ff5b81e1d)">
     <use x="351.0" xlink:href="#C0_a_92ec168647" y="259.2"/>
    </g>
    <g clip-path="url(#p7ff5b81e1d)">
     <use x="351.0" xlink:href="#C0_b_636c605d31" y="302.4"/>
    </g>
    <g clip-path="url(#p7ff5b81e1d)">
     <use x="462.6" xlink:href="#C0_c_be53717e7a" y="302.4"/>
    </g>
    <g clip-path="url(#p7ff5b81e1d)">
     <use x="462.6" xlink:href="#C0_d_448296b59e" y="216.0"/>
    </g>
    <g clip-path="url(#p7ff5b81e1d)">
     <use x="127.8" xlink:href="#C0_e_adfa0ce7a8" y="216.0"/>
    </g>
    <g clip-path="url(#p7ff5b81e1d)">
     <use x="127.8" xlink:href="#C0_f_636c605d31" y="302.4"/>
    </g>
    <g clip-path="url(#p7ff5b81e1d)">
     <use x="239.4" xlink:href="#C0_10_c1adf5a754" y="302.4"/>
    </g>
    <g clip-path="url(#p7ff5b81e1d)">
     <use x="239.4" xlink:href="#C0_11_e7cc867a88" y="259.2"/>
    </g>
    <g clip-path="url(#p7ff5b81e1d)">
     <use x="183.6" xlink:href="#C0_12_adfa0ce7a8" y="259.2"/>
    </g>
    <g clip-path="url(#p7ff5b81e1d)">
     <use x="183.6" xlink:href="#C0_13_636c605d31" y="345.6"/>
    </g>
    <g clip-path="url(#p7ff5b81e1d)">
     <use x="295.2" xlink:href="#C0_14_bcaf6510fb" y="345.6"/>
    </g>
    <g clip-path="url(#p7ff5b81e1d)">
     <use x="295.2" xlink:href="#C0_15_0c12a3630c" y="86.4"/>
    </g>
    <g clip-path="url(#p7ff5b81e1d)">
     <use x="183.6" xlink:href="#C0_16_adfa0ce7a8" y="86.4"/>
    </g>
    <g clip-path="url(#p7ff5b81e1d)">
     <use x="183.6" xlink:href="#C0_17_3718c72128" y="172.8"/>
    </g>
    <g clip-path="url(#p7ff5b81e1d)">
     <use x="239.4" xlink:href="#C0_18_c1adf5a754" y="172.8"/>
    </g>
    <g clip-path="url(#p7ff5b81e1d)">
     <use x="239.4" xlink:href="#C0_19_0c12a3630c" y="129.6"/>
    </g>
    <g clip-path="url(#p7ff5b81e1d)">
     <use x="127.8" xlink:href="#C0_1a_adfa0ce7a8" y="129.6"/>
    </g>
    <g clip-path="url(#p7ff5b81e1d)">
     <use x="127.8" xlink:href="#C0_1b_024a94835c" y="216.0"/>
    </g>
   </g>
   <g id="matplotlib.axis_1">
    <g id="xtick_1">
     <g id="line2d_1">
      <defs>
       <path d="
M0 0
L0 -4" id="m93b0483c22" style="stroke:#000000;stroke-width:0.5;"/>
      </defs>
      <g>
       <use style="stroke:#000000;stroke-width:0.5;" x="72.0" xlink:href="#m93b0483c22" y="388.8"/>
      </g>
     </g>
     <g id="line2d_2">
      <defs>
       <path d="
M0 0
L0 4" id="m741efc42ff" style="stroke:#000000;stroke-width:0.5;"/>
      </defs>
      <g>
       <use style="stroke:#000000;stroke-width:0.5;" x="72.0" xlink:href="#m741efc42ff" y="43.2"/>
      </g>
     </g>
     <g id="text_1">
      <!-- −4 -->
      <defs>
       <path d="
M37.7969 64.3125
L12.8906 25.3906
L37.7969 25.3906
z

M35.2031 72.9062
L47.6094 72.9062
L47.6094 25.3906
L58.0156 25.3906
L58.0156 17.1875
L47.6094 17.1875
L47.6094 0
L37.7969 0
L37.7969 17.1875
L4.89062 17.1875
L4.89062 26.7031
z
" id="DejaVuSans-34"/>
       <path d="
M10.5938 35.5
L73.1875 35.5
L73.1875 27.2031
L10.5938 27.2031
z
" id="DejaVuSans-2212"/>
      </defs>
      <g transform="translate(64.126875 401.918125)scale(0.12 -0.12)">
       <use xlink:href="#DejaVuSans-2212"/>
       <use x="83.7890625" xlink:href="#DejaVuSans-34"/>
      </g>
     </g>
    </g>
    <g id="xtick_2">
     <g id="line2d_3">
      <g>
       <use style="stroke:#000000;stroke-width:0.5;" x="127.8" xlink:href="#m93b0483c22" y="388.8"/>
      </g>
     </g>
     <g id="line2d_4">
      <g>
       <use style="stroke:#000000;stroke-width:0.5;" x="127.8" xlink:href="#m741efc42ff" y="43.2"/>
      </g>
     </g>
     <g id="text_2">
      <!-- −3 -->
      <defs>
       <path d="
M40.5781 39.3125
Q47.6562 37.7969 51.625 33
Q55.6094 28.2188 55.6094 21.1875
Q55.6094 10.4062 48.1875 4.48438
Q40.7656 -1.42188 27.0938 -1.42188
Q22.5156 -1.42188 17.6562 -0.515625
Q12.7969 0.390625 7.625 2.20312
L7.625 11.7188
Q11.7188 9.32812 16.5938 8.10938
Q21.4844 6.89062 26.8125 6.89062
Q36.0781 6.89062 40.9375 10.5469
Q45.7969 14.2031 45.7969 21.1875
Q45.7969 27.6406 41.2812 31.2656
Q36.7656 34.9062 28.7188 34.9062
L20.2188 34.9062
L20.2188 43.0156
L29.1094 43.0156
Q36.375 43.0156 40.2344 45.9219
Q44.0938 48.8281 44.0938 54.2969
Q44.0938 59.9062 40.1094 62.9062
Q36.1406 65.9219 28.7188 65.9219
Q24.6562 65.9219 20.0156 65.0312
Q15.375 64.1562 9.8125 62.3125
L9.8125 71.0938
Q15.4375 72.6562 20.3438 73.4375
Q25.25 74.2188 29.5938 74.2188
Q40.8281 74.2188 47.3594 69.1094
Q53.9062 64.0156 53.9062 55.3281
Q53.9062 49.2656 50.4375 45.0938
Q46.9688 40.9219 40.5781 39.3125" id="DejaVuSans-33"/>
      </defs>
      <g transform="translate(120.07125 401.918125)scale(0.12 -0.12)">
       <use xlink:href="#DejaVuSans-2212"/>
       <use x="83.7890625" xlink:href="#DejaVuSans-33"/>
      </g>
     </g>
    </g>
    <g id="xtick_3">
     <g id="line2d_5">
      <g>
       <use style="stroke:#000000;stroke-width:0.5;" x="183.6" xlink:href="#m93b0483c22" y="388.8"/>
      </g>
     </g>
     <g id="line2d_6">
      <g>
       <use style="stroke:#000000;stroke-width:0.5;" x="183.6" xlink:href="#m741efc42ff" y="43.2"/>
      </g>
     </g>
     <g id="text_3">
      <!-- −2 -->
      <defs>
       <path d="
M19.1875 8.29688
L53.6094 8.29688
L53.6094 0
L7.32812 0
L7.32812 8.29688
Q12.9375 14.1094 22.625 23.8906
Q32.3281 33.6875 34.8125 36.5312
Q39.5469 41.8438 41.4219 45.5312
Q43.3125 49.2188 43.3125 52.7812
Q43.3125 58.5938 39.2344 62.25
Q35.1562 65.9219 28.6094 65.9219
Q23.9688 65.9219 18.8125 64.3125
Q13.6719 62.7031 7.8125 59.4219
L7.8125 69.3906
Q13.7656 71.7812 18.9375 73
Q24.125 74.2188 28.4219 74.2188
Q39.75 74.2188 46.4844 68.5469
Q53.2188 62.8906 53.2188 53.4219
Q53.2188 48.9219 51.5312 44.8906
Q49.8594 40.875 45.4062 35.4062
Q44.1875 33.9844 37.6406 27.2188
Q31.1094 20.4531 19.1875 8.29688" id="DejaVuSans-32"/>
      </defs>
      <g transform="translate(175.99125 401.918125)scale(0.12 -0.12)">
       <use xlink:href="#DejaVuSans-2212"/>
       <use x="83.7890625" xlink:href="#DejaVuSans-32"/>
      </g>
     </g>
    </g>
    <g id="xtick_4">
     <g id="line2d_7">
      <g>
       <use style="stroke:#000000;stroke-width:0.5;" x="239.4" xlink:href="#m93b0483c22" y="388.8"/>
      </g>
     </g>
     <g id="line2d_8">
      <g>
       <use style="stroke:#000000;stroke-width:0.5;" x="239.4" xlink:href="#m741efc42ff" y="43.2"/>
      </g>
     </g>
     <g id="text_4">
      <!-- −1 -->
      <defs>
       <path d="
M12.4062 8.29688
L28.5156 8.29688
L28.5156 63.9219
L10.9844 60.4062
L10.9844 69.3906
L28.4219 72.9062
L38.2812 72.9062
L38.2812 8.29688
L54.3906 8.29688
L54.3906 0
L12.4062 0
z
" id="DejaVuSans-31"/>
      </defs>
      <g transform="translate(231.744375 401.918125)scale(0.12 -0.12)">
       <use xlink:href="#DejaVuSans-2212"/>
       <use x="83.7890625" xlink:href="#DejaVuSans-31"/>
      </g>
     </g>
    </g>
    <g id="xtick_5">
     <g id="line2d_9">
      <g>
       <use style="stroke:#000000;stroke-width:0.5;" x="295.2" xlink:href="#m93b0483c22" y="388.8"/>
      </g>
     </g>
     <g id="line2d_10">
      <g>
       <use style="stroke:#000000;stroke-width:0.5;" x="295.2" xlink:href="#m741efc42ff" y="43.2"/>
      </g>
     </g>
     <g id="text_5">
      <!-- 0 -->
      <defs>
       <path d="
M31.7812 66.4062
Q24.1719 66.4062 20.3281 58.9062
Q16.5 51.4219 16.5 36.375
Q16.5 21.3906 20.3281 13.8906
Q24.1719 6.39062 31.7812 6.39062
Q39.4531 6.39062 43.2812 13.8906
Q47.125 21.3906 47.125 36.375
Q47.125 51.4219 43.2812 58.9062
Q39.4531 66.4062 31.7812 66.4062
M31.7812 74.2188
Q44.0469 74.2188 50.5156 64.5156
Q56.9844 54.8281 56.9844 36.375
Q56.9844 17.9688 50.5156 8.26562
Q44.0469 -1.42188 31.7812 -1.42188
Q19.5312 -1.42188 13.0625 8.26562
Q6.59375 17.9688 6.59375 36.375
Q6.59375 54.8281 13.0625 64.5156
Q19.5312 74.2188 31.7812 74.2188" id="DejaVuSans-30"/>
      </defs>
      <g transform="translate(292.1765625 401.918125)scale(0.12 -0.12)">
       <use xlink:href="#DejaVuSans-30"/>
      </g>
     </g>
    </g>
    <g id="xtick_6">
     <g id="line2d_11">
      <g>
       <use style="stroke:#000000;stroke-width:0.5;" x="351.0" xlink:href="#m93b0483c22" y="388.8"/>
      </g>
     </g>
     <g id="line2d_12">
      <g>
       <use style="stroke:#000000;stroke-width:0.5;" x="351.0" xlink:href="#m741efc42ff" y="43.2"/>
      </g>
     </g>
     <g id="text_6">
      <!-- 1 -->
      <g transform="translate(348.395625 401.918125)scale(0.12 -0.12)">
       <use xlink:href="#DejaVuSans-31"/>
      </g>
     </g>
    </g>
    <g id="xtick_7">
     <g id="line2d_13">
      <g>
       <use style="stroke:#000000;stroke-width:0.5;" x="406.8" xlink:href="#m93b0483c22" y="388.8"/>
      </g>
     </g>
     <g id="line2d_14">
      <g>
       <use style="stroke:#000000;stroke-width:0.5;" x="406.8" xlink:href="#m741efc42ff" y="43.2"/>
      </g>
     </g>
     <g id="text_7">
      <!-- 2 -->
      <g transform="translate(404.023125 401.918125)scale(0.12 -0.12)">
       <use xlink:href="#DejaVuSans-32"/>
      </g>
     </g>
    </g>
    <g id="xtick_8">
     <g id="line2d_15">
      <g>
       <use style="stroke:#000000;stroke-width:0.5;" x="462.6" xlink:href="#m93b0483c22" y="388.8"/>
      </g>
     </g>
     <g id="line2d_16">
      <g>
       <use style="stroke:#000000;stroke-width:0.5;" x="462.6" xlink:href="#m741efc42ff" y="43.2"/>
      </g>
     </g>
     <g id="text_8">
      <!-- 3 -->
      <g transform="translate(459.7209375 401.918125)scale(0.12 -0.12)">
       <use xlink:href="#DejaVuSans-33"/>
      </g>
     </g>
    </g>
    <g id="xtick_9">
     <g id="line2d_17">
      <g>
       <use style="stroke:#000000;stroke-width:0.5;" x="518.4" xlink:href="#m93b0483c22" y="388.8"/>
      </g>
     </g>
     <g id="line2d_18">
      <g>
       <use style="stroke:#000000;stroke-width:0.5;" x="518.4" xlink:href="#m741efc42ff" y="43.2"/>
      </g>
     </g>
     <g id="text_9">
      <!-- 4 -->
      <g transform="translate(515.2125 401.918125)scale(0.12 -0.12)">
       <use xlink:href="#DejaVuSans-34"/>
      </g>
     </g>
    </g>
   </g>
   <g id="matplotlib.axis_2">
    <g id="ytick_1">
     <g id="line2d_19">
      <defs>
       <path d="
M0 0
L4 0" id="m728421d6d4" style="stroke:#000000;stroke-width:0.5;"/>
      </defs>
      <g>
       <use style="stroke:#000000;stroke-width:0.5;" x="72.0" xlink:href="#m728421d6d4" y="388.8"/>
      </g>
     </g>
     <g id="line2d_20">
      <defs>
       <path d="
M0 0
L-4 0" id="mcb0005524f" style="stroke:#000000;stroke-width:0.5;"/>
      </defs>
      <g>
       <use style="stroke:#000000;stroke-width:0.5;" x="518.4" xlink:href="#mcb0005524f" y="388.8"/>
      </g>
     </g>
     <g id="text_10">
      <!-- −4 -->
      <g transform="translate(52.25375 392.11125)scale(0.12 -0.12)">
       <use xlink:href="#DejaVuSans-2212"/>
       <use x="83.7890625" xlink:href="#DejaVuSans-34"/>
      </g>
     </g>
    </g>
    <g id="ytick_2">
     <g id="line2d_21">
      <g>
       <use style="stroke:#000000;stroke-width:0.5;" x="72.0" xlink:href="#m728421d6d4" y="345.6"/>
      </g>
     </g>
     <g id="line2d_22">
      <g>
       <use style="stroke:#000000;stroke-width:0.5;" x="518.4" xlink:href="#mcb0005524f" y="345.6"/>
      </g>
     </g>
     <g id="text_11">
      <!-- −3 -->
      <g transform="translate(52.5425 348.91125)scale(0.12 -0.12)">
       <use xlink:href="#DejaVuSans-2212"/>
       <use x="83.7890625" xlink:href="#DejaVuSans-33"/>
      </g>
     </g>
    </g>
    <g id="ytick_3">
     <g id="line2d_23">
      <g>
       <use style="stroke:#000000;stroke-width:0.5;" x="72.0" xlink:href="#m728421d6d4" y="302.4"/>
      </g>
     </g>
     <g id="line2d_24">
      <g>
       <use style="stroke:#000000;stroke-width:0.5;" x="518.4" xlink:href="#mcb0005524f" y="302.4"/>
      </g>
     </g>
     <g id="text_12">
      <!-- −2 -->
      <g transform="translate(52.7825 305.71125)scale(0.12 -0.12)">
       <use xlink:href="#DejaVuSans-2212"/>
       <use x="83.7890625" xlink:href="#DejaVuSans-32"/>
      </g>
     </g>
    </g>
    <g id="ytick_4">
     <g id="line2d_25">
      <g>
       <use style="stroke:#000000;stroke-width:0.5;" x="72.0" xlink:href="#m728421d6d4" y="259.2"/>
      </g>
     </g>
     <g id="line2d_26">
      <g>
       <use style="stroke:#000000;stroke-width:0.5;" x="518.4" xlink:href="#mcb0005524f" y="259.2"/>
      </g>
     </g>
     <g id="text_13">
      <!-- −1 -->
      <g transform="translate(52.68875 262.51125)scale(0.12 -0.12)">
       <use xlink:href="#DejaVuSans-2212"/>
       <use x="83.7890625" xlink:href="#DejaVuSans-31"/>
      </g>
     </g>
    </g>
    <g id="ytick_5">
     <g id="line2d_27">
      <g>
       <use style="stroke:#000000;stroke-width:0.5;" x="72.0" xlink:href="#m728421d6d4" y="216.0"/>
      </g>
     </g>
     <g id="line2d_28">
      <g>
       <use style="stroke:#000000;stroke-width:0.5;" x="518.4" xlink:href="#mcb0005524f" y="216.0"/>
      </g>
     </g>
     <g id="text_14">
      <!-- 0 -->
      <g transform="translate(61.953125 219.31125)scale(0.12 -0.12)">
       <use xlink:href="#DejaVuSans-30"/>
      </g>
     </g>
    </g>
    <g id="ytick_6">
     <g id="line2d_29">
      <g>
       <use style="stroke:#000000;stroke-width:0.5;" x="72.0" xlink:href="#m728421d6d4" y="172.8"/>
      </g>
     </g>
     <g id="line2d_30">
      <g>
       <use style="stroke:#000000;stroke-width:0.5;" x="518.4" xlink:href="#mcb0005524f" y="172.8"/>
      </g>
     </g>
     <g id="text_15">
      <!-- 1 -->
      <g transform="translate(62.79125 176.11125)scale(0.12 -0.12)">
       <use xlink:href="#DejaVuSans-31"/>
      </g>
     </g>
    </g>
    <g id="ytick_7">
     <g id="line2d_31">
      <g>
       <use style="stroke:#000000;stroke-width:0.5;" x="72.0" xlink:href="#m728421d6d4" y="129.6"/>
      </g>
     </g>
     <g id="line2d_32">
      <g>
       <use style="stroke:#000000;stroke-width:0.5;" x="518.4" xlink:href="#mcb0005524f" y="129.6"/>
      </g>
     </g>
     <g id="text_16">
      <!-- 2 -->
      <g transform="translate(62.44625 132.91125)scale(0.12 -0.12)">
       <use xlink:href="#DejaVuSans-32"/>
      </g>
     </g>
    </g>
    <g id="ytick_8">
     <g id="line2d_33">
      <g>
       <use style="stroke:#000000;stroke-width:0.5;" x="72.0" xlink:href="#m728421d6d4" y="86.4"/>
      </g>
     </g>
     <g id="line2d_34">
      <g>
       <use style="stroke:#000000;stroke-width:0.5;" x="518.4" xlink:href="#mcb0005524f" y="86.4"/>
      </g>
     </g>
     <g id="text_17">
      <!-- 3 -->
      <g transform="translate(62.241875 89.71125)scale(0.12 -0.12)">
       <use xlink:href="#DejaVuSans-33"/>
      </g>
     </g>
    </g>
    <g id="ytick_9">
     <g id="line2d_35">
      <g>
       <use style="stroke:#000000;stroke-width:0.5;" x="72.0" xlink:href="#m728421d6d4" y="43.2"/>
      </g>
     </g>
     <g id="line2d_36">
      <g>
       <use style="stroke:#000000;stroke-width:0.5;" x="518.4" xlink:href="#mcb0005524f" y="43.2"/>
      </g>
     </g>
     <g id="text_18">
      <!-- 4 -->
      <g transform="translate(61.625 46.51125)scale(0.12 -0.12)">
       <use xlink:href="#DejaVuSans-34"/>
      </g>
     </g>
    </g>
   </g>
   <g id="patch_3">
    <path d="
M72 43.2
L518.4 43.2" style="fill:none;stroke:#000000;"/>
   </g>
   <g id="patch_4">
    <path d="
M518.4 388.8
L518.4 43.2" style="fill:none;stroke:#000000;"/>
   </g>
   <g id="patch_5">
    <path d="
M72 388.8
L518.4 388.8" style="fill:none;stroke:#000000;"/>
   </g>
   <g id="patch_6">
    <path d="
M72 388.8
L72 43.2" style="fill:none;stroke:#000000;"/>
   </g>
  </g>
 </g>
 <defs>
  <clipPath id="p7ff5b81e1d">
   <rect height="345.6" width="446.4" x="72.0" y="43.2"/>
  </clipPath>
 </defs>
</svg>
