<?xml version="1.0" encoding="utf-8" standalone="no"?>
<!DOCTYPE svg PUBLIC "-//W3C//DTD SVG 1.1//EN"
  "http://www.w3.org/Graphics/SVG/1.1/DTD/svg11.dtd">
<!-- Created with matplotlib (http://matplotlib.org/) -->
<svg height="432pt" version="1.1" viewBox="0 0 576 432" width="576pt" xmlns="http://www.w3.org/2000/svg" xmlns:xlink="http://www.w3.org/1999/xlink">
 <defs>
  <style type="text/css">
*{stroke-linecap:butt;stroke-linejoin:round;}
  </style>
 </defs>
 <g id="figure_1">
  <g id="patch_1">
   <path d="
M0 432
L576 432
L576 0
L0 0
z
" style="fill:#ffffff;"/>
  </g>
  <g id="axes_1">
   <g id="patch_2">
    <path d="
M72 388.8
L518.4 388.8
L518.4 43.2
L72 43.2
z
" style="fill:#ffffff;"/>
   </g>
   <g id="Quiver_1">
    <defs>
     <path d="
M-0.8928 -5.46682e-17
L-0.8928 -52.953
L-1.7856 -55.6314
L3.73445e-15 -60.9882
L1.7856 -55.6314
L0.8928 -52.953
L0.8928 5.46682e-17
L-0.8928 -5.46682e-17" id="C0_0_a24f6de7df"/>
     <path d="
M-1.09336e-16 0.8928
L-14.2848 0.8928
L-16.9632 1.7856
L-22.32 -2.73341e-15
L-16.9632 -1.7856
L-14.2848 -0.8928
L1.09336e-16 -0.8928
L-1.09336e-16 0.8928" id="C0_1_a0861171a4"/>
     <path d="
M0.8928 -5.46682e-17
L0.8928 12.2942
L1.7856 14.9726
L1.24482e-15 20.3294
L-1.7856 14.9726
L-0.8928 12.2942
L-0.8928 5.46682e-17
L0.8928 -5.46682e-17" id="C0_2_bc53036e4e"/>
     <path d="
M0 -0.8928
L36.6048 -0.8928
L39.2832 -1.7856
L44.64 0
L39.2832 1.7856
L36.6048 0.8928
L0 0.8928
L0 -0.8928" id="C0_3_1d5e6d68e7"/>
     <path d="
M-0.8928 -5.46682e-17
L-0.8928 -93.6119
L-1.7856 -96.2903
L6.22409e-15 -101.647
L1.7856 -96.2903
L0.8928 -93.6119
L0.8928 5.46682e-17
L-0.8928 -5.46682e-17" id="C0_4_b90e8555cf"/>
     <path d="
M-1.09336e-16 0.8928
L-36.6048 0.8928
L-39.2832 1.7856
L-44.64 -5.46682e-15
L-39.2832 -1.7856
L-36.6048 -0.8928
L1.09336e-16 -0.8928
L-1.09336e-16 0.8928" id="C0_5_f9f302ac67"/>
     <path d="
M0.8928 -5.46682e-17
L0.8928 12.2942
L1.7856 14.9726
L1.24482e-15 20.3294
L-1.7856 14.9726
L-0.8928 12.2942
L-0.8928 5.46682e-17
L0.8928 -5.46682e-17" id="C0_6_bc53036e4e"/>
     <path d="
M0 -0.8928
L148.205 -0.8928
L150.883 -1.7856
L156.24 0
L150.883 1.7856
L148.205 0.8928
L0 0.8928
L0 -0.8928" id="C0_7_d25e37cf0b"/>
     <path d="
M-0.8928 -5.46682e-17
L-0.8928 -113.941
L-1.7856 -116.62
L7.4689e-15 -121.976
L1.7856 -116.62
L0.8928 -113.941
L0.8928 5.46682e-17
L-0.8928 -5.46682e-17" id="C0_8_6790c05681"/>
     <path d="
M-1.09336e-16 0.8928
L-148.205 0.8928
L-150.883 1.7856
L-156.24 -1.91339e-14
L-150.883 -1.7856
L-148.205 -0.8928
L1.09336e-16 -0.8928
L-1.09336e-16 0.8928" id="C0_9_a28346b141"/>
     <path d="
M0.8928 -5.46682e-17
L0.8928 12.2942
L1.7856 14.9726
L1.24482e-15 20.3294
L-1.7856 14.9726
L-0.8928 12.2942
L-0.8928 5.46682e-17
L0.8928 -5.46682e-17" id="C0_a_bc53036e4e"/>
     <path d="
M0 -0.8928
L36.6048 -0.8928
L39.2832 -1.7856
L44.64 0
L39.2832 1.7856
L36.6048 0.8928
L0 0.8928
L0 -0.8928" id="C0_b_1d5e6d68e7"/>
     <path d="
M-0.8928 -5.46682e-17
L-0.8928 -93.6119
L-1.7856 -96.2903
L6.22409e-15 -101.647
L1.7856 -96.2903
L0.8928 -93.6119
L0.8928 5.46682e-17
L-0.8928 -5.46682e-17" id="C0_c_b90e8555cf"/>
     <path d="
M-1.09336e-16 0.8928
L-192.845 0.8928
L-195.523 1.7856
L-200.88 -2.46007e-14
L-195.523 -1.7856
L-192.845 -0.8928
L1.09336e-16 -0.8928
L-1.09336e-16 0.8928" id="C0_d_e0731ac030"/>
     <path d="
M0.8928 -5.46682e-17
L0.8928 93.6119
L1.7856 96.2903
L6.22409e-15 101.647
L-1.7856 96.2903
L-0.8928 93.6119
L-0.8928 5.46682e-17
L0.8928 -5.46682e-17" id="C0_e_8c45999a47"/>
     <path d="
M0 -0.8928
L36.6048 -0.8928
L39.2832 -1.7856
L44.64 0
L39.2832 1.7856
L36.6048 0.8928
L0 0.8928
L0 -0.8928" id="C0_f_1d5e6d68e7"/>
     <path d="
M-0.8928 -5.46682e-17
L-0.8928 -12.2942
L-1.7856 -14.9726
L1.24482e-15 -20.3294
L1.7856 -14.9726
L0.8928 -12.2942
L0.8928 5.46682e-17
L-0.8928 -5.46682e-17" id="C0_10_0eff68b271"/>
     <path d="
M-1.09336e-16 0.8928
L-148.205 0.8928
L-150.883 1.7856
L-156.24 -1.91339e-14
L-150.883 -1.7856
L-148.205 -0.8928
L1.09336e-16 -0.8928
L-1.09336e-16 0.8928" id="C0_11_a28346b141"/>
     <path d="
M0.8928 -5.46682e-17
L0.8928 113.941
L1.7856 116.62
L7.4689e-15 121.976
L-1.7856 116.62
L-0.8928 113.941
L-0.8928 5.46682e-17
L0.8928 -5.46682e-17" id="C0_12_e3f19257d2"/>
     <path d="
M0 -0.8928
L148.205 -0.8928
L150.883 -1.7856
L156.24 0
L150.883 1.7856
L148.205 0.8928
L0 0.8928
L0 -0.8928" id="C0_13_d25e37cf0b"/>
     <path d="
M-0.8928 -5.46682e-17
L-0.8928 -12.2942
L-1.7856 -14.9726
L1.24482e-15 -20.3294
L1.7856 -14.9726
L0.8928 -12.2942
L0.8928 5.46682e-17
L-0.8928 -5.46682e-17" id="C0_14_0eff68b271"/>
     <path d="
M-1.09336e-16 0.8928
L-36.6048 0.8928
L-39.2832 1.7856
L-44.64 -5.46682e-15
L-39.2832 -1.7856
L-36.6048 -0.8928
L1.09336e-16 -0.8928
L-1.09336e-16 0.8928" id="C0_15_f9f302ac67"/>
     <path d="
M0.8928 -5.46682e-17
L0.8928 93.6119
L1.7856 96.2903
L6.22409e-15 101.647
L-1.7856 96.2903
L-0.8928 93.6119
L-0.8928 5.46682e-17
L0.8928 -5.46682e-17" id="C0_16_8c45999a47"/>
     <path d="
M0 -0.8928
L36.6048 -0.8928
L39.2832 -1.7856
L44.64 0
L39.2832 1.7856
L36.6048 0.8928
L0 0.8928
L0 -0.8928" id="C0_17_1d5e6d68e7"/>
     <path d="
M-0.8928 -5.46682e-17
L-0.8928 -12.2942
L-1.7856 -14.9726
L1.24482e-15 -20.3294
L1.7856 -14.9726
L0.8928 -12.2942
L0.8928 5.46682e-17
L-0.8928 -5.46682e-17" id="C0_18_0eff68b271"/>
     <path d="
M-1.09336e-16 0.8928
L-14.2848 0.8928
L-16.9632 1.7856
L-22.32 -2.73341e-15
L-16.9632 -1.7856
L-14.2848 -0.8928
L1.09336e-16 -0.8928
L-1.09336e-16 0.8928" id="C0_19_a0861171a4"/>
     <path d="
M0.8928 -5.46682e-17
L0.8928 52.953
L1.7856 55.6314
L3.73445e-15 60.9882
L-1.7856 55.6314
L-0.8928 52.953
L-0.8928 5.46682e-17
L0.8928 -5.46682e-17" id="C0_1a_bf3708311e"/>
     <path d="
M0 -0.8928
L148.205 -0.8928
L150.883 -1.7856
L156.24 0
L150.883 1.7856
L148.205 0.8928
L0 0.8928
L0 -0.8928" id="C0_1b_d25e37cf0b"/>
    </defs>
    <g clip-path="url(#p7ff5b81e1d)">
     <use x="373.32" xlink:href="#C0_0_a24f6de7df" y="378.635294118"/>
    </g>
    <g clip-path="url(#p7ff5b81e1d)">
     <use x="373.32" xlink:href="#C0_1_a0861171a4" y="317.647058824"/>
    </g>
    <g clip-path="url(#p7ff5b81e1d)">
     <use x="351.0" xlink:href="#C0_2_bc53036e4e" y="317.647058824"/>
    </g>
    <g clip-path="url(#p7ff5b81e1d)">
     <use x="351.0" xlink:href="#C0_3_1d5e6d68e7" y="337.976470588"/>
    </g>
    <g clip-path="url(#p7ff5b81e1d)">
     <use x="395.64" xlink:href="#C0_4_b90e8555cf" y="337.976470588"/>
    </g>
    <g clip-path="url(#p7ff5b81e1d)">
     <use x="395.64" xlink:href="#C0_5_f9f302ac67" y="236.329411765"/>
    </g>
    <g clip-path="url(#p7ff5b81e1d)">
     <use x="351.0" xlink:href="#C0_6_bc53036e4e" y="236.329411765"/>
    </g>
    <g clip-path="url(#p7ff5b81e1d)">
     <use x="351.0" xlink:href="#C0_7_d25e37cf0b" y="256.658823529"/>
    </g>
    <g clip-path="url(#p7ff5b81e1d)">
     <use x="507.24" xlink:href="#C0_8_6790c05681" y="256.658823529"/>
    </g>
    <g clip-path="url(#p7ff5b81e1d)">
     <use x="507.24" xlink:href="#C0_9_a28346b141" y="134.682352941"/>
    </g>
    <g clip-path="url(#p7ff5b81e1d)">
     <use x="351.0" xlink:href="#C0_a_bc53036e4e" y="134.682352941"/>
    </g>
    <g clip-path="url(#p7ff5b81e1d)">
     <use x="351.0" xlink:href="#C0_b_1d5e6d68e7" y="155.011764706"/>
    </g>
    <g clip-path="url(#p7ff5b81e1d)">
     <use x="395.64" xlink:href="#C0_c_b90e8555cf" y="155.011764706"/>
    </g>
    <g clip-path="url(#p7ff5b81e1d)">
     <use x="395.64" xlink:href="#C0_d_e0731ac030" y="53.3647058824"/>
    </g>
    <g clip-path="url(#p7ff5b81e1d)">
     <use x="194.76" xlink:href="#C0_e_8c45999a47" y="53.3647058824"/>
    </g>
    <g clip-path="url(#p7ff5b81e1d)">
     <use x="194.76" xlink:href="#C0_f_1d5e6d68e7" y="155.011764706"/>
    </g>
    <g clip-path="url(#p7ff5b81e1d)">
     <use x="239.4" xlink:href="#C0_10_0eff68b271" y="155.011764706"/>
    </g>
    <g clip-path="url(#p7ff5b81e1d)">
     <use x="239.4" xlink:href="#C0_11_a28346b141" y="134.682352941"/>
    </g>
    <g clip-path="url(#p7ff5b81e1d)">
     <use x="83.16" xlink:href="#C0_12_e3f19257d2" y="134.682352941"/>
    </g>
    <g clip-path="url(#p7ff5b81e1d)">
     <use x="83.16" xlink:href="#C0_13_d25e37cf0b" y="256.658823529"/>
    </g>
    <g clip-path="url(#p7ff5b81e1d)">
     <use x="239.4" xlink:href="#C0_14_0eff68b271" y="256.658823529"/>
    </g>
    <g clip-path="url(#p7ff5b81e1d)">
     <use x="239.4" xlink:href="#C0_15_f9f302ac67" y="236.329411765"/>
    </g>
    <g clip-path="url(#p7ff5b81e1d)">
     <use x="194.76" xlink:href="#C0_16_8c45999a47" y="236.329411765"/>
    </g>
    <g clip-path="url(#p7ff5b81e1d)">
     <use x="194.76" xlink:href="#C0_17_1d5e6d68e7" y="337.976470588"/>
    </g>
    <g clip-path="url(#p7ff5b81e1d)">
     <use x="239.4" xlink:href="#C0_18_0eff68b271" y="337.976470588"/>
    </g>
    <g clip-path="url(#p7ff5b81e1d)">
     <use x="239.4" xlink:href="#C0_19_a0861171a4" y="317.647058824"/>
    </g>
    <g clip-path="url(#p7ff5b81e1d)">
     <use x="217.08" xlink:href="#C0_1a_bf3708311e" y="317.647058824"/>
    </g>
    <g clip-path="url(#p7ff5b81e1d)">
     <use x="217.08" xlink:href="#C0_1b_d25e37cf0b" y="378.635294118"/>
    </g>
   </g>
   <g id="matplotlib.axis_1">
    <g id="xtick_1">
     <g id="line2d_1">
      <defs>
       <path d="
M0 0
L0 -4" id="m93b0483c22" style="stroke:#000000;stroke-width:0.5;"/>
      </defs>
      <g>
       <use style="stroke:#000000;stroke-width:0.5;" x="72.0" xlink:href="#m93b0483c22" y="388.8"/>
      </g>
     </g>
     <g id="line2d_2">
      <defs>
       <path d="
M0 0
L0 4" id="m741efc42ff" style="stroke:#000000;stroke-width:0.5;"/>
      </defs>
      <g>
       <use style="stroke:#000000;stroke-width:0.5;" x="72.0" xlink:href="#m741efc42ff" y="43.2"/>
      </g>
     </g>
     <g id="text_1">
      <!-- −20 -->
      <defs>
       <path d="
M31.7812 66.4062
Q24.1719 66.4062 20.3281 58.9062
Q16.5 51.4219 16.5 36.375
Q16.5 21.3906 20.3281 13.8906
Q24.1719 6.39062 31.7812 6.39062
Q39.4531 6.39062 43.2812 13.8906
Q47.125 21.3906 47.125 36.375
Q47.125 51.4219 43.2812 58.9062
Q39.4531 66.4062 31.7812 66.4062
M31.7812 74.2188
Q44.0469 74.2188 50.5156 64.5156
Q56.9844 54.8281 56.9844 36.375
Q56.9844 17.9688 50.5156 8.26562
Q44.0469 -1.42188 31.7812 -1.42188
Q19.5312 -1.42188 13.0625 8.26562
Q6.59375 17.9688 6.59375 36.375
Q6.59375 54.8281 13.0625 64.5156
Q19.5312 74.2188 31.7812 74.2188" id="DejaVuSans-30"/>
       <path d="
M19.1875 8.29688
L53.6094 8.29688
L53.6094 0
L7.32812 0
L7.32812 8.29688
Q12.9375 14.1094 22.625 23.8906
Q32.3281 33.6875 34.8125 36.5312
Q39.5469 41.8438 41.4219 45.5312
Q43.3125 49.2188 43.3125 52.7812
Q43.3125 58.5938 39.2344 62.25
Q35.1562 65.9219 28.6094 65.9219
Q23.9688 65.9219 18.8125 64.3125
Q13.6719 62.7031 7.8125 59.4219
L7.8125 69.3906
Q13.7656 71.7812 18.9375 73
Q24.125 74.2188 28.4219 74.2188
Q39.75 74.2188 46.4844 68.5469
Q53.2188 62.8906 53.2188 53.4219
Q53.2188 48.9219 51.5312 44.8906
Q49.8594 40.875 45.4062 35.4062
Q44.1875 33.9844 37.6406 27.2188
Q31.1094 20.4531 19.1875 8.29688" id="DejaVuSans-32"/>
       <path d="
M10.5938 35.5
L73.1875 35.5
L73.1875 27.2031
L10.5938 27.2031
z
" id="DejaVuSans-2212"/>
      </defs>
      <g transform="translate(60.37125 401.918125)scale(0.12 -0.12)">
       <use xlink:href="#DejaVuSans-2212"/>
       <use x="83.7890625" xlink:href="#DejaVuSans-32"/>
       <use x="147.412109375" xlink:href="#DejaVuSans-30"/>
      </g>
     </g>
    </g>
    <g id="xtick_2">
     <g id="line2d_3">
      <g>
       <use style="stroke:#000000;stroke-width:0.5;" x="127.8" xlink:href="#m93b0483c22" y="388.8"/>
      </g>
     </g>
     <g id="line2d_4">
      <g>
       <use style="stroke:#000000;stroke-width:0.5;" x="127.8" xlink:href="#m741efc42ff" y="43.2"/>
      </g>
     </g>
     <g id="text_2">
      <!-- −15 -->
      <defs>
       <path d="
M12.4062 8.29688
L28.5156 8.29688
L28.5156 63.9219
L10.9844 60.4062
L10.9844 69.3906
L28.4219 72.9062
L38.2812 72.9062
L38.2812 8.29688
L54.3906 8.29688
L54.3906 0
L12.4062 0
z
" id="DejaVuSans-31"/>
       <path d="
M10.7969 72.9062
L49.5156 72.9062
L49.5156 64.5938
L19.8281 64.5938
L19.8281 46.7344
Q21.9688 47.4688 24.1094 47.8281
Q26.2656 48.1875 28.4219 48.1875
Q40.625 48.1875 47.75 41.5
Q54.8906 34.8125 54.8906 23.3906
Q54.8906 11.625 47.5625 5.09375
Q40.2344 -1.42188 26.9062 -1.42188
Q22.3125 -1.42188 17.5469 -0.640625
Q12.7969 0.140625 7.71875 1.70312
L7.71875 11.625
Q12.1094 9.23438 16.7969 8.0625
Q21.4844 6.89062 26.7031 6.89062
Q35.1562 6.89062 40.0781 11.3281
Q45.0156 15.7656 45.0156 23.3906
Q45.0156 31 40.0781 35.4375
Q35.1562 39.8906 26.7031 39.8906
Q22.75 39.8906 18.8125 39.0156
Q14.8906 38.1406 10.7969 36.2812
z
" id="DejaVuSans-35"/>
      </defs>
      <g transform="translate(116.296875 401.918125)scale(0.12 -0.12)">
       <use xlink:href="#DejaVuSans-2212"/>
       <use x="83.7890625" xlink:href="#DejaVuSans-31"/>
       <use x="147.412109375" xlink:href="#DejaVuSans-35"/>
      </g>
     </g>
    </g>
    <g id="xtick_3">
     <g id="line2d_5">
      <g>
       <use style="stroke:#000000;stroke-width:0.5;" x="183.6" xlink:href="#m93b0483c22" y="388.8"/>
      </g>
     </g>
     <g id="line2d_6">
      <g>
       <use style="stroke:#000000;stroke-width:0.5;" x="183.6" xlink:href="#m741efc42ff" y="43.2"/>
      </g>
     </g>
     <g id="text_3">
      <!-- −10 -->
      <g transform="translate(171.97125 401.918125)scale(0.12 -0.12)">
       <use xlink:href="#DejaVuSans-2212"/>
       <use x="83.7890625" xlink:href="#DejaVuSans-31"/>
       <use x="147.412109375" xlink:href="#DejaVuSans-30"/>
      </g>
     </g>
    </g>
    <g id="xtick_4">
     <g id="line2d_7">
      <g>
       <use style="stroke:#000000;stroke-width:0.5;" x="239.4" xlink:href="#m93b0483c22" y="388.8"/>
      </g>
     </g>
     <g id="line2d_8">
      <g>
       <use style="stroke:#000000;stroke-width:0.5;" x="239.4" xlink:href="#m741efc42ff" y="43.2"/>
      </g>
     </g>
     <g id="text_4">
      <!-- −5 -->
      <g transform="translate(231.714375 401.918125)scale(0.12 -0.12)">
       <use xlink:href="#DejaVuSans-2212"/>
       <use x="83.7890625" xlink:href="#DejaVuSans-35"/>
      </g>
     </g>
    </g>
    <g id="xtick_5">
     <g id="line2d_9">
      <g>
       <use style="stroke:#000000;stroke-width:0.5;" x="295.2" xlink:href="#m93b0483c22" y="388.8"/>
      </g>
     </g>
     <g id="line2d_10">
      <g>
       <use style="stroke:#000000;stroke-width:0.5;" x="295.2" xlink:href="#m741efc42ff" y="43.2"/>
      </g>
     </g>
     <g id="text_5">
      <!-- 0 -->
      <g transform="translate(292.1765625 401.918125)scale(0.12 -0.12)">
       <use xlink:href="#DejaVuSans-30"/>
      </g>
     </g>
    </g>
    <g id="xtick_6">
     <g id="line2d_11">
      <g>
       <use style="stroke:#000000;stroke-width:0.5;" x="351.0" xlink:href="#m93b0483c22" y="388.8"/>
      </g>
     </g>
     <g id="line2d_12">
      <g>
       <use style="stroke:#000000;stroke-width:0.5;" x="351.0" xlink:href="#m741efc42ff" y="43.2"/>
      </g>
     </g>
     <g id="text_6">
      <!-- 5 -->
      <g transform="translate(348.1696875 401.918125)scale(0.12 -0.12)">
       <use xlink:href="#DejaVuSans-35"/>
      </g>
     </g>
    </g>
    <g id="xtick_7">
     <g id="line2d_13">
      <g>
       <use style="stroke:#000000;stroke-width:0.5;" x="406.8" xlink:href="#m93b0483c22" y="388.8"/>
      </g>
     </g>
     <g id="line2d_14">
      <g>
       <use style="stroke:#000000;stroke-width:0.5;" x="406.8" xlink:href="#m741efc42ff" y="43.2"/>
      </g>
     </g>
     <g id="text_7">
      <!-- 10 -->
      <g transform="translate(400.2225 401.918125)scale(0.12 -0.12)">
       <use xlink:href="#DejaVuSans-31"/>
       <use x="63.623046875" xlink:href="#DejaVuSans-30"/>
      </g>
     </g>
    </g>
    <g id="xtick_8">
     <g id="line2d_15">
      <g>
       <use style="stroke:#000000;stroke-width:0.5;" x="462.6" xlink:href="#m93b0483c22" y="388.8"/>
      </g>
     </g>
     <g id="line2d_16">
      <g>
       <use style="stroke:#000000;stroke-width:0.5;" x="462.6" xlink:href="#m741efc42ff" y="43.2"/>
      </g>
     </g>
     <g id="text_8">
      <!-- 15 -->
      <g transform="translate(456.148125 401.918125)scale(0.12 -0.12)">
       <use xlink:href="#DejaVuSans-31"/>
       <use x="63.623046875" xlink:href="#DejaVuSans-35"/>
      </g>
     </g>
    </g>
    <g id="xtick_9">
     <g id="line2d_17">
      <g>
       <use style="stroke:#000000;stroke-width:0.5;" x="518.4" xlink:href="#m93b0483c22" y="388.8"/>
      </g>
     </g>
     <g id="line2d_18">
      <g>
       <use style="stroke:#000000;stroke-width:0.5;" x="518.4" xlink:href="#m741efc42ff" y="43.2"/>
      </g>
     </g>
     <g id="text_9">
      <!-- 20 -->
      <g transform="translate(511.603125 401.918125)scale(0.12 -0.12)">
       <use xlink:href="#DejaVuSans-32"/>
       <use x="63.623046875" xlink:href="#DejaVuSans-30"/>
      </g>
     </g>
    </g>
   </g>
   <g id="matplotlib.axis_2">
    <g id="ytick_1">
     <g id="line2d_19">
      <defs>
       <path d="
M0 0
L4 0" id="m728421d6d4" style="stroke:#000000;stroke-width:0.5;"/>
      </defs>
      <g>
       <use style="stroke:#000000;stroke-width:0.5;" x="72.0" xlink:href="#m728421d6d4" y="348.141176471"/>
      </g>
     </g>
     <g id="line2d_20">
      <defs>
       <path d="
M0 0
L-4 0" id="mcb0005524f" style="stroke:#000000;stroke-width:0.5;"/>
      </defs>
      <g>
       <use style="stroke:#000000;stroke-width:0.5;" x="518.4" xlink:href="#mcb0005524f" y="348.141176471"/>
      </g>
     </g>
     <g id="text_10">
      <!-- 15 -->
      <g transform="translate(55.09625 351.452426471)scale(0.12 -0.12)">
       <use xlink:href="#DejaVuSans-31"/>
       <use x="63.623046875" xlink:href="#DejaVuSans-35"/>
      </g>
     </g>
    </g>
    <g id="ytick_2">
     <g id="line2d_21">
      <g>
       <use style="stroke:#000000;stroke-width:0.5;" x="72.0" xlink:href="#m728421d6d4" y="297.317647059"/>
      </g>
     </g>
     <g id="line2d_22">
      <g>
       <use style="stroke:#000000;stroke-width:0.5;" x="518.4" xlink:href="#mcb0005524f" y="297.317647059"/>
      </g>
     </g>
     <g id="text_11">
      <!-- 20 -->
      <g transform="translate(54.40625 300.628897059)scale(0.12 -0.12)">
       <use xlink:href="#DejaVuSans-32"/>
       <use x="63.623046875" xlink:href="#DejaVuSans-30"/>
      </g>
     </g>
    </g>
    <g id="ytick_3">
     <g id="line2d_23">
      <g>
       <use style="stroke:#000000;stroke-width:0.5;" x="72.0" xlink:href="#m728421d6d4" y="246.494117647"/>
      </g>
     </g>
     <g id="line2d_24">
      <g>
       <use style="stroke:#000000;stroke-width:0.5;" x="518.4" xlink:href="#mcb0005524f" y="246.494117647"/>
      </g>
     </g>
     <g id="text_12">
      <!-- 25 -->
      <g transform="translate(54.6575 249.805367647)scale(0.12 -0.12)">
       <use xlink:href="#DejaVuSans-32"/>
       <use x="63.623046875" xlink:href="#DejaVuSans-35"/>
      </g>
     </g>
    </g>
    <g id="ytick_4">
     <g id="line2d_25">
      <g>
       <use style="stroke:#000000;stroke-width:0.5;" x="72.0" xlink:href="#m728421d6d4" y="195.670588235"/>
      </g>
     </g>
     <g id="line2d_26">
      <g>
       <use style="stroke:#000000;stroke-width:0.5;" x="518.4" xlink:href="#mcb0005524f" y="195.670588235"/>
      </g>
     </g>
     <g id="text_13">
      <!-- 30 -->
      <defs>
       <path d="
M40.5781 39.3125
Q47.6562 37.7969 51.625 33
Q55.6094 28.2188 55.6094 21.1875
Q55.6094 10.4062 48.1875 4.48438
Q40.7656 -1.42188 27.0938 -1.42188
Q22.5156 -1.42188 17.6562 -0.515625
Q12.7969 0.390625 7.625 2.20312
L7.625 11.7188
Q11.7188 9.32812 16.5938 8.10938
Q21.4844 6.89062 26.8125 6.89062
Q36.0781 6.89062 40.9375 10.5469
Q45.7969 14.2031 45.7969 21.1875
Q45.7969 27.6406 41.2812 31.2656
Q36.7656 34.9062 28.7188 34.9062
L20.2188 34.9062
L20.2188 43.0156
L29.1094 43.0156
Q36.375 43.0156 40.2344 45.9219
Q44.0938 48.8281 44.0938 54.2969
Q44.0938 59.9062 40.1094 62.9062
Q36.1406 65.9219 28.7188 65.9219
Q24.6562 65.9219 20.0156 65.0312
Q15.375 64.1562 9.8125 62.3125
L9.8125 71.0938
Q15.4375 72.6562 20.3438 73.4375
Q25.25 74.2188 29.5938 74.2188
Q40.8281 74.2188 47.3594 69.1094
Q53.9062 64.0156 53.9062 55.3281
Q53.9062 49.2656 50.4375 45.0938
Q46.9688 40.9219 40.5781 39.3125" id="DejaVuSans-33"/>
      </defs>
      <g transform="translate(54.441875 198.981838235)scale(0.12 -0.12)">
       <use xlink:href="#DejaVuSans-33"/>
       <use x="63.623046875" xlink:href="#DejaVuSans-30"/>
      </g>
     </g>
    </g>
    <g id="ytick_5">
     <g id="line2d_27">
      <g>
       <use style="stroke:#000000;stroke-width:0.5;" x="72.0" xlink:href="#m728421d6d4" y="144.847058824"/>
      </g>
     </g>
     <g id="line2d_28">
      <g>
       <use style="stroke:#000000;stroke-width:0.5;" x="518.4" xlink:href="#mcb0005524f" y="144.847058824"/>
      </g>
     </g>
     <g id="text_14">
      <!-- 35 -->
      <g transform="translate(54.693125 148.158308824)scale(0.12 -0.12)">
       <use xlink:href="#DejaVuSans-33"/>
       <use x="63.623046875" xlink:href="#DejaVuSans-35"/>
      </g>
     </g>
    </g>
    <g id="ytick_6">
     <g id="line2d_29">
      <g>
       <use style="stroke:#000000;stroke-width:0.5;" x="72.0" xlink:href="#m728421d6d4" y="94.0235294118"/>
      </g>
     </g>
     <g id="line2d_30">
      <g>
       <use style="stroke:#000000;stroke-width:0.5;" x="518.4" xlink:href="#mcb0005524f" y="94.0235294118"/>
      </g>
     </g>
     <g id="text_15">
      <!-- 40 -->
      <defs>
       <path d="
M37.7969 64.3125
L12.8906 25.3906
L37.7969 25.3906
z

M35.2031 72.9062
L47.6094 72.9062
L47.6094 25.3906
L58.0156 25.3906
L58.0156 17.1875
L47.6094 17.1875
L47.6094 0
L37.7969 0
L37.7969 17.1875
L4.89062 17.1875
L4.89062 26.7031
z
" id="DejaVuSans-34"/>
      </defs>
      <g transform="translate(54.11375 97.3347794118)scale(0.12 -0.12)">
       <use xlink:href="#DejaVuSans-34"/>
       <use x="63.623046875" xlink:href="#DejaVuSans-30"/>
      </g>
     </g>
    </g>
    <g id="ytick_7">
     <g id="line2d_31">
      <g>
       <use style="stroke:#000000;stroke-width:0.5;" x="72.0" xlink:href="#m728421d6d4" y="43.2"/>
      </g>
     </g>
     <g id="line2d_32">
      <g>
       <use style="stroke:#000000;stroke-width:0.5;" x="518.4" xlink:href="#mcb0005524f" y="43.2"/>
      </g>
     </g>
     <g id="text_16">
      <!-- 45 -->
      <g transform="translate(54.365 46.51125)scale(0.12 -0.12)">
       <use xlink:href="#DejaVuSans-34"/>
       <use x="63.623046875" xlink:href="#DejaVuSans-35"/>
      </g>
     </g>
    </g>
   </g>
   <g id="patch_3">
    <path d="
M72 43.2
L518.4 43.2" style="fill:none;stroke:#000000;"/>
   </g>
   <g id="patch_4">
    <path d="
M518.4 388.8
L518.4 43.2" style="fill:none;stroke:#000000;"/>
   </g>
   <g id="patch_5">
    <path d="
M72 388.8
L518.4 388.8" style="fill:none;stroke:#000000;"/>
   </g>
   <g id="patch_6">
    <path d="
M72 388.8
L72 43.2" style="fill:none;stroke:#000000;"/>
   </g>
  </g>
 </g>
 <defs>
  <clipPath id="p7ff5b81e1d">
   <rect height="345.6" width="446.4" x="72.0" y="43.2"/>
  </clipPath>
 </defs>
</svg>
