<?xml version="1.0" encoding="utf-8" standalone="no"?>
<!DOCTYPE svg PUBLIC "-//W3C//DTD SVG 1.1//EN"
  "http://www.w3.org/Graphics/SVG/1.1/DTD/svg11.dtd">
<!-- Created with matplotlib (http://matplotlib.org/) -->
<svg height="432pt" version="1.1" viewBox="0 0 576 432" width="576pt" xmlns="http://www.w3.org/2000/svg" xmlns:xlink="http://www.w3.org/1999/xlink">
 <defs>
  <style type="text/css">
*{stroke-linecap:butt;stroke-linejoin:round;}
  </style>
 </defs>
 <g id="figure_1">
  <g id="patch_1">
   <path d="
M0 432
L576 432
L576 0
L0 0
z
" style="fill:#ffffff;"/>
  </g>
  <g id="axes_1">
   <g id="patch_2">
    <path d="
M72 388.8
L518.4 388.8
L518.4 43.2
L72 43.2
z
" style="fill:#ffffff;"/>
   </g>
   <g id="Quiver_1">
    <defs>
     <path d="
M-0.8928 -5.46682e-17
L-0.8928 -90.7077
L-1.7856 -93.3861
L6.04626e-15 -98.7429
L1.7856 -93.3861
L0.8928 -90.7077
L0.8928 5.46682e-17
L-0.8928 -5.46682e-17" id="C0_0_b746a0274c"/>
     <path d="
M-1.09336e-16 0.8928
L-47.7648 0.8928
L-50.4432 1.7856
L-55.8 -6.83353e-15
L-50.4432 -1.7856
L-47.7648 -0.8928
L1.09336e-16 -0.8928
L-1.09336e-16 0.8928" id="C0_1_e7cc867a88"/>
     <path d="
M0.8928 -5.46682e-17
L0.8928 140.079
L1.7856 142.757
L9.06938e-15 148.114
L-1.7856 142.757
L-0.8928 140.079
L-0.8928 5.46682e-17
L0.8928 -5.46682e-17" id="C0_2_05085a50e7"/>
     <path d="
M0 -0.8928
L103.565 -0.8928
L106.243 -1.7856
L111.6 0
L106.243 1.7856
L103.565 0.8928
L0 0.8928
L0 -0.8928" id="C0_3_636c605d31"/>
     <path d="
M-0.8928 -5.46682e-17
L-0.8928 -140.079
L-1.7856 -142.757
L9.06938e-15 -148.114
L1.7856 -142.757
L0.8928 -140.079
L0.8928 5.46682e-17
L-0.8928 -5.46682e-17" id="C0_4_253dbafc32"/>
     <path d="
M-1.09336e-16 0.8928
L-47.7648 0.8928
L-50.4432 1.7856
L-55.8 -6.83353e-15
L-50.4432 -1.7856
L-47.7648 -0.8928
L1.09336e-16 -0.8928
L-1.09336e-16 0.8928" id="C0_5_e7cc867a88"/>
     <path d="
M0.8928 -5.46682e-17
L0.8928 90.7077
L1.7856 93.3861
L6.04626e-15 98.7429
L-1.7856 93.3861
L-0.8928 90.7077
L-0.8928 5.46682e-17
L0.8928 -5.46682e-17" id="C0_6_e3c178a1fb"/>
     <path d="
M0 -0.8928
L103.565 -0.8928
L106.243 -1.7856
L111.6 0
L106.243 1.7856
L103.565 0.8928
L0 0.8928
L0 -0.8928" id="C0_7_636c605d31"/>
     <path d="
M-0.8928 -5.46682e-17
L-0.8928 -140.079
L-1.7856 -142.757
L9.06938e-15 -148.114
L1.7856 -142.757
L0.8928 -140.079
L0.8928 5.46682e-17
L-0.8928 -5.46682e-17" id="C0_8_253dbafc32"/>
     <path d="
M-1.09336e-16 0.8928
L-47.7648 0.8928
L-50.4432 1.7856
L-55.8 -6.83353e-15
L-50.4432 -1.7856
L-47.7648 -0.8928
L1.09336e-16 -0.8928
L-1.09336e-16 0.8928" id="C0_9_e7cc867a88"/>
     <path d="
M0.8928 -5.46682e-17
L0.8928 41.3362
L1.7856 44.0146
L3.02313e-15 49.3714
L-1.7856 44.0146
L-0.8928 41.3362
L-0.8928 5.46682e-17
L0.8928 -5.46682e-17" id="C0_a_4d9b49cab2"/>
     <path d="
M0 -0.8928
L215.165 -0.8928
L217.843 -1.7856
L223.2 0
L217.843 1.7856
L215.165 0.8928
L0 0.8928
L0 -0.8928" id="C0_b_5b0a6dec8d"/>
     <path d="
M-0.8928 -5.46682e-17
L-0.8928 -140.079
L-1.7856 -142.757
L9.06938e-15 -148.114
L1.7856 -142.757
L0.8928 -140.079
L0.8928 5.46682e-17
L-0.8928 -5.46682e-17" id="C0_c_253dbafc32"/>
     <path d="
M-1.09336e-16 0.8928
L-382.565 0.8928
L-385.243 1.7856
L-390.6 -4.78347e-14
L-385.243 -1.7856
L-382.565 -0.8928
L1.09336e-16 -0.8928
L-1.09336e-16 0.8928" id="C0_d_f45b79c52b"/>
     <path d="
M0.8928 -5.46682e-17
L0.8928 90.7077
L1.7856 93.3861
L6.04626e-15 98.7429
L-1.7856 93.3861
L-0.8928 90.7077
L-0.8928 5.46682e-17
L0.8928 -5.46682e-17" id="C0_e_e3c178a1fb"/>
     <path d="
M0 -0.8928
L159.365 -0.8928
L162.043 -1.7856
L167.4 0
L162.043 1.7856
L159.365 0.8928
L0 0.8928
L0 -0.8928" id="C0_f_b4744c2cf7"/>
     <path d="
M-0.8928 -5.46682e-17
L-0.8928 -41.3362
L-1.7856 -44.0146
L3.02313e-15 -49.3714
L1.7856 -44.0146
L0.8928 -41.3362
L0.8928 5.46682e-17
L-0.8928 -5.46682e-17" id="C0_10_e21dbab380"/>
     <path d="
M-1.09336e-16 0.8928
L-47.7648 0.8928
L-50.4432 1.7856
L-55.8 -6.83353e-15
L-50.4432 -1.7856
L-47.7648 -0.8928
L1.09336e-16 -0.8928
L-1.09336e-16 0.8928" id="C0_11_e7cc867a88"/>
     <path d="
M0.8928 -5.46682e-17
L0.8928 90.7077
L1.7856 93.3861
L6.04626e-15 98.7429
L-1.7856 93.3861
L-0.8928 90.7077
L-0.8928 5.46682e-17
L0.8928 -5.46682e-17" id="C0_12_e3c178a1fb"/>
     <path d="
M0 -0.8928
L47.7648 -0.8928
L50.4432 -1.7856
L55.8 0
L50.4432 1.7856
L47.7648 0.8928
L0 0.8928
L0 -0.8928" id="C0_13_3718c72128"/>
     <path d="
M-0.8928 -5.46682e-17
L-0.8928 -41.3362
L-1.7856 -44.0146
L3.02313e-15 -49.3714
L1.7856 -44.0146
L0.8928 -41.3362
L0.8928 5.46682e-17
L-0.8928 -5.46682e-17" id="C0_14_e21dbab380"/>
     <path d="
M-1.09336e-16 0.8928
L-159.365 0.8928
L-162.043 1.7856
L-167.4 -2.05006e-14
L-162.043 -1.7856
L-159.365 -0.8928
L1.09336e-16 -0.8928
L-1.09336e-16 0.8928" id="C0_15_2e762c9c5d"/>
     <path d="
M0.8928 -5.46682e-17
L0.8928 140.079
L1.7856 142.757
L9.06938e-15 148.114
L-1.7856 142.757
L-0.8928 140.079
L-0.8928 5.46682e-17
L0.8928 -5.46682e-17" id="C0_16_05085a50e7"/>
     <path d="
M0 -0.8928
L103.565 -0.8928
L106.243 -1.7856
L111.6 0
L106.243 1.7856
L103.565 0.8928
L0 0.8928
L0 -0.8928" id="C0_17_636c605d31"/>
    </defs>
    <g clip-path="url(#p7ff5b81e1d)">
     <use x="211.5" xlink:href="#C0_0_b746a0274c" y="314.742857143"/>
    </g>
    <g clip-path="url(#p7ff5b81e1d)">
     <use x="211.5" xlink:href="#C0_1_e7cc867a88" y="216.0"/>
    </g>
    <g clip-path="url(#p7ff5b81e1d)">
     <use x="155.7" xlink:href="#C0_2_05085a50e7" y="216.0"/>
    </g>
    <g clip-path="url(#p7ff5b81e1d)">
     <use x="155.7" xlink:href="#C0_3_636c605d31" y="364.114285714"/>
    </g>
    <g clip-path="url(#p7ff5b81e1d)">
     <use x="267.3" xlink:href="#C0_4_253dbafc32" y="364.114285714"/>
    </g>
    <g clip-path="url(#p7ff5b81e1d)">
     <use x="267.3" xlink:href="#C0_5_e7cc867a88" y="216.0"/>
    </g>
    <g clip-path="url(#p7ff5b81e1d)">
     <use x="211.5" xlink:href="#C0_6_e3c178a1fb" y="216.0"/>
    </g>
    <g clip-path="url(#p7ff5b81e1d)">
     <use x="211.5" xlink:href="#C0_7_636c605d31" y="314.742857143"/>
    </g>
    <g clip-path="url(#p7ff5b81e1d)">
     <use x="323.1" xlink:href="#C0_8_253dbafc32" y="314.742857143"/>
    </g>
    <g clip-path="url(#p7ff5b81e1d)">
     <use x="323.1" xlink:href="#C0_9_e7cc867a88" y="166.628571429"/>
    </g>
    <g clip-path="url(#p7ff5b81e1d)">
     <use x="267.3" xlink:href="#C0_a_4d9b49cab2" y="166.628571429"/>
    </g>
    <g clip-path="url(#p7ff5b81e1d)">
     <use x="267.3" xlink:href="#C0_b_5b0a6dec8d" y="216.0"/>
    </g>
    <g clip-path="url(#p7ff5b81e1d)">
     <use x="490.5" xlink:href="#C0_c_253dbafc32" y="216.0"/>
    </g>
    <g clip-path="url(#p7ff5b81e1d)">
     <use x="490.5" xlink:href="#C0_d_f45b79c52b" y="67.8857142857"/>
    </g>
    <g clip-path="url(#p7ff5b81e1d)">
     <use x="99.9" xlink:href="#C0_e_e3c178a1fb" y="67.8857142857"/>
    </g>
    <g clip-path="url(#p7ff5b81e1d)">
     <use x="99.9" xlink:href="#C0_f_b4744c2cf7" y="166.628571429"/>
    </g>
    <g clip-path="url(#p7ff5b81e1d)">
     <use x="267.3" xlink:href="#C0_10_e21dbab380" y="166.628571429"/>
    </g>
    <g clip-path="url(#p7ff5b81e1d)">
     <use x="267.3" xlink:href="#C0_11_e7cc867a88" y="117.257142857"/>
    </g>
    <g clip-path="url(#p7ff5b81e1d)">
     <use x="211.5" xlink:href="#C0_12_e3c178a1fb" y="117.257142857"/>
    </g>
    <g clip-path="url(#p7ff5b81e1d)">
     <use x="211.5" xlink:href="#C0_13_3718c72128" y="216.0"/>
    </g>
    <g clip-path="url(#p7ff5b81e1d)">
     <use x="267.3" xlink:href="#C0_14_e21dbab380" y="216.0"/>
    </g>
    <g clip-path="url(#p7ff5b81e1d)">
     <use x="267.3" xlink:href="#C0_15_2e762c9c5d" y="166.628571429"/>
    </g>
    <g clip-path="url(#p7ff5b81e1d)">
     <use x="99.9" xlink:href="#C0_16_05085a50e7" y="166.628571429"/>
    </g>
    <g clip-path="url(#p7ff5b81e1d)">
     <use x="99.9" xlink:href="#C0_17_636c605d31" y="314.742857143"/>
    </g>
   </g>
   <g id="matplotlib.axis_1">
    <g id="xtick_1">
     <g id="line2d_1">
      <defs>
       <path d="
M0 0
L0 -4" id="m93b0483c22" style="stroke:#000000;stroke-width:0.5;"/>
      </defs>
      <g>
       <use style="stroke:#000000;stroke-width:0.5;" x="99.9" xlink:href="#m93b0483c22" y="388.8"/>
      </g>
     </g>
     <g id="line2d_2">
      <defs>
       <path d="
M0 0
L0 4" id="m741efc42ff" style="stroke:#000000;stroke-width:0.5;"/>
      </defs>
      <g>
       <use style="stroke:#000000;stroke-width:0.5;" x="99.9" xlink:href="#m741efc42ff" y="43.2"/>
      </g>
     </g>
     <g id="text_1">
      <!-- 16 -->
      <defs>
       <path d="
M12.4062 8.29688
L28.5156 8.29688
L28.5156 63.9219
L10.9844 60.4062
L10.9844 69.3906
L28.4219 72.9062
L38.2812 72.9062
L38.2812 8.29688
L54.3906 8.29688
L54.3906 0
L12.4062 0
z
" id="DejaVuSans-31"/>
       <path d="
M33.0156 40.375
Q26.375 40.375 22.4844 35.8281
Q18.6094 31.2969 18.6094 23.3906
Q18.6094 15.5312 22.4844 10.9531
Q26.375 6.39062 33.0156 6.39062
Q39.6562 6.39062 43.5312 10.9531
Q47.4062 15.5312 47.4062 23.3906
Q47.4062 31.2969 43.5312 35.8281
Q39.6562 40.375 33.0156 40.375
M52.5938 71.2969
L52.5938 62.3125
Q48.875 64.0625 45.0938 64.9844
Q41.3125 65.9219 37.5938 65.9219
Q27.8281 65.9219 22.6719 59.3281
Q17.5312 52.7344 16.7969 39.4062
Q19.6719 43.6562 24.0156 45.9219
Q28.375 48.1875 33.5938 48.1875
Q44.5781 48.1875 50.9531 41.5156
Q57.3281 34.8594 57.3281 23.3906
Q57.3281 12.1562 50.6875 5.35938
Q44.0469 -1.42188 33.0156 -1.42188
Q20.3594 -1.42188 13.6719 8.26562
Q6.98438 17.9688 6.98438 36.375
Q6.98438 53.6562 15.1875 63.9375
Q23.3906 74.2188 37.2031 74.2188
Q40.9219 74.2188 44.7031 73.4844
Q48.4844 72.75 52.5938 71.2969" id="DejaVuSans-36"/>
      </defs>
      <g transform="translate(93.301875 401.918125)scale(0.12 -0.12)">
       <use xlink:href="#DejaVuSans-31"/>
       <use x="63.623046875" xlink:href="#DejaVuSans-36"/>
      </g>
     </g>
    </g>
    <g id="xtick_2">
     <g id="line2d_3">
      <g>
       <use style="stroke:#000000;stroke-width:0.5;" x="155.7" xlink:href="#m93b0483c22" y="388.8"/>
      </g>
     </g>
     <g id="line2d_4">
      <g>
       <use style="stroke:#000000;stroke-width:0.5;" x="155.7" xlink:href="#m741efc42ff" y="43.2"/>
      </g>
     </g>
     <g id="text_2">
      <!-- 18 -->
      <defs>
       <path d="
M31.7812 34.625
Q24.75 34.625 20.7188 30.8594
Q16.7031 27.0938 16.7031 20.5156
Q16.7031 13.9219 20.7188 10.1562
Q24.75 6.39062 31.7812 6.39062
Q38.8125 6.39062 42.8594 10.1719
Q46.9219 13.9688 46.9219 20.5156
Q46.9219 27.0938 42.8906 30.8594
Q38.875 34.625 31.7812 34.625
M21.9219 38.8125
Q15.5781 40.375 12.0312 44.7188
Q8.5 49.0781 8.5 55.3281
Q8.5 64.0625 14.7188 69.1406
Q20.9531 74.2188 31.7812 74.2188
Q42.6719 74.2188 48.875 69.1406
Q55.0781 64.0625 55.0781 55.3281
Q55.0781 49.0781 51.5312 44.7188
Q48 40.375 41.7031 38.8125
Q48.8281 37.1562 52.7969 32.3125
Q56.7812 27.4844 56.7812 20.5156
Q56.7812 9.90625 50.3125 4.23438
Q43.8438 -1.42188 31.7812 -1.42188
Q19.7344 -1.42188 13.25 4.23438
Q6.78125 9.90625 6.78125 20.5156
Q6.78125 27.4844 10.7812 32.3125
Q14.7969 37.1562 21.9219 38.8125
M18.3125 54.3906
Q18.3125 48.7344 21.8438 45.5625
Q25.3906 42.3906 31.7812 42.3906
Q38.1406 42.3906 41.7188 45.5625
Q45.3125 48.7344 45.3125 54.3906
Q45.3125 60.0625 41.7188 63.2344
Q38.1406 66.4062 31.7812 66.4062
Q25.3906 66.4062 21.8438 63.2344
Q18.3125 60.0625 18.3125 54.3906" id="DejaVuSans-38"/>
      </defs>
      <g transform="translate(149.1346875 401.918125)scale(0.12 -0.12)">
       <use xlink:href="#DejaVuSans-31"/>
       <use x="63.623046875" xlink:href="#DejaVuSans-38"/>
      </g>
     </g>
    </g>
    <g id="xtick_3">
     <g id="line2d_5">
      <g>
       <use style="stroke:#000000;stroke-width:0.5;" x="211.5" xlink:href="#m93b0483c22" y="388.8"/>
      </g>
     </g>
     <g id="line2d_6">
      <g>
       <use style="stroke:#000000;stroke-width:0.5;" x="211.5" xlink:href="#m741efc42ff" y="43.2"/>
      </g>
     </g>
     <g id="text_3">
      <!-- 20 -->
      <defs>
       <path d="
M31.7812 66.4062
Q24.1719 66.4062 20.3281 58.9062
Q16.5 51.4219 16.5 36.375
Q16.5 21.3906 20.3281 13.8906
Q24.1719 6.39062 31.7812 6.39062
Q39.4531 6.39062 43.2812 13.8906
Q47.125 21.3906 47.125 36.375
Q47.125 51.4219 43.2812 58.9062
Q39.4531 66.4062 31.7812 66.4062
M31.7812 74.2188
Q44.0469 74.2188 50.5156 64.5156
Q56.9844 54.8281 56.9844 36.375
Q56.9844 17.9688 50.5156 8.26562
Q44.0469 -1.42188 31.7812 -1.42188
Q19.5312 -1.42188 13.0625 8.26562
Q6.59375 17.9688 6.59375 36.375
Q6.59375 54.8281 13.0625 64.5156
Q19.5312 74.2188 31.7812 74.2188" id="DejaVuSans-30"/>
       <path d="
M19.1875 8.29688
L53.6094 8.29688
L53.6094 0
L7.32812 0
L7.32812 8.29688
Q12.9375 14.1094 22.625 23.8906
Q32.3281 33.6875 34.8125 36.5312
Q39.5469 41.8438 41.4219 45.5312
Q43.3125 49.2188 43.3125 52.7812
Q43.3125 58.5938 39.2344 62.25
Q35.1562 65.9219 28.6094 65.9219
Q23.9688 65.9219 18.8125 64.3125
Q13.6719 62.7031 7.8125 59.4219
L7.8125 69.3906
Q13.7656 71.7812 18.9375 73
Q24.125 74.2188 28.4219 74.2188
Q39.75 74.2188 46.4844 68.5469
Q53.2188 62.8906 53.2188 53.4219
Q53.2188 48.9219 51.5312 44.8906
Q49.8594 40.875 45.4062 35.4062
Q44.1875 33.9844 37.6406 27.2188
Q31.1094 20.4531 19.1875 8.29688" id="DejaVuSans-32"/>
      </defs>
      <g transform="translate(204.703125 401.918125)scale(0.12 -0.12)">
       <use xlink:href="#DejaVuSans-32"/>
       <use x="63.623046875" xlink:href="#DejaVuSans-30"/>
      </g>
     </g>
    </g>
    <g id="xtick_4">
     <g id="line2d_7">
      <g>
       <use style="stroke:#000000;stroke-width:0.5;" x="267.3" xlink:href="#m93b0483c22" y="388.8"/>
      </g>
     </g>
     <g id="line2d_8">
      <g>
       <use style="stroke:#000000;stroke-width:0.5;" x="267.3" xlink:href="#m741efc42ff" y="43.2"/>
      </g>
     </g>
     <g id="text_4">
      <!-- 22 -->
      <g transform="translate(260.705625 401.918125)scale(0.12 -0.12)">
       <use xlink:href="#DejaVuSans-32"/>
       <use x="63.623046875" xlink:href="#DejaVuSans-32"/>
      </g>
     </g>
    </g>
    <g id="xtick_5">
     <g id="line2d_9">
      <g>
       <use style="stroke:#000000;stroke-width:0.5;" x="323.1" xlink:href="#m93b0483c22" y="388.8"/>
      </g>
     </g>
     <g id="line2d_10">
      <g>
       <use style="stroke:#000000;stroke-width:0.5;" x="323.1" xlink:href="#m741efc42ff" y="43.2"/>
      </g>
     </g>
     <g id="text_5">
      <!-- 24 -->
      <defs>
       <path d="
M37.7969 64.3125
L12.8906 25.3906
L37.7969 25.3906
z

M35.2031 72.9062
L47.6094 72.9062
L47.6094 25.3906
L58.0156 25.3906
L58.0156 17.1875
L47.6094 17.1875
L47.6094 0
L37.7969 0
L37.7969 17.1875
L4.89062 17.1875
L4.89062 26.7031
z
" id="DejaVuSans-34"/>
      </defs>
      <g transform="translate(316.24125 401.918125)scale(0.12 -0.12)">
       <use xlink:href="#DejaVuSans-32"/>
       <use x="63.623046875" xlink:href="#DejaVuSans-34"/>
      </g>
     </g>
    </g>
    <g id="xtick_6">
     <g id="line2d_11">
      <g>
       <use style="stroke:#000000;stroke-width:0.5;" x="378.9" xlink:href="#m93b0483c22" y="388.8"/>
      </g>
     </g>
     <g id="line2d_12">
      <g>
       <use style="stroke:#000000;stroke-width:0.5;" x="378.9" xlink:href="#m741efc42ff" y="43.2"/>
      </g>
     </g>
     <g id="text_6">
      <!-- 26 -->
      <g transform="translate(372.0825 401.918125)scale(0.12 -0.12)">
       <use xlink:href="#DejaVuSans-32"/>
       <use x="63.623046875" xlink:href="#DejaVuSans-36"/>
      </g>
     </g>
    </g>
    <g id="xtick_7">
     <g id="line2d_13">
      <g>
       <use style="stroke:#000000;stroke-width:0.5;" x="434.7" xlink:href="#m93b0483c22" y="388.8"/>
      </g>
     </g>
     <g id="line2d_14">
      <g>
       <use style="stroke:#000000;stroke-width:0.5;" x="434.7" xlink:href="#m741efc42ff" y="43.2"/>
      </g>
     </g>
     <g id="text_7">
      <!-- 28 -->
      <g transform="translate(427.9153125 401.918125)scale(0.12 -0.12)">
       <use xlink:href="#DejaVuSans-32"/>
       <use x="63.623046875" xlink:href="#DejaVuSans-38"/>
      </g>
     </g>
    </g>
    <g id="xtick_8">
     <g id="line2d_15">
      <g>
       <use style="stroke:#000000;stroke-width:0.5;" x="490.5" xlink:href="#m93b0483c22" y="388.8"/>
      </g>
     </g>
     <g id="line2d_16">
      <g>
       <use style="stroke:#000000;stroke-width:0.5;" x="490.5" xlink:href="#m741efc42ff" y="43.2"/>
      </g>
     </g>
     <g id="text_8">
      <!-- 30 -->
      <defs>
       <path d="
M40.5781 39.3125
Q47.6562 37.7969 51.625 33
Q55.6094 28.2188 55.6094 21.1875
Q55.6094 10.4062 48.1875 4.48438
Q40.7656 -1.42188 27.0938 -1.42188
Q22.5156 -1.42188 17.6562 -0.515625
Q12.7969 0.390625 7.625 2.20312
L7.625 11.7188
Q11.7188 9.32812 16.5938 8.10938
Q21.4844 6.89062 26.8125 6.89062
Q36.0781 6.89062 40.9375 10.5469
Q45.7969 14.2031 45.7969 21.1875
Q45.7969 27.6406 41.2812 31.2656
Q36.7656 34.9062 28.7188 34.9062
L20.2188 34.9062
L20.2188 43.0156
L29.1094 43.0156
Q36.375 43.0156 40.2344 45.9219
Q44.0938 48.8281 44.0938 54.2969
Q44.0938 59.9062 40.1094 62.9062
Q36.1406 65.9219 28.7188 65.9219
Q24.6562 65.9219 20.0156 65.0312
Q15.375 64.1562 9.8125 62.3125
L9.8125 71.0938
Q15.4375 72.6562 20.3438 73.4375
Q25.25 74.2188 29.5938 74.2188
Q40.8281 74.2188 47.3594 69.1094
Q53.9062 64.0156 53.9062 55.3281
Q53.9062 49.2656 50.4375 45.0938
Q46.9688 40.9219 40.5781 39.3125" id="DejaVuSans-33"/>
      </defs>
      <g transform="translate(483.7209375 401.918125)scale(0.12 -0.12)">
       <use xlink:href="#DejaVuSans-33"/>
       <use x="63.623046875" xlink:href="#DejaVuSans-30"/>
      </g>
     </g>
    </g>
   </g>
   <g id="matplotlib.axis_2">
    <g id="ytick_1">
     <g id="line2d_17">
      <defs>
       <path d="
M0 0
L4 0" id="m728421d6d4" style="stroke:#000000;stroke-width:0.5;"/>
      </defs>
      <g>
       <use style="stroke:#000000;stroke-width:0.5;" x="72.0" xlink:href="#m728421d6d4" y="388.8"/>
      </g>
     </g>
     <g id="line2d_18">
      <defs>
       <path d="
M0 0
L-4 0" id="mcb0005524f" style="stroke:#000000;stroke-width:0.5;"/>
      </defs>
      <g>
       <use style="stroke:#000000;stroke-width:0.5;" x="518.4" xlink:href="#mcb0005524f" y="388.8"/>
      </g>
     </g>
     <g id="text_9">
      <!-- 16 -->
      <g transform="translate(54.80375 392.11125)scale(0.12 -0.12)">
       <use xlink:href="#DejaVuSans-31"/>
       <use x="63.623046875" xlink:href="#DejaVuSans-36"/>
      </g>
     </g>
    </g>
    <g id="ytick_2">
     <g id="line2d_19">
      <g>
       <use style="stroke:#000000;stroke-width:0.5;" x="72.0" xlink:href="#m728421d6d4" y="339.428571429"/>
      </g>
     </g>
     <g id="line2d_20">
      <g>
       <use style="stroke:#000000;stroke-width:0.5;" x="518.4" xlink:href="#mcb0005524f" y="339.428571429"/>
      </g>
     </g>
     <g id="text_10">
      <!-- 18 -->
      <g transform="translate(54.869375 342.739821429)scale(0.12 -0.12)">
       <use xlink:href="#DejaVuSans-31"/>
       <use x="63.623046875" xlink:href="#DejaVuSans-38"/>
      </g>
     </g>
    </g>
    <g id="ytick_3">
     <g id="line2d_21">
      <g>
       <use style="stroke:#000000;stroke-width:0.5;" x="72.0" xlink:href="#m728421d6d4" y="290.057142857"/>
      </g>
     </g>
     <g id="line2d_22">
      <g>
       <use style="stroke:#000000;stroke-width:0.5;" x="518.4" xlink:href="#mcb0005524f" y="290.057142857"/>
      </g>
     </g>
     <g id="text_11">
      <!-- 20 -->
      <g transform="translate(54.40625 293.368392857)scale(0.12 -0.12)">
       <use xlink:href="#DejaVuSans-32"/>
       <use x="63.623046875" xlink:href="#DejaVuSans-30"/>
      </g>
     </g>
    </g>
    <g id="ytick_4">
     <g id="line2d_23">
      <g>
       <use style="stroke:#000000;stroke-width:0.5;" x="72.0" xlink:href="#m728421d6d4" y="240.685714286"/>
      </g>
     </g>
     <g id="line2d_24">
      <g>
       <use style="stroke:#000000;stroke-width:0.5;" x="518.4" xlink:href="#mcb0005524f" y="240.685714286"/>
      </g>
     </g>
     <g id="text_12">
      <!-- 22 -->
      <g transform="translate(54.81125 243.996964286)scale(0.12 -0.12)">
       <use xlink:href="#DejaVuSans-32"/>
       <use x="63.623046875" xlink:href="#DejaVuSans-32"/>
      </g>
     </g>
    </g>
    <g id="ytick_5">
     <g id="line2d_25">
      <g>
       <use style="stroke:#000000;stroke-width:0.5;" x="72.0" xlink:href="#m728421d6d4" y="191.314285714"/>
      </g>
     </g>
     <g id="line2d_26">
      <g>
       <use style="stroke:#000000;stroke-width:0.5;" x="518.4" xlink:href="#mcb0005524f" y="191.314285714"/>
      </g>
     </g>
     <g id="text_13">
      <!-- 24 -->
      <g transform="translate(54.2825 194.625535714)scale(0.12 -0.12)">
       <use xlink:href="#DejaVuSans-32"/>
       <use x="63.623046875" xlink:href="#DejaVuSans-34"/>
      </g>
     </g>
    </g>
    <g id="ytick_6">
     <g id="line2d_27">
      <g>
       <use style="stroke:#000000;stroke-width:0.5;" x="72.0" xlink:href="#m728421d6d4" y="141.942857143"/>
      </g>
     </g>
     <g id="line2d_28">
      <g>
       <use style="stroke:#000000;stroke-width:0.5;" x="518.4" xlink:href="#mcb0005524f" y="141.942857143"/>
      </g>
     </g>
     <g id="text_14">
      <!-- 26 -->
      <g transform="translate(54.365 145.254107143)scale(0.12 -0.12)">
       <use xlink:href="#DejaVuSans-32"/>
       <use x="63.623046875" xlink:href="#DejaVuSans-36"/>
      </g>
     </g>
    </g>
    <g id="ytick_7">
     <g id="line2d_29">
      <g>
       <use style="stroke:#000000;stroke-width:0.5;" x="72.0" xlink:href="#m728421d6d4" y="92.5714285714"/>
      </g>
     </g>
     <g id="line2d_30">
      <g>
       <use style="stroke:#000000;stroke-width:0.5;" x="518.4" xlink:href="#mcb0005524f" y="92.5714285714"/>
      </g>
     </g>
     <g id="text_15">
      <!-- 28 -->
      <g transform="translate(54.430625 95.8826785714)scale(0.12 -0.12)">
       <use xlink:href="#DejaVuSans-32"/>
       <use x="63.623046875" xlink:href="#DejaVuSans-38"/>
      </g>
     </g>
    </g>
    <g id="ytick_8">
     <g id="line2d_31">
      <g>
       <use style="stroke:#000000;stroke-width:0.5;" x="72.0" xlink:href="#m728421d6d4" y="43.2"/>
      </g>
     </g>
     <g id="line2d_32">
      <g>
       <use style="stroke:#000000;stroke-width:0.5;" x="518.4" xlink:href="#mcb0005524f" y="43.2"/>
      </g>
     </g>
     <g id="text_16">
      <!-- 30 -->
      <g transform="translate(54.441875 46.51125)scale(0.12 -0.12)">
       <use xlink:href="#DejaVuSans-33"/>
       <use x="63.623046875" xlink:href="#DejaVuSans-30"/>
      </g>
     </g>
    </g>
   </g>
   <g id="patch_3">
    <path d="
M72 43.2
L518.4 43.2" style="fill:none;stroke:#000000;"/>
   </g>
   <g id="patch_4">
    <path d="
M518.4 388.8
L518.4 43.2" style="fill:none;stroke:#000000;"/>
   </g>
   <g id="patch_5">
    <path d="
M72 388.8
L518.4 388.8" style="fill:none;stroke:#000000;"/>
   </g>
   <g id="patch_6">
    <path d="
M72 388.8
L72 43.2" style="fill:none;stroke:#000000;"/>
   </g>
  </g>
 </g>
 <defs>
  <clipPath id="p7ff5b81e1d">
   <rect height="345.6" width="446.4" x="72.0" y="43.2"/>
  </clipPath>
 </defs>
</svg>
